<?xml version="1.0" encoding="UTF-8" standalone="no"?>
<!-- Generated by graphviz version 12.1.0 (20240811.2233)
 -->

<!-- Pages: 1 -->

<svg
   width="9318.7354pt"
   height="1658.0144pt"
   viewBox="0 0 4472.9096 795.68028"
   version="1.1"
   id="svg42"
   sodipodi:docname="agrawal_code_ex_3.svg"
   inkscape:version="1.3 (0e150ed6c4, 2023-07-21)"
   xmlns:inkscape="http://www.inkscape.org/namespaces/inkscape"
   xmlns:sodipodi="http://sodipodi.sourceforge.net/DTD/sodipodi-0.dtd"
   xmlns="http://www.w3.org/2000/svg"
   xmlns:svg="http://www.w3.org/2000/svg">
  <defs
     id="defs42" />
  <sodipodi:namedview
     id="namedview42"
     pagecolor="#ffffff"
     bordercolor="#111111"
     borderopacity="1"
     inkscape:showpageshadow="0"
     inkscape:pageopacity="0"
     inkscape:pagecheckerboard="1"
     inkscape:deskcolor="#d1d1d1"
     inkscape:document-units="pt"
     inkscape:zoom="0.073271628"
     inkscape:cx="-2210.9513"
     inkscape:cy="1248.778"
     inkscape:window-width="3440"
     inkscape:window-height="1417"
     inkscape:window-x="-8"
     inkscape:window-y="-8"
     inkscape:window-maximized="1"
     inkscape:current-layer="svg42" />
  <g
     id="g42"
     transform="translate(0,-0.03644819)">
    <g
       id="node1"
       class="node"
       transform="matrix(2.08333,0,0,2.08333,8.33332,787.49874)">
      <title
         id="title1">n0</title>
      <circle
         fill="#008000"
         stroke="#000000"
         stroke-width="8"
         cx="72"
         cy="-208"
         id="ellipse1"
         r="72" />
      <text
         text-anchor="start"
         x="66.75"
         y="-202.14999"
         font-family="roboto"
         font-size="18px"
         id="text1">A</text>
    </g>
    <g
       id="node10"
       class="node"
       transform="matrix(2.08333,0,0,2.08333,8.33332,787.49874)">
      <title
         id="title2">d0</title>
      <text
         text-anchor="middle"
         x="265"
         y="-251.14999"
         font-family="roboto"
         font-size="18px"
         id="text2">3</text>
    </g>
    <g
       id="edge1"
       class="edge"
       transform="matrix(2.08333,0,0,2.08333,8.33332,787.49874)">
      <title
         id="title3">n0-&gt;d0:w</title>
      <path
         fill="none"
         stroke="#000000"
         stroke-width="4"
         d="m 142.03,-236.79 c 28.01,-9.5 61.26,-18.11 93.25,-19.88"
         id="path3" />
      <circle
         fill="none"
         stroke="#000000"
         stroke-width="4"
         cx="241"
         cy="-256.82999"
         id="ellipse3"
         r="4" />
    </g>
    <g
       id="node11"
       class="node"
       transform="matrix(2.08333,0,0,2.08333,8.33332,787.49874)">
      <title
         id="title4">d1</title>
      <text
         text-anchor="middle"
         x="207"
         y="-153.14999"
         font-family="roboto"
         font-size="18px"
         id="text4">2</text>
    </g>
    <g
       id="edge3"
       class="edge"
       transform="matrix(2.08333,0,0,2.08333,8.33332,787.49874)">
      <title
         id="title5">n0-&gt;d1:w</title>
      <path
         fill="none"
         stroke="#000000"
         stroke-width="4"
         d="m 137.6,-170.24 c 12.57,5.04 26.05,9.01 39.55,10.55"
         id="path5" />
      <circle
         fill="none"
         stroke="#000000"
         stroke-width="4"
         cx="183.00999"
         cy="-159.35001"
         id="ellipse5"
         r="4" />
    </g>
    <g
       id="node2"
       class="node"
       transform="matrix(2.08333,0,0,2.08333,8.33332,787.49874)">
      <title
         id="title6">n1</title>
      <circle
         fill="#d3d3d3"
         stroke="#000000"
         stroke-width="8"
         cx="377"
         cy="-122"
         id="ellipse6"
         r="72" />
      <text
         text-anchor="start"
         x="372.12"
         y="-116.15"
         font-family="roboto"
         font-size="18px"
         id="text6">F</text>
    </g>
    <g
       id="node12"
       class="node"
       transform="matrix(2.08333,0,0,2.08333,8.33332,787.49874)">
      <title
         id="title7">d2</title>
      <text
         text-anchor="middle"
         x="512"
         y="-116.15"
         font-family="roboto"
         font-size="18px"
         id="text7">2</text>
    </g>
    <g
       id="edge5"
       class="edge"
       transform="matrix(2.08333,0,0,2.08333,8.33332,787.49874)">
      <title
         id="title8">n1-&gt;d2:w</title>
      <path
         fill="none"
         stroke="#000000"
         stroke-width="4"
         d="m 452.88,-122 c 9.73,0 19.69,0 29.41,0"
         id="path8" />
      <circle
         fill="none"
         stroke="#000000"
         stroke-width="4"
         cx="488"
         cy="-122"
         id="ellipse8"
         r="4" />
    </g>
    <g
       id="node3"
       class="node"
       transform="matrix(2.08333,0,0,2.08333,8.33332,787.49874)">
      <title
         id="title9">n2</title>
      <circle
         fill="#d3d3d3"
         stroke="#000000"
         stroke-width="8"
         cx="647"
         cy="-122"
         id="ellipse9"
         r="72" />
      <text
         text-anchor="start"
         x="641"
         y="-116.15"
         font-family="roboto"
         font-size="18px"
         id="text9">G</text>
    </g>
    <g
       id="node13"
       class="node"
       transform="matrix(2.08333,0,0,2.08333,8.33332,787.49874)">
      <title
         id="title10">d3</title>
      <text
         text-anchor="middle"
         x="782"
         y="-166.14999"
         font-family="roboto"
         font-size="18px"
         id="text10">1</text>
    </g>
    <g
       id="edge7"
       class="edge"
       transform="matrix(2.08333,0,0,2.08333,8.33332,787.49874)">
      <title
         id="title11">n2-&gt;d3:w</title>
      <path
         fill="none"
         stroke="#000000"
         stroke-width="4"
         d="m 712.22,-160.4 c 12.63,-5.2 26.2,-9.29 39.82,-10.88"
         id="path11" />
      <circle
         fill="none"
         stroke="#000000"
         stroke-width="4"
         cx="758.01001"
         cy="-171.64"
         id="ellipse11"
         r="4" />
    </g>
    <g
       id="node14"
       class="node"
       transform="matrix(2.08333,0,0,2.08333,8.33332,787.49874)">
      <title
         id="title12">d4</title>
      <text
         text-anchor="middle"
         x="782"
         y="-79.150002"
         font-family="roboto"
         font-size="18px"
         id="text12">1</text>
    </g>
    <g
       id="edge9"
       class="edge"
       transform="matrix(2.08333,0,0,2.08333,8.33332,787.49874)">
      <title
         id="title13">n2-&gt;d4:w</title>
      <path
         fill="none"
         stroke="#000000"
         stroke-width="4"
         d="m 716.81,-92.49 c 11.44,3.3 23.47,5.86 35.36,6.94"
         id="path13" />
      <circle
         fill="none"
         stroke="#000000"
         stroke-width="4"
         cx="758.01001"
         cy="-85.279999"
         id="ellipse13"
         r="4" />
    </g>
    <g
       id="node4"
       class="node"
       transform="matrix(2.08333,0,0,2.08333,8.33332,787.49874)">
      <title
         id="title14">n3</title>
      <circle
         fill="#d3d3d3"
         stroke="#000000"
         stroke-width="8"
         cx="917"
         cy="-72"
         id="ellipse14"
         r="72" />
      <text
         text-anchor="start"
         x="911"
         y="-66.150002"
         font-family="roboto"
         font-size="18px"
         id="text14">H</text>
    </g>
    <g
       id="node15"
       class="node"
       transform="matrix(2.08333,0,0,2.08333,8.33332,787.49874)">
      <title
         id="title15">d5</title>
      <text
         text-anchor="middle"
         x="1110"
         y="-66.150002"
         font-family="roboto"
         font-size="18px"
         id="text15">1</text>
    </g>
    <g
       id="edge11"
       class="edge"
       transform="matrix(2.08333,0,0,2.08333,8.33332,787.49874)">
      <title
         id="title16">n3-&gt;d5:w</title>
      <path
         fill="none"
         stroke="#000000"
         stroke-width="4"
         d="m 992.94,-72 c 26.99,0 57.97,0 87.13,0"
         id="path16" />
      <circle
         fill="none"
         stroke="#000000"
         stroke-width="4"
         cx="1086"
         cy="-72"
         id="ellipse16"
         r="4" />
    </g>
    <g
       id="node5"
       class="node"
       transform="matrix(2.08333,0,0,2.08333,8.33332,787.49874)">
      <title
         id="title17">n4</title>
      <circle
         fill="#d3d3d3"
         stroke="#000000"
         stroke-width="8"
         cx="917"
         cy="-259"
         id="ellipse17"
         r="72" />
      <text
         text-anchor="start"
         x="911.75"
         y="-253.14999"
         font-family="roboto"
         font-size="18px"
         id="text17">B</text>
    </g>
    <g
       id="node16"
       class="node"
       transform="matrix(2.08333,0,0,2.08333,8.33332,787.49874)">
      <title
         id="title18">d6</title>
      <text
         text-anchor="middle"
         x="1052"
         y="-271.14999"
         font-family="roboto"
         font-size="18px"
         id="text18">4</text>
    </g>
    <g
       id="edge13"
       class="edge"
       transform="matrix(2.08333,0,0,2.08333,8.33332,787.49874)">
      <title
         id="title19">n4-&gt;d6:w</title>
      <path
         fill="none"
         stroke="#000000"
         stroke-width="4"
         d="m 991.37,-273.86 c 10.13,-1.35 20.56,-2.38 30.77,-2.85"
         id="path19" />
      <circle
         fill="none"
         stroke="#000000"
         stroke-width="4"
         cx="1028"
         cy="-276.85999"
         id="ellipse19"
         r="4" />
    </g>
    <g
       id="node18"
       class="node"
       transform="matrix(2.08333,0,0,2.08333,8.33332,787.49874)">
      <title
         id="title20">d8</title>
      <text
         text-anchor="middle"
         x="1334"
         y="-165.14999"
         font-family="roboto"
         font-size="18px"
         id="text20">1</text>
    </g>
    <g
       id="edge17"
       class="edge"
       transform="matrix(2.08333,0,0,2.08333,8.33332,787.49874)">
      <title
         id="title21">n4-&gt;d8:w</title>
      <path
         fill="none"
         stroke="#808080"
         stroke-width="4"
         d="m 979.84,-192.66 c 20.7,15.54 45.17,27.66 71.16,27.66 0,0 0,0 60,0 87.06,0 111.67,-5.47 193.12,-5.96"
         id="path21" />
      <polygon
         fill="#808080"
         stroke="#808080"
         stroke-width="4"
         points="972.17,-198.88 982.14,-195.3 977.73,-189.86 "
         id="polygon21" />
      <circle
         fill="none"
         stroke="#808080"
         stroke-width="4"
         cx="1310"
         cy="-170.98"
         id="ellipse21"
         r="4" />
    </g>
    <g
       id="node6"
       class="node"
       transform="matrix(2.08333,0,0,2.08333,8.33332,787.49874)">
      <title
         id="title22">n5</title>
      <circle
         fill="#d3d3d3"
         stroke="#000000"
         stroke-width="8"
         cx="1222"
         cy="-302"
         id="ellipse22"
         r="72" />
      <text
         text-anchor="start"
         x="1216.75"
         y="-296.14999"
         font-family="roboto"
         font-size="18px"
         id="text22">C</text>
    </g>
    <g
       id="node17"
       class="node"
       transform="matrix(2.08333,0,0,2.08333,8.33332,787.49874)">
      <title
         id="title23">d7</title>
      <text
         text-anchor="middle"
         x="1392"
         y="-291.14999"
         font-family="roboto"
         font-size="18px"
         id="text23">4</text>
    </g>
    <g
       id="edge15"
       class="edge"
       transform="matrix(2.08333,0,0,2.08333,8.33332,787.49874)">
      <title
         id="title24">n5-&gt;d7:w</title>
      <path
         fill="none"
         stroke="#000000"
         stroke-width="4"
         d="m 1297.87,-298.54 c 20.49,0.72 42.95,1.32 64.36,1.49"
         id="path24" />
      <circle
         fill="none"
         stroke="#000000"
         stroke-width="4"
         cx="1368"
         cy="-297.01999"
         id="ellipse24"
         r="4" />
    </g>
    <g
       id="node7"
       class="node"
       transform="matrix(2.08333,0,0,2.08333,8.33332,787.49874)">
      <title
         id="title25">n6</title>
      <circle
         fill="#d3d3d3"
         stroke="#000000"
         stroke-width="8"
         cx="1527"
         cy="-209"
         id="ellipse25"
         r="72" />
      <text
         text-anchor="start"
         x="1521"
         y="-203.14999"
         font-family="roboto"
         font-size="18px"
         id="text25">D</text>
    </g>
    <g
       id="node19"
       class="node"
       transform="matrix(2.08333,0,0,2.08333,8.33332,787.49874)">
      <title
         id="title26">d9</title>
      <text
         text-anchor="middle"
         x="1662"
         y="-203.14999"
         font-family="roboto"
         font-size="18px"
         id="text26">4</text>
    </g>
    <g
       id="edge19"
       class="edge"
       transform="matrix(2.08333,0,0,2.08333,8.33332,787.49874)">
      <title
         id="title27">n6-&gt;d9:w</title>
      <path
         fill="none"
         stroke="#000000"
         stroke-width="4"
         d="m 1602.88,-209 c 9.73,0 19.69,0 29.41,0"
         id="path27" />
      <circle
         fill="none"
         stroke="#000000"
         stroke-width="4"
         cx="1638"
         cy="-209"
         id="ellipse27"
         r="4" />
    </g>
    <g
       id="node8"
       class="node"
       transform="matrix(2.08333,0,0,2.08333,8.33332,787.49874)">
      <title
         id="title28">n7</title>
      <circle
         fill="#d3d3d3"
         stroke="#000000"
         stroke-width="8"
         cx="1797"
         cy="-209"
         id="ellipse28"
         r="72" />
      <text
         text-anchor="start"
         x="1792.12"
         y="-203.14999"
         font-family="roboto"
         font-size="18px"
         id="text28">E</text>
    </g>
    <g
       id="node20"
       class="node"
       transform="matrix(2.08333,0,0,2.08333,8.33332,787.49874)">
      <title
         id="title29">d10</title>
      <text
         text-anchor="middle"
         x="1932"
         y="-184.14999"
         font-family="roboto"
         font-size="18px"
         id="text29">3</text>
    </g>
    <g
       id="edge21"
       class="edge"
       transform="matrix(2.08333,0,0,2.08333,8.33332,787.49874)">
      <title
         id="title30">n7-&gt;d10:w</title>
      <path
         fill="none"
         stroke="#000000"
         stroke-width="4"
         d="m 1871.34,-193.31 c 10.13,1.42 20.57,2.51 30.79,3.01"
         id="path30" />
      <circle
         fill="none"
         stroke="#000000"
         stroke-width="4"
         cx="1908"
         cy="-190.14999"
         id="ellipse30"
         r="4" />
    </g>
    <g
       id="node9"
       class="node"
       transform="matrix(2.08333,0,0,2.08333,8.33332,787.49874)">
      <title
         id="title31">n8</title>
      <circle
         fill="#ff0000"
         stroke="#000000"
         stroke-width="8"
         cx="2067"
         cy="-115"
         id="ellipse31"
         r="72" />
      <text
         text-anchor="start"
         x="2052.3799"
         y="-109.15"
         font-family="roboto"
         font-size="18px"
         id="text31">end</text>
    </g>
    <g
       id="edge2"
       class="edge"
       transform="matrix(2.08333,0,0,2.08333,8.33332,787.49874)">
      <title
         id="title32">d0:e-&gt;n4</title>
      <path
         fill="none"
         stroke="#000000"
         stroke-width="4"
         d="m 294.81,-257.01 c 73.94,-0.18 96.71,-1.99 176.19,-1.99 0,0 0,0 312,0 13.67,0 28.14,0 42.29,0"
         id="path32" />
      <circle
         fill="none"
         stroke="#000000"
         stroke-width="4"
         cx="289"
         cy="-257.01001"
         id="ellipse32"
         r="4" />
      <polygon
         fill="#000000"
         stroke="#000000"
         stroke-width="4"
         points="835.03,-259 825.03,-255.5 825.03,-262.5 "
         id="polygon32" />
    </g>
    <g
       id="edge4"
       class="edge"
       transform="matrix(2.08333,0,0,2.08333,8.33332,787.49874)">
      <title
         id="title33">d1:e-&gt;n1</title>
      <path
         fill="none"
         stroke="#000000"
         stroke-width="4"
         d="m 236.69,-158.67 c 17.79,0.99 36.06,4.09 53.27,8.09"
         id="path33" />
      <circle
         fill="none"
         stroke="#000000"
         stroke-width="4"
         cx="231"
         cy="-158.83"
         id="ellipse33"
         r="4" />
      <polygon
         fill="#000000"
         stroke="#000000"
         stroke-width="4"
         points="299.56,-148.16 289.01,-147.21 290.72,-154 "
         id="polygon33" />
    </g>
    <g
       id="edge6"
       class="edge"
       transform="matrix(2.08333,0,0,2.08333,8.33332,787.49874)">
      <title
         id="title34">d2:e-&gt;n2</title>
      <path
         fill="none"
         stroke="#000000"
         stroke-width="4"
         d="m 541.71,-122 c 4.56,0 9.17,0 13.78,0"
         id="path34" />
      <circle
         fill="none"
         stroke="#000000"
         stroke-width="4"
         cx="536"
         cy="-122"
         id="ellipse34"
         r="4" />
      <polygon
         fill="#000000"
         stroke="#000000"
         stroke-width="4"
         points="565.07,-122 555.07,-118.5 555.07,-125.5 "
         id="polygon34" />
    </g>
    <g
       id="edge8"
       class="edge"
       transform="matrix(2.08333,0,0,2.08333,8.33332,787.49874)">
      <title
         id="title35">d3:e-&gt;n4</title>
      <path
         fill="none"
         stroke="#000000"
         stroke-width="4"
         d="m 811.7,-172.94 c 15.59,-2.49 30.22,-9.69 43.33,-18.93"
         id="path35" />
      <circle
         fill="none"
         stroke="#000000"
         stroke-width="4"
         cx="805.97998"
         cy="-172.48"
         id="ellipse35"
         r="4" />
      <polygon
         fill="#000000"
         stroke="#000000"
         stroke-width="4"
         points="862.83,-197.97 857.11,-189.05 852.8,-194.57 "
         id="polygon35" />
    </g>
    <g
       id="edge10"
       class="edge"
       transform="matrix(2.08333,0,0,2.08333,8.33332,787.49874)">
      <title
         id="title36">d4:e-&gt;n3</title>
      <path
         fill="none"
         stroke="#000000"
         stroke-width="4"
         d="m 811.95,-84.79 c 4.65,0.16 9.35,0.4 14.04,0.71"
         id="path36" />
      <circle
         fill="none"
         stroke="#000000"
         stroke-width="4"
         cx="806"
         cy="-84.889999"
         id="ellipse36"
         r="4" />
      <polygon
         fill="#000000"
         stroke="#000000"
         stroke-width="4"
         points="835.84,-83.28 825.6,-80.6 826.16,-87.58 "
         id="polygon36" />
    </g>
    <g
       id="edge12"
       class="edge"
       transform="matrix(2.08333,0,0,2.08333,8.33332,787.49874)">
      <title
         id="title37">d5:e-&gt;n8</title>
      <path
         fill="none"
         stroke="#000000"
         stroke-width="4"
         d="m 1139.88,-72 c 81.42,0 106.1,0 193.12,0 0,0 0,0 600,0 16.37,0 33.34,-2.98 49.47,-7.38"
         id="path37" />
      <circle
         fill="none"
         stroke="#000000"
         stroke-width="4"
         cx="1134"
         cy="-72"
         id="ellipse37"
         r="4" />
      <polygon
         fill="#000000"
         stroke="#000000"
         stroke-width="4"
         points="1991.83,-82.22 1983.27,-75.97 1981.24,-82.67 "
         id="polygon37" />
    </g>
    <g
       id="edge14"
       class="edge"
       transform="matrix(2.08333,0,0,2.08333,8.33332,787.49874)">
      <title
         id="title38">d6:e-&gt;n5</title>
      <path
         fill="none"
         stroke="#000000"
         stroke-width="4"
         d="m 1081.85,-277.24 c 16.72,-0.65 33.98,-2.59 50.42,-5.11"
         id="path38" />
      <circle
         fill="none"
         stroke="#000000"
         stroke-width="4"
         cx="1076"
         cy="-277.12"
         id="ellipse38"
         r="4" />
      <polygon
         fill="#000000"
         stroke="#000000"
         stroke-width="4"
         points="1142.08,-283.98 1132.79,-278.89 1131.64,-285.79 "
         id="polygon38" />
    </g>
    <g
       id="edge16"
       class="edge"
       transform="matrix(2.08333,0,0,2.08333,8.33332,787.49874)">
      <title
         id="title39">d7:e-&gt;n6</title>
      <path
         fill="none"
         stroke="#000000"
         stroke-width="4"
         d="m 1421.81,-296.04 c 15.87,2.57 30.73,10.05 43.99,19.61"
         id="path39" />
      <circle
         fill="none"
         stroke="#000000"
         stroke-width="4"
         cx="1415.98"
         cy="-296.51001"
         id="ellipse39"
         r="4" />
      <polygon
         fill="#000000"
         stroke="#000000"
         stroke-width="4"
         points="1473.26,-270.49 1463.26,-273.98 1467.62,-279.45 "
         id="polygon39" />
    </g>
    <g
       id="edge18"
       class="edge"
       transform="matrix(2.08333,0,0,2.08333,8.33332,787.49874)">
      <title
         id="title40">d8:e-&gt;n6</title>
      <path
         fill="none"
         stroke="#808080"
         stroke-width="4"
         d="m 1363.76,-171.27 c 30.93,-1.36 63.37,-7.79 91.04,-14.97"
         id="path40" />
      <circle
         fill="none"
         stroke="#808080"
         stroke-width="4"
         cx="1358"
         cy="-171.14"
         id="ellipse40"
         r="4" />
    </g>
    <g
       id="edge20"
       class="edge"
       transform="matrix(2.08333,0,0,2.08333,8.33332,787.49874)">
      <title
         id="title41">d9:e-&gt;n7</title>
      <path
         fill="none"
         stroke="#000000"
         stroke-width="4"
         d="m 1691.71,-209 c 4.56,0 9.17,0 13.78,0"
         id="path41" />
      <circle
         fill="none"
         stroke="#000000"
         stroke-width="4"
         cx="1686"
         cy="-209"
         id="ellipse41"
         r="4" />
      <polygon
         fill="#000000"
         stroke="#000000"
         stroke-width="4"
         points="1715.07,-209 1705.07,-205.5 1705.07,-212.5 "
         id="polygon41" />
    </g>
    <g
       id="edge22"
       class="edge"
       transform="matrix(2.08333,0,0,2.08333,8.33332,787.49874)">
      <title
         id="title42">d10:e-&gt;n8</title>
      <path
         fill="none"
         stroke="#000000"
         stroke-width="4"
         d="m 1961.73,-189.11 c 12.91,1.93 25.37,6.85 36.91,13.3"
         id="path42" />
      <circle
         fill="none"
         stroke="#000000"
         stroke-width="4"
         cx="1955.98"
         cy="-189.55"
         id="ellipse42"
         r="4" />
      <polygon
         fill="#000000"
         stroke="#000000"
         stroke-width="4"
         points="2007.09,-170.51 1996.76,-172.86 2000.48,-178.79 "
         id="polygon42" />
    </g>
  </g>
</svg>
