<?xml version="1.0" encoding="UTF-8" standalone="no"?>
<!-- Generated by graphviz version 12.1.0 (20240811.2233)
 -->

<!-- Pages: 1 -->

<svg
   width="9973.0762pt"
   height="4657.4609pt"
   viewBox="0 0 4787.3259 2235.8923"
   version="1.1"
   id="svg81"
   sodipodi:docname="roadfines-alpha.svg"
   inkscape:version="1.3 (0e150ed6c4, 2023-07-21)"
   xmlns:inkscape="http://www.inkscape.org/namespaces/inkscape"
   xmlns:sodipodi="http://sodipodi.sourceforge.net/DTD/sodipodi-0.dtd"
   xmlns="http://www.w3.org/2000/svg"
   xmlns:svg="http://www.w3.org/2000/svg">
  <defs
     id="defs81" />
  <sodipodi:namedview
     id="namedview81"
     pagecolor="#ffffff"
     bordercolor="#111111"
     borderopacity="1"
     inkscape:showpageshadow="0"
     inkscape:pageopacity="0"
     inkscape:pagecheckerboard="1"
     inkscape:deskcolor="#d1d1d1"
     inkscape:document-units="pt"
     inkscape:zoom="0.10193121"
     inkscape:cx="4439.2684"
     inkscape:cy="3252.1933"
     inkscape:window-width="3440"
     inkscape:window-height="1417"
     inkscape:window-x="-8"
     inkscape:window-y="-8"
     inkscape:window-maximized="1"
     inkscape:current-layer="svg81" />
  <g
     id="g81"
     transform="translate(-6.3502436,-4.1666741)">
    <g
       id="node1"
       class="node"
       transform="matrix(2.08333,0,0,2.08333,8.33332,2237.9756)">
      <title
         id="title1">n0</title>
      <circle
         fill="#ffe0b2"
         stroke="#000000"
         stroke-width="2"
         cx="1453.13"
         cy="-461.23001"
         id="ellipse1"
         r="44.810001" />
      <text
         text-anchor="start"
         x="1421.63"
         y="-470.67999"
         font-family="roboto"
         font-size="9px"
         id="text1">P_({'Insert Fine</text>
      <text
         text-anchor="start"
         x="1423.5"
         y="-458.67999"
         font-family="roboto"
         font-size="9px"
         id="text2">Notification'},</text>
      <text
         text-anchor="start"
         x="1420.88"
         y="-446.67999"
         font-family="roboto"
         font-size="9px"
         id="text3">{'Add penalty'})</text>
    </g>
    <g
       id="node21"
       class="node"
       transform="matrix(2.08333,0,0,2.08333,8.33332,2237.9756)">
      <title
         id="title3">n20</title>
      <path
         fill="#81c784"
         stroke="#000000"
         stroke-width="3"
         d="m 1754.42,-484.88 c 0,0 -192,0 -192,0 -6,0 -12,6 -12,12 0,0 0,27.3 0,27.3 0,6 6,12 12,12 0,0 192,0 192,0 6,0 12,-6 12,-12 0,0 0,-27.3 0,-27.3 0,-6 -6,-12 -12,-12"
         id="path3" />
      <text
         text-anchor="start"
         x="1611.17"
         y="-453.38"
         font-family="roboto"
         font-size="18px"
         id="text4">Add penalty</text>
    </g>
    <g
       id="edge24"
       class="edge"
       transform="matrix(2.08333,0,0,2.08333,8.33332,2237.9756)">
      <title
         id="title4">n0-&gt;n20</title>
      <path
         fill="none"
         stroke="#263238"
         stroke-width="4"
         d="m 1498.74,-460.79 c 10.6,0.1 22.42,0.22 34.71,0.34"
         id="path4" />
      <polygon
         fill="#263238"
         stroke="#263238"
         stroke-width="4"
         points="1543.14,-460.35 1533.1,-456.95 1533.17,-463.95 "
         id="polygon4" />
    </g>
    <g
       id="node2"
       class="node"
       transform="matrix(2.08333,0,0,2.08333,8.33332,2237.9756)">
      <title
         id="title5">n1</title>
      <circle
         fill="#ffe0b2"
         stroke="#000000"
         stroke-width="2"
         cx="429.23001"
         cy="-51.23"
         id="ellipse5"
         r="51.23" />
      <text
         text-anchor="start"
         x="396.60001"
         y="-66.68"
         font-family="roboto"
         font-size="9px"
         id="text5">P_({'Create Fine</text>
      <text
         text-anchor="start"
         x="399.23001"
         y="-54.68"
         font-family="roboto"
         font-size="9px"
         id="text6">'},{'Insert Date</text>
      <text
         text-anchor="start"
         x="396.98001"
         y="-42.68"
         font-family="roboto"
         font-size="9px"
         id="text7">Appeal to Prefe</text>
      <text
         text-anchor="start"
         x="413.85001"
         y="-30.68"
         font-family="roboto"
         font-size="9px"
         id="text8">cture'})</text>
    </g>
    <g
       id="node24"
       class="node"
       transform="matrix(2.08333,0,0,2.08333,8.33332,2237.9756)">
      <title
         id="title8">n23</title>
      <path
         fill="#81c784"
         stroke="#000000"
         stroke-width="3"
         d="m 729.46,-88.13 c 0,0 -192,0 -192,0 -6,0 -12,6 -12,12 0,0 0,49.8 0,49.8 0,6 6,12 12,12 0,0 192,0 192,0 6,0 12,-6 12,-12 0,0 0,-49.8 0,-49.8 0,-6 -6,-12 -12,-12"
         id="path8" />
      <text
         text-anchor="start"
         x="565.21002"
         y="-56.630001"
         font-family="roboto"
         font-size="18px"
         id="text9">Insert Date Appe</text>
      <text
         text-anchor="start"
         x="571.58002"
         y="-34.130001"
         font-family="roboto"
         font-size="18px"
         id="text10">al to Prefecture</text>
    </g>
    <g
       id="edge22"
       class="edge"
       transform="matrix(2.08333,0,0,2.08333,8.33332,2237.9756)">
      <title
         id="title10">n1-&gt;n23</title>
      <path
         fill="none"
         stroke="#263238"
         stroke-width="4"
         d="m 481.26,-51.23 c 8.47,0 17.57,0 26.95,0"
         id="path10" />
      <polygon
         fill="#263238"
         stroke="#263238"
         stroke-width="4"
         points="518.14,-51.23 508.14,-47.73 508.14,-54.73 "
         id="polygon10" />
    </g>
    <g
       id="node3"
       class="node"
       transform="matrix(2.08333,0,0,2.08333,8.33332,2237.9756)">
      <title
         id="title11">n2</title>
      <circle
         fill="#ffe0b2"
         stroke="#000000"
         stroke-width="2"
         cx="1864.77"
         cy="-457.23001"
         id="ellipse11"
         r="53.349998" />
      <text
         text-anchor="start"
         x="1830.64"
         y="-472.67999"
         font-family="roboto"
         font-size="9px"
         id="text11">P_({'Add penalty</text>
      <text
         text-anchor="start"
         x="1834.02"
         y="-460.67999"
         font-family="roboto"
         font-size="9px"
         id="text12">'},{'Send for Cr</text>
      <text
         text-anchor="start"
         x="1834.77"
         y="-448.67999"
         font-family="roboto"
         font-size="9px"
         id="text13">edit Collection'</text>
      <text
         text-anchor="start"
         x="1860.64"
         y="-436.67999"
         font-family="roboto"
         font-size="9px"
         id="text14">})</text>
    </g>
    <g
       id="node22"
       class="node"
       transform="matrix(2.08333,0,0,2.08333,8.33332,2237.9756)">
      <title
         id="title14">n21</title>
      <path
         fill="#81c784"
         stroke="#000000"
         stroke-width="3"
         d="m 2167.12,-643.13 c 0,0 -192,0 -192,0 -6,0 -12,6 -12,12 0,0 0,49.8 0,49.8 0,6 6,12 12,12 0,0 192,0 192,0 6,0 12,-6 12,-12 0,0 0,-49.8 0,-49.8 0,-6 -6,-12 -12,-12"
         id="path14" />
      <text
         text-anchor="start"
         x="2007.74"
         y="-611.63"
         font-family="roboto"
         font-size="18px"
         id="text15">Send for Credit</text>
      <text
         text-anchor="start"
         x="2032.87"
         y="-589.13"
         font-family="roboto"
         font-size="18px"
         id="text16">Collection</text>
    </g>
    <g
       id="edge17"
       class="edge"
       transform="matrix(2.08333,0,0,2.08333,8.33332,2237.9756)">
      <title
         id="title16">n2-&gt;n21</title>
      <path
         fill="none"
         stroke="#263238"
         stroke-width="4"
         d="m 1908.61,-488.47 c 27.87,-20.32 64.77,-47.22 96.25,-70.18"
         id="path16" />
      <polygon
         fill="#263238"
         stroke="#263238"
         stroke-width="4"
         points="2012.64,-564.32 2006.62,-555.6 2002.5,-561.26 "
         id="polygon16" />
    </g>
    <g
       id="node4"
       class="node"
       transform="matrix(2.08333,0,0,2.08333,8.33332,2237.9756)">
      <title
         id="title17">n3</title>
      <circle
         fill="#ef9a9a"
         stroke="#000000"
         stroke-width="2"
         cx="2260.1201"
         cy="-724.22998"
         id="ellipse17"
         r="36" />
      <text
         text-anchor="start"
         x="2246.99"
         y="-721.67999"
         font-family="roboto"
         font-size="9px"
         id="text17">P_sink</text>
    </g>
    <g
       id="node5"
       class="node"
       transform="matrix(2.08333,0,0,2.08333,8.33332,2237.9756)">
      <title
         id="title18">n4</title>
      <circle
         fill="#ffe0b2"
         stroke="#000000"
         stroke-width="2"
         cx="1453.13"
         cy="-293.23001"
         id="ellipse18"
         r="52.290001" />
      <text
         text-anchor="start"
         x="1420.5"
         y="-314.67999"
         font-family="roboto"
         font-size="9px"
         id="text18">P_({'Create Fine</text>
      <text
         text-anchor="start"
         x="1425.38"
         y="-302.67999"
         font-family="roboto"
         font-size="9px"
         id="text19">', 'Insert Fine</text>
      <text
         text-anchor="start"
         x="1422.75"
         y="-290.67999"
         font-family="roboto"
         font-size="9px"
         id="text20">Notification'},{</text>
      <text
         text-anchor="start"
         x="1419.75"
         y="-278.67999"
         font-family="roboto"
         font-size="9px"
         id="text21">'Appeal to Judge</text>
      <text
         text-anchor="start"
         x="1447.88"
         y="-266.67999"
         font-family="roboto"
         font-size="9px"
         id="text22">'})</text>
    </g>
    <g
       id="node19"
       class="node"
       transform="matrix(2.08333,0,0,2.08333,8.33332,2237.9756)">
      <title
         id="title22">n18</title>
      <path
         fill="#81c784"
         stroke="#000000"
         stroke-width="3"
         d="m 1754.42,-318.88 c 0,0 -192,0 -192,0 -6,0 -12,6 -12,12 0,0 0,27.3 0,27.3 0,6 6,12 12,12 0,0 192,0 192,0 6,0 12,-6 12,-12 0,0 0,-27.3 0,-27.3 0,-6 -6,-12 -12,-12"
         id="path22" />
      <text
         text-anchor="start"
         x="1594.67"
         y="-287.38"
         font-family="roboto"
         font-size="18px"
         id="text23">Appeal to Judge</text>
    </g>
    <g
       id="edge1"
       class="edge"
       transform="matrix(2.08333,0,0,2.08333,8.33332,2237.9756)">
      <title
         id="title23">n4-&gt;n18</title>
      <path
         fill="none"
         stroke="#263238"
         stroke-width="4"
         d="m 1506.21,-293.23 c 8.52,0 17.65,0 27.05,0"
         id="path23" />
      <polygon
         fill="#263238"
         stroke="#263238"
         stroke-width="4"
         points="1543.22,-293.23 1533.22,-289.73 1533.22,-296.73 "
         id="polygon23" />
    </g>
    <g
       id="node6"
       class="node"
       transform="matrix(2.08333,0,0,2.08333,8.33332,2237.9756)">
      <title
         id="title24">n5</title>
      <circle
         fill="#ffe0b2"
         stroke="#000000"
         stroke-width="2"
         cx="1864.77"
         cy="-606.22998"
         id="ellipse24"
         r="52.82" />
      <text
         text-anchor="start"
         x="1831.02"
         y="-627.67999"
         font-family="roboto"
         font-size="9px"
         id="text24">P_({'Receive Res</text>
      <text
         text-anchor="start"
         x="1832.52"
         y="-615.67999"
         font-family="roboto"
         font-size="9px"
         id="text25">ult Appeal from</text>
      <text
         text-anchor="start"
         x="1833.64"
         y="-603.67999"
         font-family="roboto"
         font-size="9px"
         id="text26">Prefecture'},{'S</text>
      <text
         text-anchor="start"
         x="1833.27"
         y="-591.67999"
         font-family="roboto"
         font-size="9px"
         id="text27">end for Credit C</text>
      <text
         text-anchor="start"
         x="1842.27"
         y="-579.67999"
         font-family="roboto"
         font-size="9px"
         id="text28">ollection'})</text>
    </g>
    <g
       id="edge13"
       class="edge"
       transform="matrix(2.08333,0,0,2.08333,8.33332,2237.9756)">
      <title
         id="title28">n5-&gt;n21</title>
      <path
         fill="none"
         stroke="#263238"
         stroke-width="4"
         d="m 1918.39,-606.23 c 8.67,0 17.96,0 27.52,0"
         id="path28" />
      <polygon
         fill="#263238"
         stroke="#263238"
         stroke-width="4"
         points="1955.59,-606.23 1945.59,-602.73 1945.59,-609.73 "
         id="polygon28" />
    </g>
    <g
       id="node7"
       class="node"
       transform="matrix(2.08333,0,0,2.08333,8.33332,2237.9756)">
      <title
         id="title29">n6</title>
      <circle
         fill="#ffe0b2"
         stroke="#000000"
         stroke-width="2"
         cx="1453.13"
         cy="-602.22998"
         id="ellipse29"
         r="52.290001" />
      <text
         text-anchor="start"
         x="1421.63"
         y="-623.67999"
         font-family="roboto"
         font-size="9px"
         id="text29">P_({'Insert Fine</text>
      <text
         text-anchor="start"
         x="1423.5"
         y="-611.67999"
         font-family="roboto"
         font-size="9px"
         id="text30">Notification'},</text>
      <text
         text-anchor="start"
         x="1421.25"
         y="-599.67999"
         font-family="roboto"
         font-size="9px"
         id="text31">{'Receive Result</text>
      <text
         text-anchor="start"
         x="1419.75"
         y="-587.67999"
         font-family="roboto"
         font-size="9px"
         id="text32">Appeal from Pre</text>
      <text
         text-anchor="start"
         x="1434"
         y="-575.67999"
         font-family="roboto"
         font-size="9px"
         id="text33">fecture'})</text>
    </g>
    <g
       id="node14"
       class="node"
       transform="matrix(2.08333,0,0,2.08333,8.33332,2237.9756)">
      <title
         id="title33">n13</title>
      <path
         fill="#81c784"
         stroke="#000000"
         stroke-width="3"
         d="m 1754.42,-654.38 c 0,0 -192,0 -192,0 -6,0 -12,6 -12,12 0,0 0,72.3 0,72.3 0,6 6,12 12,12 0,0 192,0 192,0 6,0 12,-6 12,-12 0,0 0,-72.3 0,-72.3 0,-6 -6,-12 -12,-12"
         id="path33" />
      <text
         text-anchor="start"
         x="1592.42"
         y="-622.88"
         font-family="roboto"
         font-size="18px"
         id="text34">Receive Result A</text>
      <text
         text-anchor="start"
         x="1591.29"
         y="-600.38"
         font-family="roboto"
         font-size="18px"
         id="text35">ppeal from Prefe</text>
      <text
         text-anchor="start"
         x="1638.17"
         y="-577.88"
         font-family="roboto"
         font-size="18px"
         id="text36">cture</text>
    </g>
    <g
       id="edge15"
       class="edge"
       transform="matrix(2.08333,0,0,2.08333,8.33332,2237.9756)">
      <title
         id="title36">n6-&gt;n13</title>
      <path
         fill="none"
         stroke="#263238"
         stroke-width="4"
         d="m 1506.21,-603.25 c 8.52,-0.17 17.65,-0.35 27.05,-0.54"
         id="path36" />
      <polygon
         fill="#263238"
         stroke="#263238"
         stroke-width="4"
         points="1543.22,-603.98 1533.3,-600.29 1533.16,-607.29 "
         id="polygon36" />
    </g>
    <g
       id="node8"
       class="node"
       transform="matrix(2.08333,0,0,2.08333,8.33332,2237.9756)">
      <title
         id="title37">n7</title>
      <circle
         fill="#ffe0b2"
         stroke="#000000"
         stroke-width="2"
         cx="429.23001"
         cy="-432.23001"
         id="ellipse37"
         r="45.279999" />
      <text
         text-anchor="start"
         x="396.60001"
         y="-441.67999"
         font-family="roboto"
         font-size="9px"
         id="text37">P_({'Create Fine</text>
      <text
         text-anchor="start"
         x="397.73001"
         y="-429.67999"
         font-family="roboto"
         font-size="9px"
         id="text38">'},{'Send Fine'}</text>
      <text
         text-anchor="start"
         x="427.35001"
         y="-417.67999"
         font-family="roboto"
         font-size="9px"
         id="text39">)</text>
    </g>
    <g
       id="node20"
       class="node"
       transform="matrix(2.08333,0,0,2.08333,8.33332,2237.9756)">
      <title
         id="title39">n19</title>
      <path
         fill="#81c784"
         stroke="#000000"
         stroke-width="3"
         d="m 729.46,-489.88 c 0,0 -192,0 -192,0 -6,0 -12,6 -12,12 0,0 0,27.3 0,27.3 0,6 6,12 12,12 0,0 192,0 192,0 6,0 12,-6 12,-12 0,0 0,-27.3 0,-27.3 0,-6 -6,-12 -12,-12"
         id="path39" />
      <text
         text-anchor="start"
         x="594.46002"
         y="-458.38"
         font-family="roboto"
         font-size="18px"
         id="text40">Send Fine</text>
    </g>
    <g
       id="edge12"
       class="edge"
       transform="matrix(2.08333,0,0,2.08333,8.33332,2237.9756)">
      <title
         id="title40">n7-&gt;n19</title>
      <path
         fill="none"
         stroke="#263238"
         stroke-width="4"
         d="m 474.61,-439.25 c 10.27,-1.63 21.69,-3.43 33.56,-5.31"
         id="path40" />
      <polygon
         fill="#263238"
         stroke="#263238"
         stroke-width="4"
         points="518,-446.12 508.67,-441.1 507.57,-448.01 "
         id="polygon40" />
    </g>
    <g
       id="node9"
       class="node"
       transform="matrix(2.08333,0,0,2.08333,8.33332,2237.9756)">
      <title
         id="title41">n8</title>
      <circle
         fill="#ffe0b2"
         stroke="#000000"
         stroke-width="2"
         cx="1864.77"
         cy="-308.23001"
         id="ellipse41"
         r="52.82" />
      <text
         text-anchor="start"
         x="1832.14"
         y="-323.67999"
         font-family="roboto"
         font-size="9px"
         id="text41">P_({'Appeal to J</text>
      <text
         text-anchor="start"
         x="1831.02"
         y="-311.67999"
         font-family="roboto"
         font-size="9px"
         id="text42">udge'},{'Send fo</text>
      <text
         text-anchor="start"
         x="1835.14"
         y="-299.67999"
         font-family="roboto"
         font-size="9px"
         id="text43">r Credit Collect</text>
      <text
         text-anchor="start"
         x="1853.14"
         y="-287.67999"
         font-family="roboto"
         font-size="9px"
         id="text44">ion'})</text>
    </g>
    <g
       id="edge20"
       class="edge"
       transform="matrix(2.08333,0,0,2.08333,8.33332,2237.9756)">
      <title
         id="title44">n8-&gt;n21</title>
      <path
         fill="none"
         stroke="#263238"
         stroke-width="4"
         d="m 1896.64,-351.56 c 7.09,-10.05 14.58,-20.71 21.48,-30.67 40.84,-58.94 86.99,-127.19 117.62,-172.72"
         id="path44" />
      <polygon
         fill="#263238"
         stroke="#263238"
         stroke-width="4"
         points="2041.15,-563 2038.47,-552.75 2032.66,-556.66 "
         id="polygon44" />
    </g>
    <g
       id="node10"
       class="node"
       transform="matrix(2.08333,0,0,2.08333,8.33332,2237.9756)">
      <title
         id="title45">n9</title>
      <circle
         fill="#ffe0b2"
         stroke="#000000"
         stroke-width="2"
         cx="1864.77"
         cy="-841.22998"
         id="ellipse45"
         r="52.290001" />
      <text
         text-anchor="start"
         x="1831.39"
         y="-862.67999"
         font-family="roboto"
         font-size="9px"
         id="text45">P_({'Notify Resu</text>
      <text
         text-anchor="start"
         x="1834.02"
         y="-850.67999"
         font-family="roboto"
         font-size="9px"
         id="text46">lt Appeal to Off</text>
      <text
         text-anchor="start"
         x="1832.14"
         y="-838.67999"
         font-family="roboto"
         font-size="9px"
         id="text47">ender'},{'Send f</text>
      <text
         text-anchor="start"
         x="1834.02"
         y="-826.67999"
         font-family="roboto"
         font-size="9px"
         id="text48">or Credit Collec</text>
      <text
         text-anchor="start"
         x="1851.64"
         y="-814.67999"
         font-family="roboto"
         font-size="9px"
         id="text49">tion'})</text>
    </g>
    <g
       id="edge16"
       class="edge"
       transform="matrix(2.08333,0,0,2.08333,8.33332,2237.9756)">
      <title
         id="title49">n9-&gt;n21</title>
      <path
         fill="none"
         stroke="#263238"
         stroke-width="4"
         d="m 1900.2,-801.63 c 34.76,39.97 88.55,101.82 126.27,145.21"
         id="path49" />
      <polygon
         fill="#263238"
         stroke="#263238"
         stroke-width="4"
         points="2032.93,-649 2023.72,-654.25 2029.01,-658.84 "
         id="polygon49" />
    </g>
    <g
       id="node11"
       class="node"
       transform="matrix(2.08333,0,0,2.08333,8.33332,2237.9756)">
      <title
         id="title50">n10</title>
      <circle
         fill="#ffe0b2"
         stroke="#000000"
         stroke-width="2"
         cx="429.23001"
         cy="-185.23"
         id="ellipse50"
         r="40.189999" />
      <text
         text-anchor="start"
         x="396.60001"
         y="-188.67999"
         font-family="roboto"
         font-size="9px"
         id="text50">P_({'Create Fine</text>
      <text
         text-anchor="start"
         x="398.85001"
         y="-176.67999"
         font-family="roboto"
         font-size="9px"
         id="text51">'},{'Payment'})</text>
    </g>
    <g
       id="node18"
       class="node"
       transform="matrix(2.08333,0,0,2.08333,8.33332,2237.9756)">
      <title
         id="title51">n17</title>
      <path
         fill="#81c784"
         stroke="#000000"
         stroke-width="3"
         d="m 967.46,-170.88 c 0,0 -192,0 -192,0 -6,0 -12,6 -12,12 0,0 0,27.3 0,27.3 0,6 6,12 12,12 0,0 192,0 192,0 6,0 12,-6 12,-12 0,0 0,-27.3 0,-27.3 0,-6 -6,-12 -12,-12"
         id="path51" />
      <text
         text-anchor="start"
         x="837.33002"
         y="-139.38"
         font-family="roboto"
         font-size="18px"
         id="text52">Payment</text>
    </g>
    <g
       id="edge19"
       class="edge"
       transform="matrix(2.08333,0,0,2.08333,8.33332,2237.9756)">
      <title
         id="title52">n10-&gt;n17</title>
      <path
         fill="none"
         stroke="#263238"
         stroke-width="4"
         d="m 470.07,-181.61 c 61.83,5.62 183.43,16.67 276.48,25.12"
         id="path52" />
      <polygon
         fill="#263238"
         stroke="#263238"
         stroke-width="4"
         points="756.36,-155.6 746.09,-153.02 746.72,-159.99 "
         id="polygon52" />
    </g>
    <g
       id="node12"
       class="node"
       transform="matrix(2.08333,0,0,2.08333,8.33332,2237.9756)">
      <title
         id="title53">n11</title>
      <circle
         fill="#c5e1a5"
         stroke="#000000"
         stroke-width="2"
         cx="36"
         cy="-242.23"
         id="ellipse53"
         r="36" />
      <text
         text-anchor="start"
         x="19.879999"
         y="-239.67999"
         font-family="roboto"
         font-size="9px"
         id="text53">P_initial</text>
    </g>
    <g
       id="node16"
       class="node"
       transform="matrix(2.08333,0,0,2.08333,8.33332,2237.9756)">
      <title
         id="title54">n15</title>
      <path
         fill="#81c784"
         stroke="#000000"
         stroke-width="3"
         d="m 321,-267.88 c 0,0 -192,0 -192,0 -6,0 -12,6 -12,12 0,0 0,27.3 0,27.3 0,6 6,12 12,12 0,0 192,0 192,0 6,0 12,-6 12,-12 0,0 0,-27.3 0,-27.3 0,-6 -6,-12 -12,-12"
         id="path54" />
      <text
         text-anchor="start"
         x="179.25"
         y="-236.38"
         font-family="roboto"
         font-size="18px"
         id="text54">Create Fine</text>
    </g>
    <g
       id="edge14"
       class="edge"
       transform="matrix(2.08333,0,0,2.08333,8.33332,2237.9756)">
      <title
         id="title55">n11-&gt;n15</title>
      <path
         fill="none"
         stroke="#263238"
         stroke-width="4"
         d="m 72.61,-242.23 c 8.18,0 17.33,0 26.98,0"
         id="path55" />
      <polygon
         fill="#263238"
         stroke="#263238"
         stroke-width="4"
         points="109.58,-242.23 99.58,-238.73 99.58,-245.73 "
         id="polygon55" />
    </g>
    <g
       id="node13"
       class="node"
       transform="matrix(2.08333,0,0,2.08333,8.33332,2237.9756)">
      <title
         id="title56">n12</title>
      <circle
         fill="#ffe0b2"
         stroke="#000000"
         stroke-width="2"
         cx="1048.15"
         cy="-464.23001"
         id="ellipse56"
         r="46.689999" />
      <text
         text-anchor="start"
         x="1014.4"
         y="-473.67999"
         font-family="roboto"
         font-size="9px"
         id="text56">P_({'Send Fine'}</text>
      <text
         text-anchor="start"
         x="1017.77"
         y="-461.67999"
         font-family="roboto"
         font-size="9px"
         id="text57">,{'Insert Fine N</text>
      <text
         text-anchor="start"
         x="1022.65"
         y="-449.67999"
         font-family="roboto"
         font-size="9px"
         id="text58">otification'})</text>
    </g>
    <g
       id="node17"
       class="node"
       transform="matrix(2.08333,0,0,2.08333,8.33332,2237.9756)">
      <title
         id="title58">n16</title>
      <path
         fill="#81c784"
         stroke="#000000"
         stroke-width="3"
         d="m 1343.83,-501.13 c 0,0 -192,0 -192,0 -6,0 -12,6 -12,12 0,0 0,49.8 0,49.8 0,6 6,12 12,12 0,0 192,0 192,0 6,0 12,-6 12,-12 0,0 0,-49.8 0,-49.8 0,-6 -6,-12 -12,-12"
         id="path58" />
      <text
         text-anchor="start"
         x="1185.96"
         y="-469.63"
         font-family="roboto"
         font-size="18px"
         id="text59">Insert Fine Noti</text>
      <text
         text-anchor="start"
         x="1219.33"
         y="-447.13"
         font-family="roboto"
         font-size="18px"
         id="text60">fication</text>
    </g>
    <g
       id="edge5"
       class="edge"
       transform="matrix(2.08333,0,0,2.08333,8.33332,2237.9756)">
      <title
         id="title60">n12-&gt;n16</title>
      <path
         fill="none"
         stroke="#263238"
         stroke-width="4"
         d="m 1095.75,-464.23 c 8.33,0 17.37,0 26.73,0"
         id="path60" />
      <polygon
         fill="#263238"
         stroke="#263238"
         stroke-width="4"
         points="1132.42,-464.23 1122.42,-460.73 1122.42,-467.73 "
         id="polygon60" />
    </g>
    <g
       id="edge8"
       class="edge"
       transform="matrix(2.08333,0,0,2.08333,8.33332,2237.9756)">
      <title
         id="title61">n13-&gt;n3</title>
      <path
         fill="none"
         stroke="#263238"
         stroke-width="4"
         d="m 1710.29,-655.59 c 38.79,-32.33 95.3,-68.64 153.48,-68.64 0,0 0,0 208.35,0 45.71,0 97.71,0 135.25,0"
         id="path61" />
      <polygon
         fill="#263238"
         stroke="#263238"
         stroke-width="4"
         points="2217.21,-724.23 2207.21,-720.73 2207.21,-727.73 "
         id="polygon61" />
    </g>
    <g
       id="edge6"
       class="edge"
       transform="matrix(2.08333,0,0,2.08333,8.33332,2237.9756)">
      <title
         id="title62">n13-&gt;n5</title>
      <path
         fill="none"
         stroke="#263238"
         stroke-width="4"
         d="m 1767.87,-606.23 c 9.26,0 18.45,0 27.26,0"
         id="path62" />
      <polygon
         fill="#263238"
         stroke="#263238"
         stroke-width="4"
         points="1804.97,-606.23 1794.97,-602.73 1794.97,-609.73 "
         id="polygon62" />
    </g>
    <g
       id="node15"
       class="node"
       transform="matrix(2.08333,0,0,2.08333,8.33332,2237.9756)">
      <title
         id="title63">n14</title>
      <path
         fill="#81c784"
         stroke="#000000"
         stroke-width="3"
         d="m 2167.12,-1005.13 c 0,0 -192,0 -192,0 -6,0 -12,6 -12,12 0,0 0,49.8 0,49.8 0,6 6,12 12,12 0,0 192,0 192,0 6,0 12,-6 12,-12 0,0 0,-49.8 0,-49.8 0,-6 -6,-12 -12,-12"
         id="path63" />
      <text
         text-anchor="start"
         x="2003.24"
         y="-973.63"
         font-family="roboto"
         font-size="18px"
         id="text63">Send Appeal to P</text>
      <text
         text-anchor="start"
         x="2034.74"
         y="-951.13"
         font-family="roboto"
         font-size="18px"
         id="text64">refecture</text>
    </g>
    <g
       id="edge29"
       class="edge"
       transform="matrix(2.08333,0,0,2.08333,8.33332,2237.9756)">
      <title
         id="title64">n14-&gt;n3</title>
      <path
         fill="none"
         stroke="#263238"
         stroke-width="4"
         d="m 2164.7,-929.98 c 13.92,8.84 27.06,19.36 37.42,31.75 28.96,34.62 43.33,84.36 50.39,121.8"
         id="path64" />
      <polygon
         fill="#263238"
         stroke="#263238"
         stroke-width="4"
         points="2254.17,-766.67 2249.04,-775.94 2255.94,-777.12 "
         id="polygon64" />
    </g>
    <g
       id="edge2"
       class="edge"
       transform="matrix(2.08333,0,0,2.08333,8.33332,2237.9756)">
      <title
         id="title65">n15-&gt;n1</title>
      <path
         fill="none"
         stroke="#263238"
         stroke-width="4"
         d="m 254.55,-215.27 c 32.36,30.57 85.69,80.93 124.73,117.81"
         id="path65" />
      <polygon
         fill="#263238"
         stroke="#263238"
         stroke-width="4"
         points="386.49,-90.65 376.82,-94.97 381.63,-100.06 "
         id="polygon65" />
    </g>
    <g
       id="edge26"
       class="edge"
       transform="matrix(2.08333,0,0,2.08333,8.33332,2237.9756)">
      <title
         id="title66">n15-&gt;n4</title>
      <path
         fill="none"
         stroke="#263238"
         stroke-width="4"
         d="m 302.78,-269.32 c 37.36,-10.88 83.23,-20.91 125.45,-20.91 0,0 0,0 820.6,0 45.04,0 95.69,-0.75 135.16,-1.49"
         id="path66" />
      <polygon
         fill="#263238"
         stroke="#263238"
         stroke-width="4"
         points="1393.85,-291.92 1383.92,-288.22 1383.78,-295.22 "
         id="polygon66" />
    </g>
    <g
       id="edge10"
       class="edge"
       transform="matrix(2.08333,0,0,2.08333,8.33332,2237.9756)">
      <title
         id="title67">n15-&gt;n7</title>
      <path
         fill="none"
         stroke="#263238"
         stroke-width="4"
         d="m 254.55,-269.05 c 33.54,-31.52 89.62,-84.2 128.95,-121.16"
         id="path67" />
      <polygon
         fill="#263238"
         stroke="#263238"
         stroke-width="4"
         points="390.72,-396.99 385.83,-387.59 381.03,-392.69 "
         id="polygon67" />
    </g>
    <g
       id="edge25"
       class="edge"
       transform="matrix(2.08333,0,0,2.08333,8.33332,2237.9756)">
      <title
         id="title68">n15-&gt;n10</title>
      <path
         fill="none"
         stroke="#263238"
         stroke-width="4"
         d="m 322.08,-215.15 c 18.04,5.09 36.29,10.23 52.45,14.79"
         id="path68" />
      <polygon
         fill="#263238"
         stroke="#263238"
         stroke-width="4"
         points="384.09,-197.67 373.51,-197.02 375.41,-203.75 "
         id="polygon68" />
    </g>
    <g
       id="edge28"
       class="edge"
       transform="matrix(2.08333,0,0,2.08333,8.33332,2237.9756)">
      <title
         id="title69">n16-&gt;n0</title>
      <path
         fill="none"
         stroke="#263238"
         stroke-width="4"
         d="m 1357.32,-462.63 c 11.82,0.18 23.5,0.35 34.43,0.51"
         id="path69" />
      <polygon
         fill="#263238"
         stroke="#263238"
         stroke-width="4"
         points="1401.6,-461.98 1391.55,-458.62 1391.65,-465.62 "
         id="polygon69" />
    </g>
    <g
       id="edge7"
       class="edge"
       transform="matrix(2.08333,0,0,2.08333,8.33332,2237.9756)">
      <title
         id="title70">n16-&gt;n4</title>
      <path
         fill="none"
         stroke="#263238"
         stroke-width="4"
         d="m 1294.46,-425.85 c 31.35,26.36 73.03,61.43 105.67,88.88"
         id="path70" />
      <polygon
         fill="#263238"
         stroke="#263238"
         stroke-width="4"
         points="1407.52,-330.75 1397.61,-334.51 1402.12,-339.87 "
         id="polygon70" />
    </g>
    <g
       id="edge11"
       class="edge"
       transform="matrix(2.08333,0,0,2.08333,8.33332,2237.9756)">
      <title
         id="title71">n16-&gt;n6</title>
      <path
         fill="none"
         stroke="#263238"
         stroke-width="4"
         d="m 1305.19,-502.49 c 28.3,-19.21 62.49,-42.42 90.77,-61.61"
         id="path71" />
      <polygon
         fill="#263238"
         stroke="#263238"
         stroke-width="4"
         points="1403.89,-569.49 1397.58,-560.98 1393.65,-566.77 "
         id="polygon71" />
    </g>
    <g
       id="edge31"
       class="edge"
       transform="matrix(2.08333,0,0,2.08333,8.33332,2237.9756)">
      <title
         id="title72">n17-&gt;n3</title>
      <path
         fill="none"
         stroke="#263238"
         stroke-width="4"
         d="m 980.96,-118.45 c 42.14,8.26 91,15.22 135.87,15.22 0,0 0,0 955.29,0 53.47,0 76.01,-11.43 107,-55 58.29,-81.96 74.42,-388.93 78.62,-513.24"
         id="path72" />
      <polygon
         fill="#263238"
         stroke="#263238"
         stroke-width="4"
         points="2258.05,-681.36 2261.23,-671.26 2254.24,-671.48 "
         id="polygon72" />
    </g>
    <g
       id="edge30"
       class="edge"
       transform="matrix(2.08333,0,0,2.08333,8.33332,2237.9756)">
      <title
         id="title73">n18-&gt;n3</title>
      <path
         fill="none"
         stroke="#263238"
         stroke-width="4"
         d="m 1690.24,-266.17 c 38.03,30.52 105.99,75.94 173.53,75.94 0,0 0,0 208.35,0 101.48,0 160.97,-347.9 180.14,-482.08"
         id="path73" />
      <polygon
         fill="#263238"
         stroke="#263238"
         stroke-width="4"
         points="2253.61,-681.95 2255.69,-671.56 2248.76,-672.53 "
         id="polygon73" />
    </g>
    <g
       id="edge27"
       class="edge"
       transform="matrix(2.08333,0,0,2.08333,8.33332,2237.9756)">
      <title
         id="title74">n18-&gt;n8</title>
      <path
         fill="none"
         stroke="#263238"
         stroke-width="4"
         d="m 1767.87,-301.19 c 9.32,-0.68 18.57,-1.36 27.43,-2.01"
         id="path74" />
      <polygon
         fill="#263238"
         stroke="#263238"
         stroke-width="4"
         points="1805.24,-303.93 1795.52,-299.71 1795.01,-306.69 "
         id="polygon74" />
    </g>
    <g
       id="edge4"
       class="edge"
       transform="matrix(2.08333,0,0,2.08333,8.33332,2237.9756)">
      <title
         id="title75">n19-&gt;n3</title>
      <path
         fill="none"
         stroke="#263238"
         stroke-width="4"
         d="m 638.97,-491.05 c 21.39,-117.28 123.69,-579.18 408.18,-579.18 0,0 0,0 1024.97,0 51.42,0 73.1,5.34 107,44 61.8,70.5 76.62,183.47 79.72,249.43"
         id="path75" />
      <polygon
         fill="#263238"
         stroke="#263238"
         stroke-width="4"
         points="2259.19,-767.15 2255.33,-777.02 2262.33,-777.27 "
         id="polygon75" />
    </g>
    <g
       id="edge21"
       class="edge"
       transform="matrix(2.08333,0,0,2.08333,8.33332,2237.9756)">
      <title
         id="title76">n19-&gt;n12</title>
      <path
         fill="none"
         stroke="#263238"
         stroke-width="4"
         d="m 742.89,-464.23 c 77.11,0 177.97,0 241.96,0"
         id="path76" />
      <polygon
         fill="#263238"
         stroke="#263238"
         stroke-width="4"
         points="994.62,-464.23 984.62,-460.73 984.62,-467.73 "
         id="polygon76" />
    </g>
    <g
       id="edge23"
       class="edge"
       transform="matrix(2.08333,0,0,2.08333,8.33332,2237.9756)">
      <title
         id="title77">n20-&gt;n2</title>
      <path
         fill="none"
         stroke="#263238"
         stroke-width="4"
         d="m 1767.87,-458.17 c 9.03,0.09 17.98,0.18 26.59,0.26"
         id="path77" />
      <polygon
         fill="#263238"
         stroke="#263238"
         stroke-width="4"
         points="1804.46,-457.81 1794.43,-454.41 1794.5,-461.41 "
         id="polygon77" />
    </g>
    <g
       id="edge9"
       class="edge"
       transform="matrix(2.08333,0,0,2.08333,8.33332,2237.9756)">
      <title
         id="title78">n21-&gt;n3</title>
      <path
         fill="none"
         stroke="#263238"
         stroke-width="4"
         d="m 2132.83,-644.54 c 26.87,-16.96 57.88,-36.52 82.44,-52.02"
         id="path78" />
      <polygon
         fill="#263238"
         stroke="#263238"
         stroke-width="4"
         points="2223.43,-701.71 2216.84,-693.41 2213.1,-699.33 "
         id="polygon78" />
    </g>
    <g
       id="node23"
       class="node"
       transform="matrix(2.08333,0,0,2.08333,8.33332,2237.9756)">
      <title
         id="title79">n22</title>
      <path
         fill="#81c784"
         stroke="#000000"
         stroke-width="3"
         d="m 1754.42,-969.13 c 0,0 -192,0 -192,0 -6,0 -12,6 -12,12 0,0 0,49.8 0,49.8 0,6 6,12 12,12 0,0 192,0 192,0 6,0 12,-6 12,-12 0,0 0,-49.8 0,-49.8 0,-6 -6,-12 -12,-12"
         id="path79" />
      <text
         text-anchor="start"
         x="1594.29"
         y="-937.63"
         font-family="roboto"
         font-size="18px"
         id="text79">Notify Result Ap</text>
      <text
         text-anchor="start"
         x="1593.17"
         y="-915.13"
         font-family="roboto"
         font-size="18px"
         id="text80">peal to Offender</text>
    </g>
    <g
       id="edge18"
       class="edge"
       transform="matrix(2.08333,0,0,2.08333,8.33332,2237.9756)">
      <title
         id="title80">n22-&gt;n3</title>
      <path
         fill="none"
         stroke="#263238"
         stroke-width="4"
         d="m 1767.65,-935.72 c 47.07,1.17 102.35,6.24 150.47,20.49 117.04,34.67 237.98,114.93 299.54,159.59"
         id="path80" />
      <polygon
         fill="#263238"
         stroke="#263238"
         stroke-width="4"
         points="2225.7,-749.74 2215.57,-752.84 2219.71,-758.48 "
         id="polygon80" />
    </g>
    <g
       id="edge3"
       class="edge"
       transform="matrix(2.08333,0,0,2.08333,8.33332,2237.9756)">
      <title
         id="title81">n22-&gt;n9</title>
      <path
         fill="none"
         stroke="#263238"
         stroke-width="4"
         d="m 1745.49,-893.9 c 18.74,8.34 38.22,17.02 55.83,24.86"
         id="path81" />
      <polygon
         fill="#263238"
         stroke="#263238"
         stroke-width="4"
         points="1810.4,-864.99 1799.85,-865.86 1802.69,-872.26 "
         id="polygon81" />
    </g>
  </g>
</svg>
