<?xml version="1.0" encoding="UTF-8" standalone="no"?>
<!-- Generated by graphviz version 12.1.0 (20240811.2233)
 -->

<!-- Pages: 1 -->

<svg
   width="8766.2705pt"
   height="5174.4761pt"
   viewBox="0 0 4207.3084 2483.5843"
   version="1.1"
   id="svg73"
   sodipodi:docname="BPIC13_closed.svg"
   inkscape:version="1.3 (0e150ed6c4, 2023-07-21)"
   xmlns:inkscape="http://www.inkscape.org/namespaces/inkscape"
   xmlns:sodipodi="http://sodipodi.sourceforge.net/DTD/sodipodi-0.dtd"
   xmlns="http://www.w3.org/2000/svg"
   xmlns:svg="http://www.w3.org/2000/svg">
  <defs
     id="defs73" />
  <sodipodi:namedview
     id="namedview73"
     pagecolor="#ffffff"
     bordercolor="#111111"
     borderopacity="1"
     inkscape:showpageshadow="0"
     inkscape:pageopacity="0"
     inkscape:pagecheckerboard="1"
     inkscape:deskcolor="#d1d1d1"
     inkscape:document-units="pt"
     inkscape:zoom="0.065160549"
     inkscape:cx="6399.5777"
     inkscape:cy="6760.2254"
     inkscape:window-width="3440"
     inkscape:window-height="1417"
     inkscape:window-x="-8"
     inkscape:window-y="-8"
     inkscape:window-maximized="1"
     inkscape:current-layer="svg73" />
  <g
     id="g73"
     transform="translate(-0.05341833,-4.16668)">
    <g
       id="node1"
       class="node"
       transform="matrix(2.08333,0,0,2.08333,8.33332,2512.496)">
      <title
         id="title1">n0</title>
      <circle
         fill="#008000"
         stroke="#000000"
         stroke-width="8"
         cx="72"
         cy="-842"
         id="ellipse1"
         r="72" />
      <text
         text-anchor="start"
         x="53.619999"
         y="-836.15002"
         font-family="roboto"
         font-size="18px"
         id="text1">start</text>
    </g>
    <g
       id="node8"
       class="node"
       transform="matrix(2.08333,0,0,2.08333,8.33332,2512.496)">
      <title
         id="title2">d0</title>
      <text
         text-anchor="middle"
         x="278.88"
         y="-880.15002"
         font-family="roboto"
         font-size="18px"
         id="text2">441</text>
    </g>
    <g
       id="edge1"
       class="edge"
       transform="matrix(2.08333,0,0,2.08333,8.33332,2512.496)">
      <title
         id="title3">n0-&gt;d0:w</title>
      <path
         fill="none"
         stroke="#000000"
         stroke-width="4"
         d="m 143.42,-867.08 c 30.27,-8.88 66.59,-17.08 101.18,-18.65"
         id="path3" />
      <circle
         fill="none"
         stroke="#000000"
         stroke-width="4"
         cx="250.25"
         cy="-885.85999"
         id="ellipse3"
         r="4" />
    </g>
    <g
       id="node9"
       class="node"
       transform="matrix(2.08333,0,0,2.08333,8.33332,2512.496)">
      <title
         id="title4">d1</title>
      <text
         text-anchor="middle"
         x="684.03998"
         y="-793.15002"
         font-family="roboto"
         font-size="18px"
         id="text4">1475</text>
    </g>
    <g
       id="edge3"
       class="edge"
       transform="matrix(2.08333,0,0,2.08333,8.33332,2512.496)">
      <title
         id="title5">n0-&gt;d1:w</title>
      <path
         fill="none"
         stroke="#000000"
         stroke-width="4"
         d="m 141.37,-811.78 c 21.71,7.17 46.1,12.78 69.25,12.78 0,0 0,0 344.3,0 40.93,0 54.04,0 89.76,0"
         id="path5" />
      <circle
         fill="none"
         stroke="#000000"
         stroke-width="4"
         cx="650.53998"
         cy="-799"
         id="ellipse5"
         r="4" />
    </g>
    <g
       id="node10"
       class="node"
       transform="matrix(2.08333,0,0,2.08333,8.33332,2512.496)">
      <title
         id="title6">d2</title>
      <text
         text-anchor="middle"
         x="553.91998"
         y="-99.150002"
         font-family="roboto"
         font-size="18px"
         id="text6">410</text>
    </g>
    <g
       id="edge5"
       class="edge"
       transform="matrix(2.08333,0,0,2.08333,8.33332,2512.496)">
      <title
         id="title7">n0-&gt;d2:w</title>
      <path
         fill="none"
         stroke="#000000"
         stroke-width="4"
         d="m 74.15,-766.16 c 4.56,164.65 26.96,540.16 136.47,540.16 0,0 0,0 69.26,0 119.89,0 127.04,113.1 239.45,120.61"
         id="path7" />
      <circle
         fill="none"
         stroke="#000000"
         stroke-width="4"
         cx="525.29999"
         cy="-105.2"
         id="ellipse7"
         r="4" />
    </g>
    <g
       id="node11"
       class="node"
       transform="matrix(2.08333,0,0,2.08333,8.33332,2512.496)">
      <title
         id="title8">d3</title>
      <text
         text-anchor="middle"
         x="927.03998"
         y="-1161.15"
         font-family="roboto"
         font-size="18px"
         id="text8">1487</text>
    </g>
    <g
       id="edge7"
       class="edge"
       transform="matrix(2.08333,0,0,2.08333,8.33332,2512.496)">
      <title
         id="title9">n0-&gt;d3:w</title>
      <path
         fill="none"
         stroke="#000000"
         stroke-width="4"
         d="m 85.92,-916.59 c 20.43,-105.45 64.15,-285.41 124.7,-285.41 0,0 0,0 474.42,0 92.54,0 115.99,32.12 202.72,34.82"
         id="path9" />
      <circle
         fill="none"
         stroke="#000000"
         stroke-width="4"
         cx="893.53998"
         cy="-1167.09"
         id="ellipse9"
         r="4" />
    </g>
    <g
       id="node12"
       class="node"
       transform="matrix(2.08333,0,0,2.08333,8.33332,2512.496)">
      <title
         id="title10">d4</title>
      <text
         text-anchor="middle"
         x="211.62"
         y="-544.15002"
         font-family="roboto"
         font-size="18px"
         id="text10">534</text>
    </g>
    <g
       id="edge9"
       class="edge"
       transform="matrix(2.08333,0,0,2.08333,8.33332,2512.496)">
      <title
         id="title11">n0-&gt;d4:w</title>
      <path
         fill="none"
         stroke="#000000"
         stroke-width="4"
         d="m 87.28,-767.56 c 17.2,79.25 48.99,195.86 90.16,214.89"
         id="path11" />
      <circle
         fill="none"
         stroke="#000000"
         stroke-width="4"
         cx="183.14999"
         cy="-551.34998"
         id="ellipse11"
         r="4" />
    </g>
    <g
       id="node13"
       class="node"
       transform="matrix(2.08333,0,0,2.08333,8.33332,2512.496)">
      <title
         id="title12">d5</title>
      <text
         text-anchor="middle"
         x="211.62"
         y="-985.15002"
         font-family="roboto"
         font-size="18px"
         id="text12">10</text>
    </g>
    <g
       id="edge11"
       class="edge"
       transform="matrix(2.08333,0,0,2.08333,8.33332,2512.496)">
      <title
         id="title13">n0-&gt;d5:w</title>
      <path
         fill="none"
         stroke="#000000"
         stroke-width="4"
         d="m 99.05,-912.57 c 17.51,-35.05 44.39,-71.27 82.25,-77.49"
         id="path13" />
      <circle
         fill="none"
         stroke="#000000"
         stroke-width="4"
         cx="186.85001"
         cy="-990.51001"
         id="ellipse13"
         r="4" />
    </g>
    <g
       id="node2"
       class="node"
       transform="matrix(2.08333,0,0,2.08333,8.33332,2512.496)">
      <title
         id="title14">n1</title>
      <circle
         fill="#d3d3d3"
         stroke="#000000"
         stroke-width="8"
         cx="416.39999"
         cy="-1044"
         id="ellipse14"
         r="92.900002" />
      <text
         text-anchor="start"
         x="338.01999"
         y="-1049.4"
         font-family="roboto"
         font-size="18px"
         id="text14">Unmatched Unmatc</text>
      <text
         text-anchor="start"
         x="401.76999"
         y="-1026.9"
         font-family="roboto"
         font-size="18px"
         id="text15">hed</text>
    </g>
    <g
       id="node14"
       class="node"
       transform="matrix(2.08333,0,0,2.08333,8.33332,2512.496)">
      <title
         id="title15">d6</title>
      <text
         text-anchor="middle"
         x="1315.05"
         y="-967.15002"
         font-family="roboto"
         font-size="18px"
         id="text16">10</text>
    </g>
    <g
       id="edge13"
       class="edge"
       transform="matrix(2.08333,0,0,2.08333,8.33332,2512.496)">
      <title
         id="title16">n1-&gt;d6:w</title>
      <path
         fill="none"
         stroke="#000000"
         stroke-width="4"
         d="m 506.81,-1009.54 c 33.58,10.13 72.41,18.54 108.73,18.54 0,0 0,0 451.88,0 98.27,0 125.14,16.59 217.7,17.92"
         id="path16" />
      <circle
         fill="none"
         stroke="#000000"
         stroke-width="4"
         cx="1291.0601"
         cy="-973.03998"
         id="ellipse16"
         r="4" />
    </g>
    <g
       id="node3"
       class="node"
       transform="matrix(2.08333,0,0,2.08333,8.33332,2512.496)">
      <title
         id="title17">n2</title>
      <circle
         fill="#d3d3d3"
         stroke="#000000"
         stroke-width="8"
         cx="416.39999"
         cy="-495"
         id="ellipse17"
         r="84.019997" />
      <text
         text-anchor="start"
         x="346.26999"
         y="-500.39999"
         font-family="roboto"
         font-size="18px"
         id="text17">Queued Awaiting</text>
      <text
         text-anchor="start"
         x="371.01999"
         y="-477.89999"
         font-family="roboto"
         font-size="18px"
         id="text18">Assignment</text>
    </g>
    <g
       id="node15"
       class="node"
       transform="matrix(2.08333,0,0,2.08333,8.33332,2512.496)">
      <title
         id="title18">d7</title>
      <text
         text-anchor="middle"
         x="684.03998"
         y="-445.14999"
         font-family="roboto"
         font-size="18px"
         id="text19">481</text>
    </g>
    <g
       id="edge15"
       class="edge"
       transform="matrix(2.08333,0,0,2.08333,8.33332,2512.496)">
      <title
         id="title19">n2-&gt;d7:w</title>
      <path
         fill="none"
         stroke="#000000"
         stroke-width="4"
         d="m 501.16,-472.23 c 43.23,9.96 97.36,19.71 147.8,21.07"
         id="path19" />
      <circle
         fill="none"
         stroke="#000000"
         stroke-width="4"
         cx="654.66998"
         cy="-451.07999"
         id="ellipse19"
         r="4" />
    </g>
    <g
       id="node16"
       class="node"
       transform="matrix(2.08333,0,0,2.08333,8.33332,2512.496)">
      <title
         id="title20">d8</title>
      <text
         text-anchor="middle"
         x="805.53998"
         y="-619.15002"
         font-family="roboto"
         font-size="18px"
         id="text20">385</text>
    </g>
    <g
       id="edge17"
       class="edge"
       transform="matrix(2.08333,0,0,2.08333,8.33332,2512.496)">
      <title
         id="title21">n2-&gt;d8:w</title>
      <path
         fill="none"
         stroke="#000000"
         stroke-width="4"
         d="m 491.72,-540.3 c 12.92,-6.85 26.43,-13.38 39.57,-18.7 103.12,-41.74 133.47,-64.38 239.03,-65.92"
         id="path21" />
      <circle
         fill="none"
         stroke="#000000"
         stroke-width="4"
         cx="776.16998"
         cy="-624.96002"
         id="ellipse21"
         r="4" />
    </g>
    <g
       id="node17"
       class="node"
       transform="matrix(2.08333,0,0,2.08333,8.33332,2512.496)">
      <title
         id="title22">d9</title>
      <text
         text-anchor="middle"
         x="616.53998"
         y="-358.14999"
         font-family="roboto"
         font-size="18px"
         id="text22">80</text>
    </g>
    <g
       id="edge19"
       class="edge"
       transform="matrix(2.08333,0,0,2.08333,8.33332,2512.496)">
      <title
         id="title23">n2-&gt;d9:w</title>
      <path
         fill="none"
         stroke="#000000"
         stroke-width="4"
         d="m 472.65,-427.58 c 30.02,29.46 69.97,58.41 113.99,62.96"
         id="path23" />
      <circle
         fill="none"
         stroke="#000000"
         stroke-width="4"
         cx="592.54999"
         cy="-364.31"
         id="ellipse23"
         r="4" />
    </g>
    <g
       id="node18"
       class="node"
       transform="matrix(2.08333,0,0,2.08333,8.33332,2512.496)">
      <title
         id="title24">d10</title>
      <text
         text-anchor="middle"
         x="1066.42"
         y="-708.15002"
         font-family="roboto"
         font-size="18px"
         id="text24">356</text>
    </g>
    <g
       id="edge21"
       class="edge"
       transform="matrix(2.08333,0,0,2.08333,8.33332,2512.496)">
      <title
         id="title25">n2-&gt;d10:w</title>
      <path
         fill="none"
         stroke="#000000"
         stroke-width="4"
         d="m 451.66,-575.49 c 32.3,-61.76 87.23,-136.51 163.88,-136.51 0,0 0,0 312.5,0 47.23,0 61.93,-1.69 103.83,-1.96"
         id="path25" />
      <circle
         fill="none"
         stroke="#000000"
         stroke-width="4"
         cx="1037.79"
         cy="-713.97998"
         id="ellipse25"
         r="4" />
    </g>
    <g
       id="node21"
       class="node"
       transform="matrix(2.08333,0,0,2.08333,8.33332,2512.496)">
      <title
         id="title26">d13</title>
      <text
         text-anchor="middle"
         x="616.53998"
         y="-271.14999"
         font-family="roboto"
         font-size="18px"
         id="text26">13</text>
    </g>
    <g
       id="edge27"
       class="edge"
       transform="matrix(2.08333,0,0,2.08333,8.33332,2512.496)">
      <title
         id="title27">n2-&gt;d13:w</title>
      <path
         fill="none"
         stroke="#808080"
         stroke-width="4"
         d="m 454.17,-398.6 c 27.5,54.94 71.04,114.21 132.66,120.96"
         id="path27" />
      <polygon
         fill="#808080"
         stroke="#808080"
         stroke-width="4"
         points="449.93,-407.44 457.41,-399.93 451.1,-396.91 "
         id="polygon27" />
      <circle
         fill="none"
         stroke="#808080"
         stroke-width="4"
         cx="592.54999"
         cy="-277.32999"
         id="ellipse27"
         r="4" />
    </g>
    <g
       id="node25"
       class="node"
       transform="matrix(2.08333,0,0,2.08333,8.33332,2512.496)">
      <title
         id="title28">d17</title>
      <text
         text-anchor="middle"
         x="684.03998"
         y="-532.15002"
         font-family="roboto"
         font-size="18px"
         id="text28">263</text>
    </g>
    <g
       id="edge35"
       class="edge"
       transform="matrix(2.08333,0,0,2.08333,8.33332,2512.496)">
      <title
         id="title29">n2-&gt;d17:w</title>
      <path
         fill="none"
         stroke="#808080"
         stroke-width="4"
         d="m 516.89,-520.67 c 40.19,-8.44 87.51,-15.99 131.94,-17.17"
         id="path29" />
      <polygon
         fill="#808080"
         stroke="#808080"
         stroke-width="4"
         points="507.39,-518.61 516.42,-524.15 517.9,-517.31 "
         id="polygon29" />
      <circle
         fill="none"
         stroke="#808080"
         stroke-width="4"
         cx="654.66998"
         cy="-537.91998"
         id="ellipse29"
         r="4" />
    </g>
    <g
       id="node29"
       class="node"
       transform="matrix(2.08333,0,0,2.08333,8.33332,2512.496)">
      <title
         id="title30">d21</title>
      <text
         text-anchor="middle"
         x="927.03998"
         y="-12.15"
         font-family="roboto"
         font-size="18px"
         id="text30">16</text>
    </g>
    <g
       id="edge43"
       class="edge"
       transform="matrix(2.08333,0,0,2.08333,8.33332,2512.496)">
      <title
         id="title31">n2-&gt;d21:w</title>
      <path
         fill="none"
         stroke="#808080"
         stroke-width="4"
         d="m 453.63,-398.12 c 18.87,42.12 44.92,90.17 77.66,127.12 131.13,148 173.49,248.9 365.03,252.88"
         id="path31" />
      <polygon
         fill="#808080"
         stroke="#808080"
         stroke-width="4"
         points="449.67,-407.19 456.87,-399.43 450.46,-396.63 "
         id="polygon31" />
      <circle
         fill="none"
         stroke="#808080"
         stroke-width="4"
         cx="902.23999"
         cy="-18.059999"
         id="ellipse31"
         r="4" />
    </g>
    <g
       id="node4"
       class="node"
       transform="matrix(2.08333,0,0,2.08333,8.33332,2512.496)">
      <title
         id="title32">n3</title>
      <circle
         fill="#d3d3d3"
         stroke="#000000"
         stroke-width="8"
         cx="805.53998"
         cy="-277"
         id="ellipse32"
         r="72" />
      <text
         text-anchor="start"
         x="748.91998"
         y="-271.14999"
         font-family="roboto"
         font-size="18px"
         id="text32">Accepted Wait</text>
    </g>
    <g
       id="node19"
       class="node"
       transform="matrix(2.08333,0,0,2.08333,8.33332,2512.496)">
      <title
         id="title33">d11</title>
      <text
         text-anchor="middle"
         x="999.16998"
         y="-359.14999"
         font-family="roboto"
         font-size="18px"
         id="text33">42</text>
    </g>
    <g
       id="edge23"
       class="edge"
       transform="matrix(2.08333,0,0,2.08333,8.33332,2512.496)">
      <title
         id="title34">n3-&gt;d11:w</title>
      <path
         fill="none"
         stroke="#000000"
         stroke-width="4"
         d="m 865.25,-323.83 c 29.09,-19.05 65.97,-37.38 103.47,-40.65"
         id="path34" />
      <circle
         fill="none"
         stroke="#000000"
         stroke-width="4"
         cx="974.37"
         cy="-364.73001"
         id="ellipse34"
         r="4" />
    </g>
    <g
       id="node20"
       class="node"
       transform="matrix(2.08333,0,0,2.08333,8.33332,2512.496)">
      <title
         id="title35">d12</title>
      <text
         text-anchor="middle"
         x="1444.9301"
         y="-121.15"
         font-family="roboto"
         font-size="18px"
         id="text35">523</text>
    </g>
    <g
       id="edge25"
       class="edge"
       transform="matrix(2.08333,0,0,2.08333,8.33332,2512.496)">
      <title
         id="title36">n3-&gt;d12:w</title>
      <path
         fill="none"
         stroke="#000000"
         stroke-width="4"
         d="m 843.56,-211.71 c 33.36,49.37 87.43,108.71 154.61,108.71 0,0 0,0 317.88,0 44.26,0 55.94,-20.05 94.59,-23.5"
         id="path36" />
      <circle
         fill="none"
         stroke="#000000"
         stroke-width="4"
         cx="1416.3101"
         cy="-126.74"
         id="ellipse36"
         r="4" />
    </g>
    <g
       id="node23"
       class="node"
       transform="matrix(2.08333,0,0,2.08333,8.33332,2512.496)">
      <title
         id="title37">d15</title>
      <text
         text-anchor="middle"
         x="999.16998"
         y="-271.14999"
         font-family="roboto"
         font-size="18px"
         id="text37">115</text>
    </g>
    <g
       id="edge31"
       class="edge"
       transform="matrix(2.08333,0,0,2.08333,8.33332,2512.496)">
      <title
         id="title38">n3-&gt;d15:w</title>
      <path
         fill="none"
         stroke="#808080"
         stroke-width="4"
         d="m 897.45,-277 c 21.69,0 45,0 67.23,0"
         id="path38" />
      <polygon
         fill="#808080"
         stroke="#808080"
         stroke-width="4"
         points="887.49,-277 897.49,-280.5 897.49,-273.5 "
         id="polygon38" />
      <circle
         fill="none"
         stroke="#808080"
         stroke-width="4"
         cx="970.53998"
         cy="-277"
         id="ellipse38"
         r="4" />
    </g>
    <g
       id="node27"
       class="node"
       transform="matrix(2.08333,0,0,2.08333,8.33332,2512.496)">
      <title
         id="title39">d19</title>
      <text
         text-anchor="middle"
         x="1066.42"
         y="-186.14999"
         font-family="roboto"
         font-size="18px"
         id="text39">54</text>
    </g>
    <g
       id="edge39"
       class="edge"
       transform="matrix(2.08333,0,0,2.08333,8.33332,2512.496)">
      <title
         id="title40">n3-&gt;d19:w</title>
      <path
         fill="none"
         stroke="#808080"
         stroke-width="4"
         d="m 886.29,-233.67 c 42.61,19.5 96.97,38.76 149.46,41.37"
         id="path40" />
      <polygon
         fill="#808080"
         stroke="#808080"
         stroke-width="4"
         points="877.38,-237.87 887.92,-236.77 884.93,-230.44 "
         id="polygon40" />
      <circle
         fill="none"
         stroke="#808080"
         stroke-width="4"
         cx="1041.62"
         cy="-192.14999"
         id="ellipse40"
         r="4" />
    </g>
    <g
       id="node5"
       class="node"
       transform="matrix(2.08333,0,0,2.08333,8.33332,2512.496)">
      <title
         id="title41">n4</title>
      <circle
         fill="#d3d3d3"
         stroke="#000000"
         stroke-width="8"
         cx="1193.05"
         cy="-538"
         id="ellipse41"
         r="82.010002" />
      <text
         text-anchor="start"
         x="1124.8"
         y="-543.40002"
         font-family="roboto"
         font-size="18px"
         id="text41">Accepted In Prog</text>
      <text
         text-anchor="start"
         x="1176.55"
         y="-520.90002"
         font-family="roboto"
         font-size="18px"
         id="text42">ress</text>
    </g>
    <g
       id="node22"
       class="node"
       transform="matrix(2.08333,0,0,2.08333,8.33332,2512.496)">
      <title
         id="title42">d14</title>
      <text
         text-anchor="middle"
         x="1377.6801"
         y="-445.14999"
         font-family="roboto"
         font-size="18px"
         id="text43">189</text>
    </g>
    <g
       id="edge29"
       class="edge"
       transform="matrix(2.08333,0,0,2.08333,8.33332,2512.496)">
      <title
         id="title43">n4-&gt;d14:w</title>
      <path
         fill="none"
         stroke="#000000"
         stroke-width="4"
         d="m 1259.64,-483.89 c 24.47,15.62 53.6,29.29 83.48,32.28"
         id="path43" />
      <circle
         fill="none"
         stroke="#000000"
         stroke-width="4"
         cx="1349.0601"
         cy="-451.29999"
         id="ellipse43"
         r="4" />
    </g>
    <g
       id="node24"
       class="node"
       transform="matrix(2.08333,0,0,2.08333,8.33332,2512.496)">
      <title
         id="title44">d16</title>
      <text
         text-anchor="middle"
         x="1704.6801"
         y="-662.15002"
         font-family="roboto"
         font-size="18px"
         id="text44">1695</text>
    </g>
    <g
       id="edge33"
       class="edge"
       transform="matrix(2.08333,0,0,2.08333,8.33332,2512.496)">
      <title
         id="title45">n4-&gt;d16:w</title>
      <path
         fill="none"
         stroke="#000000"
         stroke-width="4"
         d="m 1262.47,-588.1 c 32.86,-19.34 73.82,-36.9 114.21,-36.9 0,0 0,0 69.25,0 100.46,0 124.85,-39.71 219.37,-42.81"
         id="path45" />
      <circle
         fill="none"
         stroke="#000000"
         stroke-width="4"
         cx="1671.1801"
         cy="-667.90002"
         id="ellipse45"
         r="4" />
    </g>
    <g
       id="node26"
       class="node"
       transform="matrix(2.08333,0,0,2.08333,8.33332,2512.496)">
      <title
         id="title46">d18</title>
      <text
         text-anchor="middle"
         x="1377.6801"
         y="-532.15002"
         font-family="roboto"
         font-size="18px"
         id="text46">129</text>
    </g>
    <g
       id="edge37"
       class="edge"
       transform="matrix(2.08333,0,0,2.08333,8.33332,2512.496)">
      <title
         id="title47">n4-&gt;d18:w</title>
      <path
         fill="none"
         stroke="#808080"
         stroke-width="4"
         d="m 1294.68,-538 c 16.1,0 32.74,0 48.8,0"
         id="path47" />
      <polygon
         fill="#808080"
         stroke="#808080"
         stroke-width="4"
         points="1284.92,-538 1294.92,-541.5 1294.92,-534.5 "
         id="polygon47" />
      <circle
         fill="none"
         stroke="#808080"
         stroke-width="4"
         cx="1349.05"
         cy="-538"
         id="ellipse47"
         r="4" />
    </g>
    <g
       id="node6"
       class="node"
       transform="matrix(2.08333,0,0,2.08333,8.33332,2512.496)">
      <title
         id="title48">n5</title>
      <circle
         fill="#d3d3d3"
         stroke="#000000"
         stroke-width="8"
         cx="1572.37"
         cy="-451"
         id="ellipse48"
         r="82.809998" />
      <text
         text-anchor="start"
         x="1503.37"
         y="-456.39999"
         font-family="roboto"
         font-size="18px"
         id="text48">Accepted Assigne</text>
      <text
         text-anchor="start"
         x="1567.49"
         y="-433.89999"
         font-family="roboto"
         font-size="18px"
         id="text49">d</text>
    </g>
    <g
       id="node28"
       class="node"
       transform="matrix(2.08333,0,0,2.08333,8.33332,2512.496)">
      <title
         id="title49">d20</title>
      <text
         text-anchor="middle"
         x="1776.8101"
         y="-532.15002"
         font-family="roboto"
         font-size="18px"
         id="text50">607</text>
    </g>
    <g
       id="edge41"
       class="edge"
       transform="matrix(2.08333,0,0,2.08333,8.33332,2512.496)">
      <title
         id="title50">n5-&gt;d20:w</title>
      <path
         fill="none"
         stroke="#000000"
         stroke-width="4"
         d="m 1642.32,-501.86 c 29.15,-17.18 64.58,-32.78 100.27,-35.66"
         id="path50" />
      <circle
         fill="none"
         stroke="#000000"
         stroke-width="4"
         cx="1748.1899"
         cy="-537.75"
         id="ellipse50"
         r="4" />
    </g>
    <g
       id="node7"
       class="node"
       transform="matrix(2.08333,0,0,2.08333,8.33332,2512.496)">
      <title
         id="title51">n6</title>
      <circle
         fill="#ff0000"
         stroke="#000000"
         stroke-width="8"
         cx="1925.14"
         cy="-777"
         id="ellipse51"
         r="80.709999" />
      <text
         text-anchor="start"
         x="1854.26"
         y="-771.15002"
         font-family="roboto"
         font-size="18px"
         id="text51">Completed Closed</text>
    </g>
    <g
       id="edge2"
       class="edge"
       transform="matrix(2.08333,0,0,2.08333,8.33332,2512.496)">
      <title
         id="title52">d0:e-&gt;n5</title>
      <path
         fill="none"
         stroke="#000000"
         stroke-width="4"
         d="m 313.29,-886 c 102.08,0 131.92,0 239.63,0 0,0 0,0 763.13,0 153.94,0 216.86,205.12 241.17,333.65"
         id="path52" />
      <circle
         fill="none"
         stroke="#000000"
         stroke-width="4"
         cx="307.5"
         cy="-886"
         id="ellipse52"
         r="4" />
      <polygon
         fill="#000000"
         stroke="#000000"
         stroke-width="4"
         points="1558.98,-542.64 1553.75,-551.85 1560.64,-553.1 "
         id="polygon52" />
    </g>
    <g
       id="edge4"
       class="edge"
       transform="matrix(2.08333,0,0,2.08333,8.33332,2512.496)">
      <title
         id="title53">d1:e-&gt;n4</title>
      <path
         fill="none"
         stroke="#000000"
         stroke-width="4"
         d="m 723.45,-799 c 85.61,0 111.35,0 202.59,0 0,0 0,0 74.13,0 84.18,0 135.52,89.23 163.64,163.35"
         id="path53" />
      <circle
         fill="none"
         stroke="#000000"
         stroke-width="4"
         cx="717.53998"
         cy="-799"
         id="ellipse53"
         r="4" />
      <polygon
         fill="#000000"
         stroke="#000000"
         stroke-width="4"
         points="1167.23,-626.27 1160.52,-634.47 1167.1,-636.87 "
         id="polygon53" />
    </g>
    <g
       id="edge6"
       class="edge"
       transform="matrix(2.08333,0,0,2.08333,8.33332,2512.496)">
      <title
         id="title54">d2:e-&gt;n3</title>
      <path
         fill="none"
         stroke="#000000"
         stroke-width="4"
         d="m 588.5,-105.51 c 65.15,-5.48 122.66,-54.57 161.93,-98.83"
         id="path54" />
      <circle
         fill="none"
         stroke="#000000"
         stroke-width="4"
         cx="582.53998"
         cy="-105.25"
         id="ellipse54"
         r="4" />
      <polygon
         fill="#000000"
         stroke="#000000"
         stroke-width="4"
         points="756.81,-211.77 752.95,-201.9 747.64,-206.47 "
         id="polygon54" />
    </g>
    <g
       id="edge8"
       class="edge"
       transform="matrix(2.08333,0,0,2.08333,8.33332,2512.496)">
      <title
         id="title55">d3:e-&gt;n6</title>
      <path
         fill="none"
         stroke="#000000"
         stroke-width="4"
         d="m 966.34,-1166.64 c 40.25,2.54 53.35,17.64 99.08,17.64 0,0 0,0 712.39,0 58.84,0 103.94,163.26 127.68,273.47"
         id="path55" />
      <circle
         fill="none"
         stroke="#000000"
         stroke-width="4"
         cx="960.53998"
         cy="-1166.8199"
         id="ellipse55"
         r="4" />
      <polygon
         fill="#000000"
         stroke="#000000"
         stroke-width="4"
         points="1907.52,-865.94 1902.03,-875.01 1908.87,-876.45 "
         id="polygon55" />
    </g>
    <g
       id="edge10"
       class="edge"
       transform="matrix(2.08333,0,0,2.08333,8.33332,2512.496)">
      <title
         id="title56">d4:e-&gt;n2</title>
      <path
         fill="none"
         stroke="#000000"
         stroke-width="4"
         d="m 245.94,-549.66 c 25.14,1.43 50.97,7.21 74.64,14.52"
         id="path56" />
      <circle
         fill="none"
         stroke="#000000"
         stroke-width="4"
         cx="240.25"
         cy="-549.83002"
         id="ellipse56"
         r="4" />
      <polygon
         fill="#000000"
         stroke="#000000"
         stroke-width="4"
         points="330.05,-532.03 319.45,-531.82 321.64,-538.47 "
         id="polygon56" />
    </g>
    <g
       id="edge12"
       class="edge"
       transform="matrix(2.08333,0,0,2.08333,8.33332,2512.496)">
      <title
         id="title57">d5:e-&gt;n1</title>
      <path
         fill="none"
         stroke="#000000"
         stroke-width="4"
         d="m 242.15,-991.32 c 23.18,-1.23 46.98,-5.91 69.24,-12.02"
         id="path57" />
      <circle
         fill="none"
         stroke="#000000"
         stroke-width="4"
         cx="236.42"
         cy="-991.15997"
         id="ellipse57"
         r="4" />
      <polygon
         fill="#000000"
         stroke="#000000"
         stroke-width="4"
         points="320.72,-1006.07 312.11,-999.9 310.14,-1006.62 "
         id="polygon57" />
    </g>
    <g
       id="edge14"
       class="edge"
       transform="matrix(2.08333,0,0,2.08333,8.33332,2512.496)">
      <title
         id="title58">d6:e-&gt;n6</title>
      <path
         fill="none"
         stroke="#000000"
         stroke-width="4"
         d="m 1344.99,-973 c 39.73,0 53.9,0 98.94,0 0,0 0,0 333.88,0 55.36,0 92.29,50.84 115.2,100.73"
         id="path58" />
      <circle
         fill="none"
         stroke="#000000"
         stroke-width="4"
         cx="1339.05"
         cy="-973"
         id="ellipse58"
         r="4" />
      <polygon
         fill="#000000"
         stroke="#000000"
         stroke-width="4"
         points="1896.98,-863.12 1889.78,-870.9 1896.2,-873.69 "
         id="polygon58" />
    </g>
    <g
       id="edge16"
       class="edge"
       transform="matrix(2.08333,0,0,2.08333,8.33332,2512.496)">
      <title
         id="title59">d7:e-&gt;n5</title>
      <path
         fill="none"
         stroke="#000000"
         stroke-width="4"
         d="m 719.16,-450.95 c 131.56,1.11 167.82,21.08 302.63,46.95 76.34,14.65 92.53,40 170.26,40 0,0 0,0 186.63,0 37.57,0 75.9,-13.91 108.37,-30.6"
         id="path59" />
      <circle
         fill="none"
         stroke="#000000"
         stroke-width="4"
         cx="713.40997"
         cy="-450.98001"
         id="ellipse59"
         r="4" />
      <polygon
         fill="#000000"
         stroke="#000000"
         stroke-width="4"
         points="1495.74,-399.29 1488.6,-391.46 1485.27,-397.62 "
         id="polygon59" />
    </g>
    <g
       id="edge18"
       class="edge"
       transform="matrix(2.08333,0,0,2.08333,8.33332,2512.496)">
      <title
         id="title60">d8:e-&gt;n4</title>
      <path
         fill="none"
         stroke="#000000"
         stroke-width="4"
         d="m 840.68,-624.86 c 90.25,2.16 188.01,28.44 257.45,51.53"
         id="path60" />
      <circle
         fill="none"
         stroke="#000000"
         stroke-width="4"
         cx="834.90997"
         cy="-624.92999"
         id="ellipse60"
         r="4" />
      <polygon
         fill="#000000"
         stroke="#000000"
         stroke-width="4"
         points="1107.21,-570.25 1096.61,-570.15 1098.86,-576.77 "
         id="polygon60" />
    </g>
    <g
       id="edge20"
       class="edge"
       transform="matrix(2.08333,0,0,2.08333,8.33332,2512.496)">
      <title
         id="title61">d9:e-&gt;n3</title>
      <path
         fill="none"
         stroke="#000000"
         stroke-width="4"
         d="m 646.29,-363.46 c 30.62,2.77 60.77,15.86 86.4,31.05"
         id="path61" />
      <circle
         fill="none"
         stroke="#000000"
         stroke-width="4"
         cx="640.53998"
         cy="-363.72"
         id="ellipse61"
         r="4" />
      <polygon
         fill="#000000"
         stroke="#000000"
         stroke-width="4"
         points="740.91,-327.27 730.57,-329.6 734.28,-335.54 "
         id="polygon61" />
    </g>
    <g
       id="edge22"
       class="edge"
       transform="matrix(2.08333,0,0,2.08333,8.33332,2512.496)">
      <title
         id="title62">d10:e-&gt;n6</title>
      <path
         fill="none"
         stroke="#000000"
         stroke-width="4"
         d="m 1100.85,-714.36 c 96.09,-5.99 110.37,-84.64 213.2,-84.64 0,0 0,0 463.76,0 15.88,0 32.62,1.28 48.89,3.23"
         id="path62" />
      <circle
         fill="none"
         stroke="#000000"
         stroke-width="4"
         cx="1095.04"
         cy="-714.17999"
         id="ellipse62"
         r="4" />
      <polygon
         fill="#000000"
         stroke="#000000"
         stroke-width="4"
         points="1836.42,-794.47 1826.05,-792.33 1826.97,-799.27 "
         id="polygon62" />
    </g>
    <g
       id="edge24"
       class="edge"
       transform="matrix(2.08333,0,0,2.08333,8.33332,2512.496)">
      <title
         id="title63">d11:e-&gt;n4</title>
      <path
         fill="none"
         stroke="#000000"
         stroke-width="4"
         d="m 1029.89,-365.69 c 47.9,-5.58 86.61,-44.02 114.18,-83.17"
         id="path63" />
      <circle
         fill="none"
         stroke="#000000"
         stroke-width="4"
         cx="1023.95"
         cy="-365.35001"
         id="ellipse63"
         r="4" />
      <polygon
         fill="#000000"
         stroke="#000000"
         stroke-width="4"
         points="1149.61,-457.1 1146.93,-446.85 1141.12,-450.75 "
         id="polygon63" />
    </g>
    <g
       id="edge26"
       class="edge"
       transform="matrix(2.08333,0,0,2.08333,8.33332,2512.496)">
      <title
         id="title64">d12:e-&gt;n6</title>
      <path
         fill="none"
         stroke="#000000"
         stroke-width="4"
         d="m 1479.31,-127.34 c 101.25,-5.9 116.42,-87.66 224.37,-87.66 0,0 0,0 74.13,0 94.34,0 128.95,-300.33 140.74,-461.9"
         id="path64" />
      <circle
         fill="none"
         stroke="#000000"
         stroke-width="4"
         cx="1473.55"
         cy="-127.17"
         id="ellipse64"
         r="4" />
      <polygon
         fill="#000000"
         stroke="#000000"
         stroke-width="4"
         points="1919.23,-686.52 1922.01,-676.3 1915.03,-676.79 "
         id="polygon64" />
    </g>
    <g
       id="edge28"
       class="edge"
       transform="matrix(2.08333,0,0,2.08333,8.33332,2512.496)">
      <title
         id="title65">d13:e-&gt;n3</title>
      <path
         fill="none"
         stroke="#808080"
         stroke-width="4"
         d="m 646.35,-277 c 27.84,0 57.38,0 83.3,0"
         id="path65" />
      <circle
         fill="none"
         stroke="#808080"
         stroke-width="4"
         cx="640.53998"
         cy="-277"
         id="ellipse65"
         r="4" />
    </g>
    <g
       id="edge30"
       class="edge"
       transform="matrix(2.08333,0,0,2.08333,8.33332,2512.496)">
      <title
         id="title66">d14:e-&gt;n5</title>
      <path
         fill="none"
         stroke="#000000"
         stroke-width="4"
         d="m 1412.15,-451 c 18.96,0 38.69,0 57.56,0"
         id="path66" />
      <circle
         fill="none"
         stroke="#000000"
         stroke-width="4"
         cx="1406.3"
         cy="-451"
         id="ellipse66"
         r="4" />
      <polygon
         fill="#000000"
         stroke="#000000"
         stroke-width="4"
         points="1479.61,-451 1469.61,-447.5 1469.61,-454.5 "
         id="polygon66" />
    </g>
    <g
       id="edge32"
       class="edge"
       transform="matrix(2.08333,0,0,2.08333,8.33332,2512.496)">
      <title
         id="title67">d15:e-&gt;n4</title>
      <path
         fill="none"
         stroke="#808080"
         stroke-width="4"
         d="m 1033.64,-277.65 c 78.46,-8.76 120.17,-103.93 140.75,-176.69"
         id="path67" />
      <circle
         fill="none"
         stroke="#808080"
         stroke-width="4"
         cx="1027.78"
         cy="-277.32999"
         id="ellipse67"
         r="4" />
    </g>
    <g
       id="edge34"
       class="edge"
       transform="matrix(2.08333,0,0,2.08333,8.33332,2512.496)">
      <title
         id="title68">d16:e-&gt;n6</title>
      <path
         fill="none"
         stroke="#000000"
         stroke-width="4"
         d="m 1743.94,-668.51 c 38.29,-3.29 75.37,-22 105.84,-42.98"
         id="path68" />
      <circle
         fill="none"
         stroke="#000000"
         stroke-width="4"
         cx="1738.1801"
         cy="-668.26001"
         id="ellipse68"
         r="4" />
      <polygon
         fill="#000000"
         stroke="#000000"
         stroke-width="4"
         points="1857.5,-717.05 1851.43,-708.37 1847.34,-714.05 "
         id="polygon68" />
    </g>
    <g
       id="edge36"
       class="edge"
       transform="matrix(2.08333,0,0,2.08333,8.33332,2512.496)">
      <title
         id="title69">d17:e-&gt;n4</title>
      <path
         fill="none"
         stroke="#808080"
         stroke-width="4"
         d="m 719.28,-538 c 87.47,0 113.67,0 206.76,0 0,0 0,0 74.13,0 35.14,0 73.91,0 107.34,0"
         id="path69" />
      <circle
         fill="none"
         stroke="#808080"
         stroke-width="4"
         cx="713.40997"
         cy="-538"
         id="ellipse69"
         r="4" />
    </g>
    <g
       id="edge38"
       class="edge"
       transform="matrix(2.08333,0,0,2.08333,8.33332,2512.496)">
      <title
         id="title70">d18:e-&gt;n5</title>
      <path
         fill="none"
         stroke="#808080"
         stroke-width="4"
         d="m 1411.9,-537.48 c 32.73,2.89 64.96,17.48 91.78,33.86"
         id="path70" />
      <circle
         fill="none"
         stroke="#808080"
         stroke-width="4"
         cx="1406.3"
         cy="-537.72998"
         id="ellipse70"
         r="4" />
    </g>
    <g
       id="edge40"
       class="edge"
       transform="matrix(2.08333,0,0,2.08333,8.33332,2512.496)">
      <title
         id="title71">d19:e-&gt;n5</title>
      <path
         fill="none"
         stroke="#808080"
         stroke-width="4"
         d="m 1096.97,-192.19 c 93.5,-3.03 117.72,-41.81 217.08,-41.81 0,0 0,0 64.63,0 75.95,0 129.27,-75.25 160.27,-137.12"
         id="path71" />
      <circle
         fill="none"
         stroke="#808080"
         stroke-width="4"
         cx="1091.21"
         cy="-192.10001"
         id="ellipse71"
         r="4" />
    </g>
    <g
       id="edge42"
       class="edge"
       transform="matrix(2.08333,0,0,2.08333,8.33332,2512.496)">
      <title
         id="title72">d20:e-&gt;n6</title>
      <path
         fill="none"
         stroke="#000000"
         stroke-width="4"
         d="m 1811.26,-538.81 c 58.57,-8.2 86.8,-77.17 100.38,-138.8"
         id="path72" />
      <circle
         fill="none"
         stroke="#000000"
         stroke-width="4"
         cx="1805.42"
         cy="-538.40997"
         id="ellipse72"
         r="4" />
      <polygon
         fill="#000000"
         stroke="#000000"
         stroke-width="4"
         points="1913.58,-687.14 1915.01,-676.64 1908.15,-678.04 "
         id="polygon72" />
    </g>
    <g
       id="edge44"
       class="edge"
       transform="matrix(2.08333,0,0,2.08333,8.33332,2512.496)">
      <title
         id="title73">d21:e-&gt;n5</title>
      <path
         fill="none"
         stroke="#808080"
         stroke-width="4"
         d="m 957.61,-17.97 c 43.7,0.27 58.81,1.97 107.81,1.97 0,0 0,0 313.26,0 150.85,0 184.53,-221.38 191.45,-348.28"
         id="path73" />
      <circle
         fill="none"
         stroke="#808080"
         stroke-width="4"
         cx="951.84003"
         cy="-17.98"
         id="ellipse73"
         r="4" />
    </g>
  </g>
</svg>
