<?xml version="1.0" encoding="UTF-8" standalone="no"?>
<!-- Generated by graphviz version 12.1.0 (20240811.2233)
 -->

<!-- Pages: 1 -->

<svg
   width="10173.081pt"
   height="4211.8491pt"
   viewBox="0 0 4883.1414 2022.0916"
   version="1.1"
   id="svg70"
   sodipodi:docname="BPIC13_open.svg"
   inkscape:version="1.3 (0e150ed6c4, 2023-07-21)"
   xmlns:inkscape="http://www.inkscape.org/namespaces/inkscape"
   xmlns:sodipodi="http://sodipodi.sourceforge.net/DTD/sodipodi-0.dtd"
   xmlns="http://www.w3.org/2000/svg"
   xmlns:svg="http://www.w3.org/2000/svg">
  <defs
     id="defs70" />
  <sodipodi:namedview
     id="namedview70"
     pagecolor="#ffffff"
     bordercolor="#111111"
     borderopacity="1"
     inkscape:showpageshadow="0"
     inkscape:pageopacity="0"
     inkscape:pagecheckerboard="1"
     inkscape:deskcolor="#d1d1d1"
     inkscape:document-units="pt"
     inkscape:zoom="0.04745086"
     inkscape:cx="11232.673"
     inkscape:cy="7597.3333"
     inkscape:window-width="3440"
     inkscape:window-height="1417"
     inkscape:window-x="-8"
     inkscape:window-y="-8"
     inkscape:window-maximized="1"
     inkscape:current-layer="svg70" />
  <g
     id="g70"
     transform="translate(-0.2192446,-30.243624)">
    <g
       id="node1"
       class="node"
       transform="matrix(2.08333,0,0,2.08333,8.33332,2077.08)">
      <title
         id="title1">n0</title>
      <circle
         fill="#008000"
         stroke="#000000"
         stroke-width="8"
         cx="72"
         cy="-496"
         id="ellipse1"
         r="72" />
      <text
         text-anchor="start"
         x="53.619999"
         y="-490.14999"
         font-family="roboto"
         font-size="18px"
         id="text1">start</text>
    </g>
    <g
       id="node8"
       class="node"
       transform="matrix(2.08333,0,0,2.08333,8.33332,2077.08)">
      <title
         id="title2">d0</title>
      <text
         text-anchor="middle"
         x="278.88"
         y="-129.14999"
         font-family="roboto"
         font-size="18px"
         id="text2">190</text>
    </g>
    <g
       id="edge1"
       class="edge"
       transform="matrix(2.08333,0,0,2.08333,8.33332,2077.08)">
      <title
         id="title3">n0-&gt;d0:w</title>
      <path
         fill="none"
         stroke="#000000"
         stroke-width="4"
         d="m 78.31,-420.32 c 11.63,102.55 48.66,274.18 166.3,284.8"
         id="path3" />
      <circle
         fill="none"
         stroke="#000000"
         stroke-width="4"
         cx="250.25999"
         cy="-135.27"
         id="ellipse3"
         r="4" />
    </g>
    <g
       id="node9"
       class="node"
       transform="matrix(2.08333,0,0,2.08333,8.33332,2077.08)">
      <title
         id="title4">d1</title>
      <text
         text-anchor="middle"
         x="921.33002"
         y="-969.15002"
         font-family="roboto"
         font-size="18px"
         id="text4">776</text>
    </g>
    <g
       id="edge3"
       class="edge"
       transform="matrix(2.08333,0,0,2.08333,8.33332,2077.08)">
      <title
         id="title5">n0-&gt;d1:w</title>
      <path
         fill="none"
         stroke="#000000"
         stroke-width="4"
         d="M 79,-571.63 C 91.82,-706.61 127.72,-975 210.62,-975 c 0,0 0,0 461.05,0 96.87,0 123.99,0 215.27,0"
         id="path5" />
      <circle
         fill="none"
         stroke="#000000"
         stroke-width="4"
         cx="892.71002"
         cy="-975"
         id="ellipse5"
         r="4" />
    </g>
    <g
       id="node10"
       class="node"
       transform="matrix(2.08333,0,0,2.08333,8.33332,2077.08)">
      <title
         id="title6">d2</title>
      <text
         text-anchor="middle"
         x="670.66998"
         y="-882.15002"
         font-family="roboto"
         font-size="18px"
         id="text6">185</text>
    </g>
    <g
       id="edge5"
       class="edge"
       transform="matrix(2.08333,0,0,2.08333,8.33332,2077.08)">
      <title
         id="title7">n0-&gt;d2:w</title>
      <path
         fill="none"
         stroke="#000000"
         stroke-width="4"
         d="M 83.64,-570.65 C 101.97,-684.39 144.09,-888 210.62,-888 c 0,0 0,0 326.55,0 45.04,0 59.21,0 98.94,0"
         id="path7" />
      <circle
         fill="none"
         stroke="#000000"
         stroke-width="4"
         cx="642.04999"
         cy="-888"
         id="ellipse7"
         r="4" />
    </g>
    <g
       id="node11"
       class="node"
       transform="matrix(2.08333,0,0,2.08333,8.33332,2077.08)">
      <title
         id="title8">d3</title>
      <text
         text-anchor="middle"
         x="536.16998"
         y="-157.14999"
         font-family="roboto"
         font-size="18px"
         id="text8">362</text>
    </g>
    <g
       id="edge7"
       class="edge"
       transform="matrix(2.08333,0,0,2.08333,8.33332,2077.08)">
      <title
         id="title9">n0-&gt;d3:w</title>
      <path
         fill="none"
         stroke="#000000"
         stroke-width="4"
         d="m 99.3,-425.18 c 21.98,45.52 58.35,96.18 111.32,96.18 0,0 0,0 69.26,0 123.28,0 107.48,155.47 221.8,165.49"
         id="path9" />
      <circle
         fill="none"
         stroke="#000000"
         stroke-width="4"
         cx="507.54999"
         cy="-163.25999"
         id="ellipse9"
         r="4" />
    </g>
    <g
       id="node12"
       class="node"
       transform="matrix(2.08333,0,0,2.08333,8.33332,2077.08)">
      <title
         id="title10">d4</title>
      <text
         text-anchor="middle"
         x="211.62"
         y="-490.14999"
         font-family="roboto"
         font-size="18px"
         id="text10">242</text>
    </g>
    <g
       id="edge9"
       class="edge"
       transform="matrix(2.08333,0,0,2.08333,8.33332,2077.08)">
      <title
         id="title11">n0-&gt;d4:w</title>
      <path
         fill="none"
         stroke="#000000"
         stroke-width="4"
         d="m 147.88,-496 c 9.73,0 19.69,0 29.41,0"
         id="path11" />
      <circle
         fill="none"
         stroke="#000000"
         stroke-width="4"
         cx="183"
         cy="-496"
         id="ellipse11"
         r="4" />
    </g>
    <g
       id="node2"
       class="node"
       transform="matrix(2.08333,0,0,2.08333,8.33332,2077.08)">
      <title
         id="title12">n1</title>
      <circle
         fill="#d3d3d3"
         stroke="#000000"
         stroke-width="8"
         cx="407.51999"
         cy="-496"
         id="ellipse12"
         r="84.019997" />
      <text
         text-anchor="start"
         x="337.39999"
         y="-501.39999"
         font-family="roboto"
         font-size="18px"
         id="text12">Queued Awaiting</text>
      <text
         text-anchor="start"
         x="362.14999"
         y="-478.89999"
         font-family="roboto"
         font-size="18px"
         id="text13">Assignment</text>
    </g>
    <g
       id="node13"
       class="node"
       transform="matrix(2.08333,0,0,2.08333,8.33332,2077.08)">
      <title
         id="title13">d5</title>
      <text
         text-anchor="middle"
         x="1046.58"
         y="-447.14999"
         font-family="roboto"
         font-size="18px"
         id="text14">68</text>
    </g>
    <g
       id="edge11"
       class="edge"
       transform="matrix(2.08333,0,0,2.08333,8.33332,2077.08)">
      <title
         id="title14">n1-&gt;d5:w</title>
      <path
         fill="none"
         stroke="#000000"
         stroke-width="4"
         d="m 491.15,-469.38 c 34.08,8.8 74.2,16.38 111.27,16.38 0,0 0,0 319.91,0 42.66,0 56.2,0 93.62,0"
         id="path14" />
      <circle
         fill="none"
         stroke="#000000"
         stroke-width="4"
         cx="1021.79"
         cy="-453"
         id="ellipse14"
         r="4" />
    </g>
    <g
       id="node14"
       class="node"
       transform="matrix(2.08333,0,0,2.08333,8.33332,2077.08)">
      <title
         id="title15">d6</title>
      <text
         text-anchor="middle"
         x="1279.83"
         y="-623.15002"
         font-family="roboto"
         font-size="18px"
         id="text15">162</text>
    </g>
    <g
       id="edge13"
       class="edge"
       transform="matrix(2.08333,0,0,2.08333,8.33332,2077.08)">
      <title
         id="title16">n1-&gt;d6:w</title>
      <path
         fill="none"
         stroke="#000000"
         stroke-width="4"
         d="M 441.49,-576.87 C 472.75,-638.91 526.32,-714 602.42,-714 c 0,0 0,0 382.54,0 122.67,0 144.17,79.61 260.32,84.74"
         id="path16" />
      <circle
         fill="none"
         stroke="#000000"
         stroke-width="4"
         cx="1251.21"
         cy="-629.13"
         id="ellipse16"
         r="4" />
    </g>
    <g
       id="node15"
       class="node"
       transform="matrix(2.08333,0,0,2.08333,8.33332,2077.08)">
      <title
         id="title17">d7</title>
      <text
         text-anchor="middle"
         x="796"
         y="-795.15002"
         font-family="roboto"
         font-size="18px"
         id="text17">16</text>
    </g>
    <g
       id="edge15"
       class="edge"
       transform="matrix(2.08333,0,0,2.08333,8.33332,2077.08)">
      <title
         id="title18">n1-&gt;d7:w</title>
      <path
         fill="none"
         stroke="#000000"
         stroke-width="4"
         d="m 423.55,-582.45 c 14.04,-54.82 40.59,-122.83 90,-163.55 89.3,-73.61 140.48,-56.3 251.95,-55.07"
         id="path18" />
      <circle
         fill="none"
         stroke="#000000"
         stroke-width="4"
         cx="771.20001"
         cy="-801.03003"
         id="ellipse18"
         r="4" />
    </g>
    <g
       id="node16"
       class="node"
       transform="matrix(2.08333,0,0,2.08333,8.33332,2077.08)">
      <title
         id="title19">d8</title>
      <text
         text-anchor="middle"
         x="603.41998"
         y="-352.14999"
         font-family="roboto"
         font-size="18px"
         id="text19">108</text>
    </g>
    <g
       id="edge17"
       class="edge"
       transform="matrix(2.08333,0,0,2.08333,8.33332,2077.08)">
      <title
         id="title20">n1-&gt;d8:w</title>
      <path
         fill="none"
         stroke="#000000"
         stroke-width="4"
         d="m 459.32,-425.38 c 28.19,31.16 66.3,61.89 109.71,66.72"
         id="path20" />
      <circle
         fill="none"
         stroke="#000000"
         stroke-width="4"
         cx="574.81"
         cy="-358.32999"
         id="ellipse20"
         r="4" />
    </g>
    <g
       id="node17"
       class="node"
       transform="matrix(2.08333,0,0,2.08333,8.33332,2077.08)">
      <title
         id="title21">d9</title>
      <text
         text-anchor="middle"
         x="1414.33"
         y="-12.15"
         font-family="roboto"
         font-size="18px"
         id="text21">370</text>
    </g>
    <g
       id="edge19"
       class="edge"
       transform="matrix(2.08333,0,0,2.08333,8.33332,2077.08)">
      <title
         id="title22">n1-&gt;d9:w</title>
      <path
         fill="none"
         stroke="#000000"
         stroke-width="4"
         d="M 452.23,-420.26 C 536.32,-285.48 734.51,-18 982.96,-18 c 0,0 0,0 297.87,0 45.05,0 59.21,0 98.95,0"
         id="path22" />
      <circle
         fill="none"
         stroke="#000000"
         stroke-width="4"
         cx="1385.71"
         cy="-18"
         id="ellipse22"
         r="4" />
    </g>
    <g
       id="node24"
       class="node"
       transform="matrix(2.08333,0,0,2.08333,8.33332,2077.08)">
      <title
         id="title23">d16</title>
      <text
         text-anchor="middle"
         x="670.66998"
         y="-534.15002"
         font-family="roboto"
         font-size="18px"
         id="text23">119</text>
    </g>
    <g
       id="edge33"
       class="edge"
       transform="matrix(2.08333,0,0,2.08333,8.33332,2077.08)">
      <title
         id="title24">n1-&gt;d16:w</title>
      <path
         fill="none"
         stroke="#808080"
         stroke-width="4"
         d="m 507.75,-522.56 c 39.23,-8.5 85.21,-16.06 128.47,-17.27"
         id="path24" />
      <polygon
         fill="#808080"
         stroke="#808080"
         stroke-width="4"
         points="498.26,-520.42 507.25,-526.03 508.79,-519.2 "
         id="polygon24" />
      <circle
         fill="none"
         stroke="#808080"
         stroke-width="4"
         cx="642.04999"
         cy="-539.90997"
         id="ellipse24"
         r="4" />
    </g>
    <g
       id="node3"
       class="node"
       transform="matrix(2.08333,0,0,2.08333,8.33332,2077.08)">
      <title
         id="title25">n2</title>
      <circle
         fill="#d3d3d3"
         stroke="#000000"
         stroke-width="8"
         cx="796"
         cy="-307"
         id="ellipse25"
         r="80.709999" />
      <text
         text-anchor="start"
         x="725.13"
         y="-301.14999"
         font-family="roboto"
         font-size="18px"
         id="text25">Completed Closed</text>
    </g>
    <g
       id="node18"
       class="node"
       transform="matrix(2.08333,0,0,2.08333,8.33332,2077.08)">
      <title
         id="title26">d10</title>
      <text
         text-anchor="middle"
         x="1797.72"
         y="-221.14999"
         font-family="roboto"
         font-size="18px"
         id="text26">378</text>
    </g>
    <g
       id="edge21"
       class="edge"
       transform="matrix(2.08333,0,0,2.08333,8.33332,2077.08)">
      <title
         id="title27">n2-&gt;d10:w</title>
      <path
         fill="none"
         stroke="#000000"
         stroke-width="4"
         d="m 855.97,-247.48 c 34.09,28.06 79.54,55.48 126.99,55.48 0,0 0,0 681.01,0 47.24,0 57.4,-29.49 98.56,-34.33"
         id="path27" />
      <circle
         fill="none"
         stroke="#000000"
         stroke-width="4"
         cx="1768.36"
         cy="-226.66"
         id="ellipse27"
         r="4" />
    </g>
    <g
       id="node19"
       class="node"
       transform="matrix(2.08333,0,0,2.08333,8.33332,2077.08)">
      <title
         id="title28">d11</title>
      <text
         text-anchor="middle"
         x="983.96002"
         y="-621.15002"
         font-family="roboto"
         font-size="18px"
         id="text28">82</text>
    </g>
    <g
       id="edge23"
       class="edge"
       transform="matrix(2.08333,0,0,2.08333,8.33332,2077.08)">
      <title
         id="title29">n2-&gt;d11:w</title>
      <path
         fill="none"
         stroke="#808080"
         stroke-width="4"
         d="m 807.79,-406.73 c 15.68,-90.15 53.88,-210.2 146.32,-219.67"
         id="path29" />
      <polygon
         fill="#808080"
         stroke="#808080"
         stroke-width="4"
         points="806.21,-397.05 804.37,-407.48 811.27,-406.36 "
         id="polygon29" />
      <circle
         fill="none"
         stroke="#808080"
         stroke-width="4"
         cx="959.96997"
         cy="-626.70001"
         id="ellipse29"
         r="4" />
    </g>
    <g
       id="node23"
       class="node"
       transform="matrix(2.08333,0,0,2.08333,8.33332,2077.08)">
      <title
         id="title30">d15</title>
      <text
         text-anchor="middle"
         x="1046.58"
         y="-360.14999"
         font-family="roboto"
         font-size="18px"
         id="text30">418</text>
    </g>
    <g
       id="edge31"
       class="edge"
       transform="matrix(2.08333,0,0,2.08333,8.33332,2077.08)">
      <title
         id="title31">n2-&gt;d15:w</title>
      <path
         fill="none"
         stroke="#808080"
         stroke-width="4"
         d="m 889.88,-342.47 c 36.99,-11.41 80.58,-21.58 122.13,-23.28"
         id="path31" />
      <polygon
         fill="#808080"
         stroke="#808080"
         stroke-width="4"
         points="880.52,-339.47 888.97,-345.86 891.11,-339.19 "
         id="polygon31" />
      <circle
         fill="none"
         stroke="#808080"
         stroke-width="4"
         cx="1017.96"
         cy="-365.88"
         id="ellipse31"
         r="4" />
    </g>
    <g
       id="node27"
       class="node"
       transform="matrix(2.08333,0,0,2.08333,8.33332,2077.08)">
      <title
         id="title32">d19</title>
      <text
         text-anchor="middle"
         x="1662.97"
         y="-316.14999"
         font-family="roboto"
         font-size="18px"
         id="text32">72</text>
    </g>
    <g
       id="edge39"
       class="edge"
       transform="matrix(2.08333,0,0,2.08333,8.33332,2077.08)">
      <title
         id="title33">n2-&gt;d19:w</title>
      <path
         fill="none"
         stroke="#808080"
         stroke-width="4"
         d="m 894.05,-286.8 c 28.51,4.41 59.85,7.8 88.91,7.8 0,0 0,0 432.37,0 99.78,0 123.97,-39.71 217.84,-42.81"
         id="path33" />
      <polygon
         fill="#808080"
         stroke="#808080"
         stroke-width="4"
         points="884.51,-288.37 894.94,-290.2 893.81,-283.29 "
         id="polygon33" />
      <circle
         fill="none"
         stroke="#808080"
         stroke-width="4"
         cx="1638.97"
         cy="-321.89999"
         id="ellipse33"
         r="4" />
    </g>
    <g
       id="node4"
       class="node"
       transform="matrix(2.08333,0,0,2.08333,8.33332,2077.08)">
      <title
         id="title34">n3</title>
      <circle
         fill="#d3d3d3"
         stroke="#000000"
         stroke-width="8"
         cx="1163.21"
         cy="-819"
         id="ellipse34"
         r="72" />
      <text
         text-anchor="start"
         x="1106.58"
         y="-813.15002"
         font-family="roboto"
         font-size="18px"
         id="text34">Accepted Wait</text>
    </g>
    <g
       id="node20"
       class="node"
       transform="matrix(2.08333,0,0,2.08333,8.33332,2077.08)">
      <title
         id="title35">d12</title>
      <text
         text-anchor="middle"
         x="2057.47"
         y="-780.15002"
         font-family="roboto"
         font-size="18px"
         id="text35">208</text>
    </g>
    <g
       id="edge25"
       class="edge"
       transform="matrix(2.08333,0,0,2.08333,8.33332,2077.08)">
      <title
         id="title36">n3-&gt;d12:w</title>
      <path
         fill="none"
         stroke="#000000"
         stroke-width="4"
         d="m 1238.38,-808.32 c 32.91,3.87 72.17,7.32 107.7,7.32 0,0 0,0 452.64,0 101.05,0 128.83,13.85 224.16,14.93"
         id="path36" />
      <circle
         fill="none"
         stroke="#000000"
         stroke-width="4"
         cx="2028.85"
         cy="-786.03003"
         id="ellipse36"
         r="4" />
    </g>
    <g
       id="node22"
       class="node"
       transform="matrix(2.08333,0,0,2.08333,8.33332,2077.08)">
      <title
         id="title37">d14</title>
      <text
         text-anchor="middle"
         x="1347.08"
         y="-708.15002"
         font-family="roboto"
         font-size="18px"
         id="text37">177</text>
    </g>
    <g
       id="edge29"
       class="edge"
       transform="matrix(2.08333,0,0,2.08333,8.33332,2077.08)">
      <title
         id="title38">n3-&gt;d14:w</title>
      <path
         fill="none"
         stroke="#808080"
         stroke-width="4"
         d="m 1227.3,-754.01 c 24.4,19.13 54.03,35.92 85.49,39.37"
         id="path38" />
      <polygon
         fill="#808080"
         stroke="#808080"
         stroke-width="4"
         points="1219.85,-760.18 1229.79,-756.5 1225.32,-751.11 "
         id="polygon38" />
      <circle
         fill="none"
         stroke="#808080"
         stroke-width="4"
         cx="1318.47"
         cy="-714.33002"
         id="ellipse38"
         r="4" />
    </g>
    <g
       id="node5"
       class="node"
       transform="matrix(2.08333,0,0,2.08333,8.33332,2077.08)">
      <title
         id="title39">n4</title>
      <circle
         fill="#d3d3d3"
         stroke="#000000"
         stroke-width="8"
         cx="1540.96"
         cy="-627"
         id="ellipse39"
         r="82.010002" />
      <text
         text-anchor="start"
         x="1472.71"
         y="-632.40002"
         font-family="roboto"
         font-size="18px"
         id="text39">Accepted In Prog</text>
      <text
         text-anchor="start"
         x="1524.46"
         y="-609.90002"
         font-family="roboto"
         font-size="18px"
         id="text40">ress</text>
    </g>
    <g
       id="node21"
       class="node"
       transform="matrix(2.08333,0,0,2.08333,8.33332,2077.08)">
      <title
         id="title40">d13</title>
      <text
         text-anchor="middle"
         x="1725.6"
         y="-534.15002"
         font-family="roboto"
         font-size="18px"
         id="text41">171</text>
    </g>
    <g
       id="edge27"
       class="edge"
       transform="matrix(2.08333,0,0,2.08333,8.33332,2077.08)">
      <title
         id="title41">n4-&gt;d13:w</title>
      <path
         fill="none"
         stroke="#000000"
         stroke-width="4"
         d="m 1607.55,-572.89 c 24.47,15.62 53.61,29.29 83.49,32.28"
         id="path41" />
      <circle
         fill="none"
         stroke="#000000"
         stroke-width="4"
         cx="1696.98"
         cy="-540.29999"
         id="ellipse41"
         r="4" />
    </g>
    <g
       id="node25"
       class="node"
       transform="matrix(2.08333,0,0,2.08333,8.33332,2077.08)">
      <title
         id="title42">d17</title>
      <text
         text-anchor="middle"
         x="1797.72"
         y="-706.15002"
         font-family="roboto"
         font-size="18px"
         id="text42">1142</text>
    </g>
    <g
       id="edge35"
       class="edge"
       transform="matrix(2.08333,0,0,2.08333,8.33332,2077.08)">
      <title
         id="title43">n4-&gt;d17:w</title>
      <path
         fill="none"
         stroke="#000000"
         stroke-width="4"
         d="m 1615.5,-669.5 c 40.38,-19.71 92.42,-39.43 142.95,-42.18"
         id="path43" />
      <circle
         fill="none"
         stroke="#000000"
         stroke-width="4"
         cx="1764.22"
         cy="-711.83002"
         id="ellipse43"
         r="4" />
    </g>
    <g
       id="node26"
       class="node"
       transform="matrix(2.08333,0,0,2.08333,8.33332,2077.08)">
      <title
         id="title44">d18</title>
      <text
         text-anchor="middle"
         x="1725.6"
         y="-621.15002"
         font-family="roboto"
         font-size="18px"
         id="text44">21</text>
    </g>
    <g
       id="edge37"
       class="edge"
       transform="matrix(2.08333,0,0,2.08333,8.33332,2077.08)">
      <title
         id="title45">n4-&gt;d18:w</title>
      <path
         fill="none"
         stroke="#808080"
         stroke-width="4"
         d="m 1642.63,-627 c 17.22,0 35.12,0 52.36,0"
         id="path45" />
      <polygon
         fill="#808080"
         stroke="#808080"
         stroke-width="4"
         points="1632.72,-627 1642.72,-630.5 1642.72,-623.5 "
         id="polygon45" />
      <circle
         fill="none"
         stroke="#808080"
         stroke-width="4"
         cx="1700.8"
         cy="-627"
         id="ellipse45"
         r="4" />
    </g>
    <g
       id="node6"
       class="node"
       transform="matrix(2.08333,0,0,2.08333,8.33332,2077.08)">
      <title
         id="title46">n5</title>
      <circle
         fill="#d3d3d3"
         stroke="#000000"
         stroke-width="8"
         cx="1930.03"
         cy="-453"
         id="ellipse46"
         r="82.809998" />
      <text
         text-anchor="start"
         x="1861.03"
         y="-458.39999"
         font-family="roboto"
         font-size="18px"
         id="text46">Accepted Assigne</text>
      <text
         text-anchor="start"
         x="1925.16"
         y="-435.89999"
         font-family="roboto"
         font-size="18px"
         id="text47">d</text>
    </g>
    <g
       id="node28"
       class="node"
       transform="matrix(2.08333,0,0,2.08333,8.33332,2077.08)">
      <title
         id="title47">d20</title>
      <text
         text-anchor="middle"
         x="2124.72"
         y="-447.14999"
         font-family="roboto"
         font-size="18px"
         id="text48">211</text>
    </g>
    <g
       id="edge41"
       class="edge"
       transform="matrix(2.08333,0,0,2.08333,8.33332,2077.08)">
      <title
         id="title48">n5-&gt;d20:w</title>
      <path
         fill="none"
         stroke="#000000"
         stroke-width="4"
         d="m 2016.74,-453 c 23.45,0 49.13,0 73.51,0"
         id="path48" />
      <circle
         fill="none"
         stroke="#000000"
         stroke-width="4"
         cx="2096.1001"
         cy="-453"
         id="ellipse48"
         r="4" />
    </g>
    <g
       id="node7"
       class="node"
       transform="matrix(2.08333,0,0,2.08333,8.33332,2077.08)">
      <title
         id="title49">n6</title>
      <circle
         fill="#ff0000"
         stroke="#000000"
         stroke-width="8"
         cx="2264.3501"
         cy="-453"
         id="ellipse49"
         r="72" />
      <text
         text-anchor="start"
         x="2249.72"
         y="-447.14999"
         font-family="roboto"
         font-size="18px"
         id="text49">end</text>
    </g>
    <g
       id="edge2"
       class="edge"
       transform="matrix(2.08333,0,0,2.08333,8.33332,2077.08)">
      <title
         id="title50">d0:e-&gt;n5</title>
      <path
         fill="none"
         stroke="#000000"
         stroke-width="4"
         d="m 313.39,-134.74 c 97.02,4.3 118.53,60.74 221.78,60.74 0,0 0,0 136.5,0 139.04,0 172.25,-31 311.29,-31 0,0 0,0 743.64,0 115.18,0 165.96,-144.2 187.52,-246.95"
         id="path50" />
      <circle
         fill="none"
         stroke="#000000"
         stroke-width="4"
         cx="307.5"
         cy="-134.87"
         id="ellipse50"
         r="4" />
      <polygon
         fill="#000000"
         stroke="#000000"
         stroke-width="4"
         points="1916.02,-361.49 1917.49,-351 1910.63,-352.37 "
         id="polygon50" />
    </g>
    <g
       id="edge4"
       class="edge"
       transform="matrix(2.08333,0,0,2.08333,8.33332,2077.08)">
      <title
         id="title51">d1:e-&gt;n4</title>
      <path
         fill="none"
         stroke="#000000"
         stroke-width="4"
         d="m 955.82,-975 c 35.72,0 48.83,0 89.76,0 0,0 0,0 302.5,0 113.74,0 160.57,144.32 179.49,247.08"
         id="path51" />
      <circle
         fill="none"
         stroke="#000000"
         stroke-width="4"
         cx="949.96002"
         cy="-975"
         id="ellipse51"
         r="4" />
      <polygon
         fill="#000000"
         stroke="#000000"
         stroke-width="4"
         points="1529.28,-718.09 1524.12,-727.35 1531.01,-728.55 "
         id="polygon51" />
    </g>
    <g
       id="edge6"
       class="edge"
       transform="matrix(2.08333,0,0,2.08333,8.33332,2077.08)">
      <title
         id="title52">d2:e-&gt;n3</title>
      <path
         fill="none"
         stroke="#000000"
         stroke-width="4"
         d="m 705.06,-888 c 91.28,0 118.41,0 215.27,0 0,0 0,0 64.63,0 33.63,0 68.55,10.92 98.41,24.07"
         id="path52" />
      <circle
         fill="none"
         stroke="#000000"
         stroke-width="4"
         cx="699.29999"
         cy="-888"
         id="ellipse52"
         r="4" />
      <polygon
         fill="#000000"
         stroke="#000000"
         stroke-width="4"
         points="1092.11,-859.88 1081.56,-860.91 1084.51,-867.26 "
         id="polygon52" />
    </g>
    <g
       id="edge8"
       class="edge"
       transform="matrix(2.08333,0,0,2.08333,8.33332,2077.08)">
      <title
         id="title53">d3:e-&gt;n2</title>
      <path
         fill="none"
         stroke="#000000"
         stroke-width="4"
         d="m 570.75,-163.45 c 57.96,-4.29 112.98,-38.87 154.02,-73.01"
         id="path53" />
      <circle
         fill="none"
         stroke="#000000"
         stroke-width="4"
         cx="564.78998"
         cy="-163.22"
         id="ellipse53"
         r="4" />
      <polygon
         fill="#000000"
         stroke="#000000"
         stroke-width="4"
         points="732.18,-242.82 726.87,-233.65 722.31,-238.96 "
         id="polygon53" />
    </g>
    <g
       id="edge10"
       class="edge"
       transform="matrix(2.08333,0,0,2.08333,8.33332,2077.08)">
      <title
         id="title54">d4:e-&gt;n1</title>
      <path
         fill="none"
         stroke="#000000"
         stroke-width="4"
         d="m 246.12,-496 c 18.98,0 38.75,0 57.65,0"
         id="path54" />
      <circle
         fill="none"
         stroke="#000000"
         stroke-width="4"
         cx="240.25"
         cy="-496"
         id="ellipse54"
         r="4" />
      <polygon
         fill="#000000"
         stroke="#000000"
         stroke-width="4"
         points="313.71,-496 303.71,-492.5 303.71,-499.5 "
         id="polygon54" />
    </g>
    <g
       id="edge12"
       class="edge"
       transform="matrix(2.08333,0,0,2.08333,8.33332,2077.08)">
      <title
         id="title55">d5:e-&gt;n5</title>
      <path
         fill="none"
         stroke="#000000"
         stroke-width="4"
         d="m 1077.23,-453 c 85.19,0 110.81,0 201.6,0 0,0 0,0 447.77,0 32.77,0 68.52,0 100.74,0"
         id="path55" />
      <circle
         fill="none"
         stroke="#000000"
         stroke-width="4"
         cx="1071.38"
         cy="-453"
         id="ellipse55"
         r="4" />
      <polygon
         fill="#000000"
         stroke="#000000"
         stroke-width="4"
         points="1837.28,-453 1827.28,-449.5 1827.28,-456.5 "
         id="polygon55" />
    </g>
    <g
       id="edge14"
       class="edge"
       transform="matrix(2.08333,0,0,2.08333,8.33332,2077.08)">
      <title
         id="title56">d6:e-&gt;n4</title>
      <path
         fill="none"
         stroke="#000000"
         stroke-width="4"
         d="m 1314.42,-628.99 c 41.6,0.05 86.28,0.39 124.8,0.77"
         id="path56" />
      <circle
         fill="none"
         stroke="#000000"
         stroke-width="4"
         cx="1308.46"
         cy="-629"
         id="ellipse56"
         r="4" />
      <polygon
         fill="#000000"
         stroke="#000000"
         stroke-width="4"
         points="1449,-628.12 1438.96,-624.73 1439.03,-631.73 "
         id="polygon56" />
    </g>
    <g
       id="edge16"
       class="edge"
       transform="matrix(2.08333,0,0,2.08333,8.33332,2077.08)">
      <title
         id="title57">d7:e-&gt;n3</title>
      <path
         fill="none"
         stroke="#000000"
         stroke-width="4"
         d="m 826.74,-801.03 c 84.36,-0.49 178.1,-5.94 245,-10.71"
         id="path57" />
      <circle
         fill="none"
         stroke="#000000"
         stroke-width="4"
         cx="820.79999"
         cy="-801.02002"
         id="ellipse57"
         r="4" />
      <polygon
         fill="#000000"
         stroke="#000000"
         stroke-width="4"
         points="1081.68,-812.47 1071.96,-808.25 1071.45,-815.23 "
         id="polygon57" />
    </g>
    <g
       id="edge18"
       class="edge"
       transform="matrix(2.08333,0,0,2.08333,8.33332,2077.08)">
      <title
         id="title58">d8:e-&gt;n2</title>
      <path
         fill="none"
         stroke="#000000"
         stroke-width="4"
         d="m 637.73,-357.64 c 21.94,1.32 44.42,6.16 65.27,12.35"
         id="path58" />
      <circle
         fill="none"
         stroke="#000000"
         stroke-width="4"
         cx="632.03998"
         cy="-357.82001"
         id="ellipse58"
         r="4" />
      <polygon
         fill="#000000"
         stroke="#000000"
         stroke-width="4"
         points="712.46,-342.28 701.87,-341.98 703.99,-348.65 "
         id="polygon58" />
    </g>
    <g
       id="edge20"
       class="edge"
       transform="matrix(2.08333,0,0,2.08333,8.33332,2077.08)">
      <title
         id="title59">d9:e-&gt;n6</title>
      <path
         fill="none"
         stroke="#000000"
         stroke-width="4"
         d="m 1448.9,-18 c 90.24,0 117.17,0 213.07,0 0,0 0,0 463.75,0 71.5,0 110.6,-216.32 127.44,-343.87"
         id="path59" />
      <circle
         fill="none"
         stroke="#000000"
         stroke-width="4"
         cx="1442.96"
         cy="-18"
         id="ellipse59"
         r="4" />
      <polygon
         fill="#000000"
         stroke="#000000"
         stroke-width="4"
         points="2254.43,-371.72 2256.62,-361.36 2249.68,-362.25 "
         id="polygon59" />
    </g>
    <g
       id="edge22"
       class="edge"
       transform="matrix(2.08333,0,0,2.08333,8.33332,2077.08)">
      <title
         id="title60">d10:e-&gt;n6</title>
      <path
         fill="none"
         stroke="#000000"
         stroke-width="4"
         d="m 1833.01,-227.24 c 97.29,-3.94 120.02,-55.76 223.46,-55.76 0,0 0,0 69.25,0 48.45,0 82.79,-42.22 105.05,-84.58"
         id="path60" />
      <circle
         fill="none"
         stroke="#000000"
         stroke-width="4"
         cx="1827.09"
         cy="-227.12"
         id="ellipse60"
         r="4" />
      <polygon
         fill="#000000"
         stroke="#000000"
         stroke-width="4"
         points="2235.17,-376.46 2233.87,-365.95 2227.6,-369.06 "
         id="polygon60" />
    </g>
    <g
       id="edge24"
       class="edge"
       transform="matrix(2.08333,0,0,2.08333,8.33332,2077.08)">
      <title
         id="title61">d11:e-&gt;n3</title>
      <path
         fill="none"
         stroke="#808080"
         stroke-width="4"
         d="m 1013.59,-627.71 c 58.96,-7.28 99.13,-68.96 122.7,-120.34"
         id="path61" />
      <circle
         fill="none"
         stroke="#808080"
         stroke-width="4"
         cx="1007.95"
         cy="-627.37"
         id="ellipse61"
         r="4" />
    </g>
    <g
       id="edge26"
       class="edge"
       transform="matrix(2.08333,0,0,2.08333,8.33332,2077.08)">
      <title
         id="title62">d12:e-&gt;n6</title>
      <path
         fill="none"
         stroke="#000000"
         stroke-width="4"
         d="m 2091.83,-785.45 c 102.32,9.74 144.06,146.51 160.76,241.55"
         id="path62" />
      <circle
         fill="none"
         stroke="#000000"
         stroke-width="4"
         cx="2086.0901"
         cy="-785.71997"
         id="ellipse62"
         r="4" />
      <polygon
         fill="#000000"
         stroke="#000000"
         stroke-width="4"
         points="2254.21,-534.12 2249.12,-543.41 2256.03,-544.56 "
         id="polygon62" />
    </g>
    <g
       id="edge28"
       class="edge"
       transform="matrix(2.08333,0,0,2.08333,8.33332,2077.08)">
      <title
         id="title63">d13:e-&gt;n5</title>
      <path
         fill="none"
         stroke="#000000"
         stroke-width="4"
         d="m 1759.81,-539.52 c 30.26,2.44 60.32,14.02 86.54,27.96"
         id="path63" />
      <circle
         fill="none"
         stroke="#000000"
         stroke-width="4"
         cx="1754.22"
         cy="-539.75"
         id="ellipse63"
         r="4" />
      <polygon
         fill="#000000"
         stroke="#000000"
         stroke-width="4"
         points="1854.8,-506.82 1844.37,-508.66 1847.79,-514.76 "
         id="polygon63" />
    </g>
    <g
       id="edge30"
       class="edge"
       transform="matrix(2.08333,0,0,2.08333,8.33332,2077.08)">
      <title
         id="title64">d14:e-&gt;n4</title>
      <path
         fill="none"
         stroke="#808080"
         stroke-width="4"
         d="m 1381.31,-713.48 c 32.75,2.92 64.97,17.63 91.72,34.11"
         id="path64" />
      <circle
         fill="none"
         stroke="#808080"
         stroke-width="4"
         cx="1375.7"
         cy="-713.72998"
         id="ellipse64"
         r="4" />
    </g>
    <g
       id="edge32"
       class="edge"
       transform="matrix(2.08333,0,0,2.08333,8.33332,2077.08)">
      <title
         id="title65">d15:e-&gt;n4</title>
      <path
         fill="none"
         stroke="#808080"
         stroke-width="4"
         d="m 1081.1,-366 c 83.46,0 108.66,0 197.73,0 0,0 0,0 69.25,0 89.99,0 142.45,-101.95 169.13,-178.42"
         id="path65" />
      <circle
         fill="none"
         stroke="#808080"
         stroke-width="4"
         cx="1075.21"
         cy="-366"
         id="ellipse65"
         r="4" />
    </g>
    <g
       id="edge34"
       class="edge"
       transform="matrix(2.08333,0,0,2.08333,8.33332,2077.08)">
      <title
         id="title66">d16:e-&gt;n4</title>
      <path
         fill="none"
         stroke="#808080"
         stroke-width="4"
         d="m 705.06,-540 c 91.28,0 118.41,0 215.27,0 0,0 0,0 427.75,0 43.16,0 87.3,-18.48 122.35,-38.41"
         id="path66" />
      <circle
         fill="none"
         stroke="#808080"
         stroke-width="4"
         cx="699.29999"
         cy="-540"
         id="ellipse66"
         r="4" />
    </g>
    <g
       id="edge36"
       class="edge"
       transform="matrix(2.08333,0,0,2.08333,8.33332,2077.08)">
      <title
         id="title67">d17:e-&gt;n6</title>
      <path
         fill="none"
         stroke="#000000"
         stroke-width="4"
         d="m 1836.93,-711.77 c 95.58,3.88 117.92,54.77 219.54,54.77 0,0 0,0 69.25,0 59.49,0 94.98,60.35 114.98,115.39"
         id="path67" />
      <circle
         fill="none"
         stroke="#000000"
         stroke-width="4"
         cx="1831.22"
         cy="-711.88"
         id="ellipse67"
         r="4" />
      <polygon
         fill="#000000"
         stroke="#000000"
         stroke-width="4"
         points="2243.85,-532.38 2237.31,-540.71 2243.93,-542.97 "
         id="polygon67" />
    </g>
    <g
       id="edge38"
       class="edge"
       transform="matrix(2.08333,0,0,2.08333,8.33332,2077.08)">
      <title
         id="title68">d18:e-&gt;n5</title>
      <path
         fill="none"
         stroke="#808080"
         stroke-width="4"
         d="m 1756.12,-626.37 c 56,6.01 101.1,54.07 131.18,98.06"
         id="path68" />
      <circle
         fill="none"
         stroke="#808080"
         stroke-width="4"
         cx="1750.39"
         cy="-626.67999"
         id="ellipse68"
         r="4" />
    </g>
    <g
       id="edge40"
       class="edge"
       transform="matrix(2.08333,0,0,2.08333,8.33332,2077.08)">
      <title
         id="title69">d19:e-&gt;n5</title>
      <path
         fill="none"
         stroke="#808080"
         stroke-width="4"
         d="m 1692.93,-322.39 c 63.97,-4.17 126.56,-40.73 171.21,-74.1"
         id="path69" />
      <circle
         fill="none"
         stroke="#808080"
         stroke-width="4"
         cx="1686.97"
         cy="-322.20001"
         id="ellipse69"
         r="4" />
    </g>
    <g
       id="edge42"
       class="edge"
       transform="matrix(2.08333,0,0,2.08333,8.33332,2077.08)">
      <title
         id="title70">d20:e-&gt;n6</title>
      <path
         fill="none"
         stroke="#000000"
         stroke-width="4"
         d="m 2159.06,-453 c 4.55,0 9.16,0 13.78,0"
         id="path70" />
      <circle
         fill="none"
         stroke="#000000"
         stroke-width="4"
         cx="2153.3501"
         cy="-453"
         id="ellipse70"
         r="4" />
      <polygon
         fill="#000000"
         stroke="#000000"
         stroke-width="4"
         points="2182.41,-453 2172.41,-449.5 2172.41,-456.5 "
         id="polygon70" />
    </g>
  </g>
</svg>
