<?xml version="1.0" encoding="UTF-8" standalone="no"?>
<!-- Generated by graphviz version 12.1.0 (20240811.2233)
 -->

<!-- Pages: 1 -->

<svg
   width="3964pt"
   height="2469pt"
   viewBox="0 0 3964 2469"
   version="1.1"
   id="svg85"
   sodipodi:docname="roadfines-alpha-plus.svg"
   inkscape:version="1.3 (0e150ed6c4, 2023-07-21)"
   xmlns:inkscape="http://www.inkscape.org/namespaces/inkscape"
   xmlns:sodipodi="http://sodipodi.sourceforge.net/DTD/sodipodi-0.dtd"
   xmlns="http://www.w3.org/2000/svg"
   xmlns:svg="http://www.w3.org/2000/svg">
  <defs
     id="defs85" />
  <sodipodi:namedview
     id="namedview85"
     pagecolor="#ffffff"
     bordercolor="#111111"
     borderopacity="1"
     inkscape:showpageshadow="0"
     inkscape:pageopacity="0"
     inkscape:pagecheckerboard="1"
     inkscape:deskcolor="#d1d1d1"
     inkscape:document-units="pt"
     inkscape:zoom="0.18544957"
     inkscape:cx="5341.0745"
     inkscape:cy="2375.3088"
     inkscape:window-width="3440"
     inkscape:window-height="1417"
     inkscape:window-x="-8"
     inkscape:window-y="-8"
     inkscape:window-maximized="1"
     inkscape:current-layer="svg85" />
  <g
     id="node1"
     class="node"
     transform="matrix(2.08333,0,0,2.08333,8.33332,2460.8919)">
    <title
       id="title1">n0</title>
    <circle
       fill="#ffe0b2"
       stroke="#000000"
       stroke-width="2"
       cx="1195.59"
       cy="-336"
       id="ellipse1"
       r="44.810001" />
    <text
       text-anchor="start"
       x="1164.09"
       y="-345.45001"
       font-family="roboto"
       font-size="9px"
       id="text1">P_({'Insert Fine</text>
    <text
       text-anchor="start"
       x="1165.96"
       y="-333.45001"
       font-family="roboto"
       font-size="9px"
       id="text2">Notification'},</text>
    <text
       text-anchor="start"
       x="1163.34"
       y="-321.45001"
       font-family="roboto"
       font-size="9px"
       id="text3">{'Add penalty'})</text>
  </g>
  <g
     id="node18"
     class="node"
     transform="matrix(2.08333,0,0,2.08333,8.33332,2460.8919)">
    <title
       id="title3">n17</title>
    <path
       fill="#81c784"
       stroke="#000000"
       stroke-width="3"
       d="m 1424.88,-230.65 c 0,0 -120,0 -120,0 -6,0 -12,6 -12,12 0,0 0,27.3 0,27.3 0,6 6,12 12,12 0,0 120,0 120,0 6,0 12,-6 12,-12 0,0 0,-27.3 0,-27.3 0,-6 -6,-12 -12,-12"
       id="path3" />
    <text
       text-anchor="start"
       x="1317.63"
       y="-199.14999"
       font-family="roboto"
       font-size="18px"
       id="text4">Add penalty</text>
  </g>
  <g
     id="edge1"
     class="edge"
     transform="matrix(2.08333,0,0,2.08333,8.33332,2460.8919)">
    <title
       id="title4">n0-&gt;n17</title>
    <path
       fill="none"
       stroke="#263238"
       stroke-width="4"
       d="m 1231.65,-308.54 c 24.82,19.43 58.36,45.7 85.45,66.91"
       id="path4" />
    <polygon
       fill="#263238"
       stroke="#263238"
       stroke-width="4"
       points="1318.94,-244.63 1324.66,-235.71 1314.63,-239.12 "
       id="polygon4" />
  </g>
  <g
     id="node2"
     class="node"
     transform="matrix(2.08333,0,0,2.08333,8.33332,2460.8919)">
    <title
       id="title5">n1</title>
    <circle
       fill="#ffe0b2"
       stroke="#000000"
       stroke-width="2"
       cx="862.60999"
       cy="-706"
       id="ellipse5"
       r="46.689999" />
    <text
       text-anchor="start"
       x="828.85999"
       y="-715.45001"
       font-family="roboto"
       font-size="9px"
       id="text5">P_({'Send Fine'}</text>
    <text
       text-anchor="start"
       x="832.22998"
       y="-703.45001"
       font-family="roboto"
       font-size="9px"
       id="text6">,{'Insert Fine N</text>
    <text
       text-anchor="start"
       x="837.10999"
       y="-691.45001"
       font-family="roboto"
       font-size="9px"
       id="text7">otification'})</text>
  </g>
  <g
     id="node21"
     class="node"
     transform="matrix(2.08333,0,0,2.08333,8.33332,2460.8919)">
    <title
       id="title7">n20</title>
    <path
       fill="#81c784"
       stroke="#000000"
       stroke-width="3"
       d="m 1086.29,-618.9 c 0,0 -120,0 -120,0 -6,0 -12,6 -12,12 0,0 0,49.8 0,49.8 0,6 6,12 12,12 0,0 120,0 120,0 6,0 12,-6 12,-12 0,0 0,-49.8 0,-49.8 0,-6 -6,-12 -12,-12"
       id="path7" />
    <text
       text-anchor="start"
       x="964.41998"
       y="-587.40002"
       font-family="roboto"
       font-size="18px"
       id="text8">Insert Fine Noti</text>
    <text
       text-anchor="start"
       x="997.78998"
       y="-564.90002"
       font-family="roboto"
       font-size="18px"
       id="text9">fication</text>
  </g>
  <g
     id="edge32"
     class="edge"
     transform="matrix(2.08333,0,0,2.08333,8.33332,2460.8919)">
    <title
       id="title9">n1-&gt;n20</title>
    <path
       fill="none"
       stroke="#263238"
       stroke-width="4"
       d="m 900.7,-677.55 c 18.46,14.16 41.28,31.66 62.33,47.8"
       id="path9" />
    <polygon
       fill="#263238"
       stroke="#263238"
       stroke-width="4"
       points="964.89,-632.73 970.7,-623.87 960.63,-627.18 "
       id="polygon9" />
  </g>
  <g
     id="node3"
     class="node"
     transform="matrix(2.08333,0,0,2.08333,8.33332,2460.8919)">
    <title
       id="title10">n2</title>
    <circle
       fill="#c5e1a5"
       stroke="#000000"
       stroke-width="2"
       cx="51.23"
       cy="-996"
       id="ellipse10"
       r="36" />
    <text
       text-anchor="start"
       x="35.099998"
       y="-993.45001"
       font-family="roboto"
       font-size="9px"
       id="text10">P_initial</text>
  </g>
  <g
     id="node16"
     class="node"
     transform="matrix(2.08333,0,0,2.08333,8.33332,2460.8919)">
    <title
       id="title11">n15</title>
    <path
       fill="#81c784"
       stroke="#000000"
       stroke-width="3"
       d="m 279.46,-1021.65 c 0,0 -120,0 -120,0 -6,0 -12,6 -12,12 0,0 0,27.3 0,27.3 0,6 6,12 12,12 0,0 120,0 120,0 6,0 12,-6 12,-12 0,0 0,-27.3 0,-27.3 0,-6 -6,-12 -12,-12"
       id="path11" />
    <text
       text-anchor="start"
       x="173.71001"
       y="-990.15002"
       font-family="roboto"
       font-size="18px"
       id="text11">Create Fine</text>
  </g>
  <g
     id="edge30"
     class="edge"
     transform="matrix(2.08333,0,0,2.08333,8.33332,2460.8919)">
    <title
       id="title12">n2-&gt;n15</title>
    <path
       fill="none"
       stroke="#263238"
       stroke-width="4"
       d="m 87.89,-996 c 12.67,0 27.56,0 42.66,0"
       id="path12" />
    <polygon
       fill="#263238"
       stroke="#263238"
       stroke-width="4"
       points="130.22,-999.5 140.22,-996 130.22,-992.5 "
       id="polygon12" />
  </g>
  <g
     id="node4"
     class="node"
     transform="matrix(2.08333,0,0,2.08333,8.33332,2460.8919)">
    <title
       id="title13">n3</title>
    <circle
       fill="#ffe0b2"
       stroke="#000000"
       stroke-width="2"
       cx="1535.23"
       cy="-590"
       id="ellipse13"
       r="52.82" />
    <text
       text-anchor="start"
       x="1502.6"
       y="-605.45001"
       font-family="roboto"
       font-size="9px"
       id="text13">P_({'Appeal to J</text>
    <text
       text-anchor="start"
       x="1501.48"
       y="-593.45001"
       font-family="roboto"
       font-size="9px"
       id="text14">udge'},{'Send fo</text>
    <text
       text-anchor="start"
       x="1505.6"
       y="-581.45001"
       font-family="roboto"
       font-size="9px"
       id="text15">r Credit Collect</text>
    <text
       text-anchor="start"
       x="1523.6"
       y="-569.45001"
       font-family="roboto"
       font-size="9px"
       id="text16">ion'})</text>
  </g>
  <g
     id="node23"
     class="node"
     transform="matrix(2.08333,0,0,2.08333,8.33332,2460.8919)">
    <title
       id="title16">n22</title>
    <path
       fill="#81c784"
       stroke="#000000"
       stroke-width="3"
       d="m 1765.58,-525.9 c 0,0 -120,0 -120,0 -6,0 -12,6 -12,12 0,0 0,49.8 0,49.8 0,6 6,12 12,12 0,0 120,0 120,0 6,0 12,-6 12,-12 0,0 0,-49.8 0,-49.8 0,-6 -6,-12 -12,-12"
       id="path16" />
    <text
       text-anchor="start"
       x="1642.2"
       y="-494.39999"
       font-family="roboto"
       font-size="18px"
       id="text17">Send for Credit</text>
    <text
       text-anchor="start"
       x="1667.33"
       y="-471.89999"
       font-family="roboto"
       font-size="18px"
       id="text18">Collection</text>
  </g>
  <g
     id="edge20"
     class="edge"
     transform="matrix(2.08333,0,0,2.08333,8.33332,2460.8919)">
    <title
       id="title18">n3-&gt;n22</title>
    <path
       fill="none"
       stroke="#263238"
       stroke-width="4"
       d="m 1581.34,-562.93 c 14.09,8.45 30.05,18.02 45.7,27.42"
       id="path18" />
    <polygon
       fill="#263238"
       stroke="#263238"
       stroke-width="4"
       points="1628.7,-538.6 1635.48,-530.46 1625.1,-532.6 "
       id="polygon18" />
  </g>
  <g
     id="node5"
     class="node"
     transform="matrix(2.08333,0,0,2.08333,8.33332,2460.8919)">
    <title
       id="title19">n4</title>
    <circle
       fill="#ffe0b2"
       stroke="#000000"
       stroke-width="2"
       cx="1195.59"
       cy="-701"
       id="ellipse19"
       r="52.290001" />
    <text
       text-anchor="start"
       x="1162.96"
       y="-722.45001"
       font-family="roboto"
       font-size="9px"
       id="text19">P_({'Create Fine</text>
    <text
       text-anchor="start"
       x="1167.84"
       y="-710.45001"
       font-family="roboto"
       font-size="9px"
       id="text20">', 'Insert Fine</text>
    <text
       text-anchor="start"
       x="1165.21"
       y="-698.45001"
       font-family="roboto"
       font-size="9px"
       id="text21">Notification'},{</text>
    <text
       text-anchor="start"
       x="1162.21"
       y="-686.45001"
       font-family="roboto"
       font-size="9px"
       id="text22">'Appeal to Judge</text>
    <text
       text-anchor="start"
       x="1190.34"
       y="-674.45001"
       font-family="roboto"
       font-size="9px"
       id="text23">'})</text>
  </g>
  <g
     id="node22"
     class="node"
     transform="matrix(2.08333,0,0,2.08333,8.33332,2460.8919)">
    <title
       id="title23">n21</title>
    <path
       fill="#81c784"
       stroke="#000000"
       stroke-width="3"
       d="m 1424.88,-726.65 c 0,0 -120,0 -120,0 -6,0 -12,6 -12,12 0,0 0,27.3 0,27.3 0,6 6,12 12,12 0,0 120,0 120,0 6,0 12,-6 12,-12 0,0 0,-27.3 0,-27.3 0,-6 -6,-12 -12,-12"
       id="path23" />
    <text
       text-anchor="start"
       x="1301.13"
       y="-695.15002"
       font-family="roboto"
       font-size="18px"
       id="text24">Appeal to Judge</text>
  </g>
  <g
     id="edge8"
     class="edge"
     transform="matrix(2.08333,0,0,2.08333,8.33332,2460.8919)">
    <title
       id="title24">n4-&gt;n21</title>
    <path
       fill="none"
       stroke="#263238"
       stroke-width="4"
       d="m 1248.6,-701 c 8.62,0 17.76,0 26.98,0"
       id="path24" />
    <polygon
       fill="#263238"
       stroke="#263238"
       stroke-width="4"
       points="1275.57,-704.5 1285.57,-701 1275.57,-697.5 "
       id="polygon24" />
  </g>
  <g
     id="node6"
     class="node"
     transform="matrix(2.08333,0,0,2.08333,8.33332,2460.8919)">
    <title
       id="title25">n5</title>
    <circle
       fill="#ffe0b2"
       stroke="#000000"
       stroke-width="2"
       cx="1535.23"
       cy="-441"
       id="ellipse25"
       r="52.82" />
    <text
       text-anchor="start"
       x="1501.48"
       y="-462.45001"
       font-family="roboto"
       font-size="9px"
       id="text25">P_({'Receive Res</text>
    <text
       text-anchor="start"
       x="1502.98"
       y="-450.45001"
       font-family="roboto"
       font-size="9px"
       id="text26">ult Appeal from</text>
    <text
       text-anchor="start"
       x="1504.1"
       y="-438.45001"
       font-family="roboto"
       font-size="9px"
       id="text27">Prefecture'},{'S</text>
    <text
       text-anchor="start"
       x="1503.73"
       y="-426.45001"
       font-family="roboto"
       font-size="9px"
       id="text28">end for Credit C</text>
    <text
       text-anchor="start"
       x="1512.73"
       y="-414.45001"
       font-family="roboto"
       font-size="9px"
       id="text29">ollection'})</text>
  </g>
  <g
     id="edge29"
     class="edge"
     transform="matrix(2.08333,0,0,2.08333,8.33332,2460.8919)">
    <title
       id="title29">n5-&gt;n22</title>
    <path
       fill="none"
       stroke="#263238"
       stroke-width="4"
       d="m 1586.74,-455.4 c 9.63,-2.75 19.96,-5.69 30.37,-8.66"
       id="path29" />
    <polygon
       fill="#263238"
       stroke="#263238"
       stroke-width="4"
       points="1615.92,-467.36 1626.5,-466.74 1617.84,-460.63 "
       id="polygon29" />
  </g>
  <g
     id="node7"
     class="node"
     transform="matrix(2.08333,0,0,2.08333,8.33332,2460.8919)">
    <title
       id="title30">n6</title>
    <circle
       fill="#ffe0b2"
       stroke="#000000"
       stroke-width="2"
       cx="1535.23"
       cy="-825"
       id="ellipse30"
       r="52.290001" />
    <text
       text-anchor="start"
       x="1501.85"
       y="-846.45001"
       font-family="roboto"
       font-size="9px"
       id="text30">P_({'Notify Resu</text>
    <text
       text-anchor="start"
       x="1504.48"
       y="-834.45001"
       font-family="roboto"
       font-size="9px"
       id="text31">lt Appeal to Off</text>
    <text
       text-anchor="start"
       x="1502.6"
       y="-822.45001"
       font-family="roboto"
       font-size="9px"
       id="text32">ender'},{'Send f</text>
    <text
       text-anchor="start"
       x="1504.48"
       y="-810.45001"
       font-family="roboto"
       font-size="9px"
       id="text33">or Credit Collec</text>
    <text
       text-anchor="start"
       x="1522.1"
       y="-798.45001"
       font-family="roboto"
       font-size="9px"
       id="text34">tion'})</text>
  </g>
  <g
     id="edge16"
     class="edge"
     transform="matrix(2.08333,0,0,2.08333,8.33332,2460.8919)">
    <title
       id="title34">n6-&gt;n22</title>
    <path
       fill="none"
       stroke="#263238"
       stroke-width="4"
       d="m 1552.31,-774.64 c 24.05,74.54 67.97,207.52 81.27,226.64 2.16,3.11 4.53,6.15 7.04,9.1"
       id="path34" />
    <polygon
       fill="#263238"
       stroke="#263238"
       stroke-width="4"
       points="1643.15,-541.33 1647.5,-531.66 1638.07,-536.5 "
       id="polygon34" />
  </g>
  <g
     id="node8"
     class="node"
     transform="matrix(2.08333,0,0,2.08333,8.33332,2460.8919)">
    <title
       id="title35">n7</title>
    <circle
       fill="#ffe0b2"
       stroke="#000000"
       stroke-width="2"
       cx="1195.59"
       cy="-523"
       id="ellipse35"
       r="52.290001" />
    <text
       text-anchor="start"
       x="1164.09"
       y="-544.45001"
       font-family="roboto"
       font-size="9px"
       id="text35">P_({'Insert Fine</text>
    <text
       text-anchor="start"
       x="1165.96"
       y="-532.45001"
       font-family="roboto"
       font-size="9px"
       id="text36">Notification'},</text>
    <text
       text-anchor="start"
       x="1163.71"
       y="-520.45001"
       font-family="roboto"
       font-size="9px"
       id="text37">{'Receive Result</text>
    <text
       text-anchor="start"
       x="1162.21"
       y="-508.45001"
       font-family="roboto"
       font-size="9px"
       id="text38">Appeal from Pre</text>
    <text
       text-anchor="start"
       x="1176.46"
       y="-496.45001"
       font-family="roboto"
       font-size="9px"
       id="text39">fecture'})</text>
  </g>
  <g
     id="node17"
     class="node"
     transform="matrix(2.08333,0,0,2.08333,8.33332,2460.8919)">
    <title
       id="title39">n16</title>
    <path
       fill="#81c784"
       stroke="#000000"
       stroke-width="3"
       d="m 1424.88,-489.15 c 0,0 -120,0 -120,0 -6,0 -12,6 -12,12 0,0 0,72.3 0,72.3 0,6 6,12 12,12 0,0 120,0 120,0 6,0 12,-6 12,-12 0,0 0,-72.3 0,-72.3 0,-6 -6,-12 -12,-12"
       id="path39" />
    <text
       text-anchor="start"
       x="1298.88"
       y="-457.64999"
       font-family="roboto"
       font-size="18px"
       id="text40">Receive Result A</text>
    <text
       text-anchor="start"
       x="1297.75"
       y="-435.14999"
       font-family="roboto"
       font-size="18px"
       id="text41">ppeal from Prefe</text>
    <text
       text-anchor="start"
       x="1344.63"
       y="-412.64999"
       font-family="roboto"
       font-size="18px"
       id="text42">cture</text>
  </g>
  <g
     id="edge6"
     class="edge"
     transform="matrix(2.08333,0,0,2.08333,8.33332,2460.8919)">
    <title
       id="title42">n7-&gt;n16</title>
    <path
       fill="none"
       stroke="#263238"
       stroke-width="4"
       d="m 1243.18,-500.16 c 10.66,5.22 22.32,10.94 34.05,16.69"
       id="path42" />
    <polygon
       fill="#263238"
       stroke="#263238"
       stroke-width="4"
       points="1278.65,-486.67 1286.09,-479.13 1275.57,-480.39 "
       id="polygon42" />
  </g>
  <g
     id="node9"
     class="node"
     transform="matrix(2.08333,0,0,2.08333,8.33332,2460.8919)">
    <title
       id="title43">n8</title>
    <circle
       fill="#ffe0b2"
       stroke="#000000"
       stroke-width="2"
       cx="387.69"
       cy="-784"
       id="ellipse43"
       r="51.23" />
    <text
       text-anchor="start"
       x="355.06"
       y="-799.45001"
       font-family="roboto"
       font-size="9px"
       id="text43">P_({'Create Fine</text>
    <text
       text-anchor="start"
       x="357.69"
       y="-787.45001"
       font-family="roboto"
       font-size="9px"
       id="text44">'},{'Insert Date</text>
    <text
       text-anchor="start"
       x="355.44"
       y="-775.45001"
       font-family="roboto"
       font-size="9px"
       id="text45">Appeal to Prefe</text>
    <text
       text-anchor="start"
       x="372.31"
       y="-763.45001"
       font-family="roboto"
       font-size="9px"
       id="text46">cture'})</text>
  </g>
  <g
     id="node20"
     class="node"
     transform="matrix(2.08333,0,0,2.08333,8.33332,2460.8919)">
    <title
       id="title46">n19</title>
    <path
       fill="#81c784"
       stroke="#000000"
       stroke-width="3"
       d="m 781.92,-382.9 c 0,0 -120,0 -120,0 -6,0 -12,6 -12,12 0,0 0,49.8 0,49.8 0,6 6,12 12,12 0,0 120,0 120,0 6,0 12,-6 12,-12 0,0 0,-49.8 0,-49.8 0,-6 -6,-12 -12,-12"
       id="path46" />
    <text
       text-anchor="start"
       x="653.66998"
       y="-351.39999"
       font-family="roboto"
       font-size="18px"
       id="text47">Insert Date Appe</text>
    <text
       text-anchor="start"
       x="660.03998"
       y="-328.89999"
       font-family="roboto"
       font-size="18px"
       id="text48">al to Prefecture</text>
  </g>
  <g
     id="edge10"
     class="edge"
     transform="matrix(2.08333,0,0,2.08333,8.33332,2460.8919)">
    <title
       id="title48">n8-&gt;n19</title>
    <path
       fill="none"
       stroke="#263238"
       stroke-width="4"
       d="m 419.65,-743.19 c 60.89,80.28 196.08,258.52 262.68,346.31"
       id="path48" />
    <polygon
       fill="#263238"
       stroke="#263238"
       stroke-width="4"
       points="684.92,-399.26 688.17,-389.18 679.34,-395.03 "
       id="polygon48" />
  </g>
  <g
     id="node10"
     class="node"
     transform="matrix(2.08333,0,0,2.08333,8.33332,2460.8919)">
    <title
       id="title49">n9</title>
    <circle
       fill="#ffe0b2"
       stroke="#000000"
       stroke-width="2"
       cx="1535.23"
       cy="-205"
       id="ellipse49"
       r="53.349998" />
    <text
       text-anchor="start"
       x="1501.1"
       y="-220.45"
       font-family="roboto"
       font-size="9px"
       id="text49">P_({'Add penalty</text>
    <text
       text-anchor="start"
       x="1504.48"
       y="-208.45"
       font-family="roboto"
       font-size="9px"
       id="text50">'},{'Send for Cr</text>
    <text
       text-anchor="start"
       x="1505.23"
       y="-196.45"
       font-family="roboto"
       font-size="9px"
       id="text51">edit Collection'</text>
    <text
       text-anchor="start"
       x="1531.1"
       y="-184.45"
       font-family="roboto"
       font-size="9px"
       id="text52">})</text>
  </g>
  <g
     id="edge23"
     class="edge"
     transform="matrix(2.08333,0,0,2.08333,8.33332,2460.8919)">
    <title
       id="title52">n9-&gt;n22</title>
    <path
       fill="none"
       stroke="#263238"
       stroke-width="4"
       d="m 1563.65,-251.26 c 30.28,-51.08 78.89,-133.09 110.37,-186.19"
       id="path52" />
    <polygon
       fill="#263238"
       stroke="#263238"
       stroke-width="4"
       points="1670.83,-438.92 1678.94,-445.74 1676.85,-435.35 "
       id="polygon52" />
  </g>
  <g
     id="node11"
     class="node"
     transform="matrix(2.08333,0,0,2.08333,8.33332,2460.8919)">
    <title
       id="title53">n10</title>
    <circle
       fill="#ef9a9a"
       stroke="#000000"
       stroke-width="2"
       cx="1858.58"
       cy="-606"
       id="ellipse53"
       r="36" />
    <text
       text-anchor="start"
       x="1845.45"
       y="-603.45001"
       font-family="roboto"
       font-size="9px"
       id="text53">P_sink</text>
  </g>
  <g
     id="node12"
     class="node"
     transform="matrix(2.08333,0,0,2.08333,8.33332,2460.8919)">
    <title
       id="title54">n11</title>
    <circle
       fill="#ffe0b2"
       stroke="#000000"
       stroke-width="2"
       cx="387.69"
       cy="-930"
       id="ellipse54"
       r="45.279999" />
    <text
       text-anchor="start"
       x="355.06"
       y="-939.45001"
       font-family="roboto"
       font-size="9px"
       id="text54">P_({'Create Fine</text>
    <text
       text-anchor="start"
       x="356.19"
       y="-927.45001"
       font-family="roboto"
       font-size="9px"
       id="text55">'},{'Send Fine'}</text>
    <text
       text-anchor="start"
       x="385.81"
       y="-915.45001"
       font-family="roboto"
       font-size="9px"
       id="text56">)</text>
  </g>
  <g
     id="node24"
     class="node"
     transform="matrix(2.08333,0,0,2.08333,8.33332,2460.8919)">
    <title
       id="title56">n23</title>
    <path
       fill="#81c784"
       stroke="#000000"
       stroke-width="3"
       d="m 615.92,-955.65 c 0,0 -120,0 -120,0 -6,0 -12,6 -12,12 0,0 0,27.3 0,27.3 0,6 6,12 12,12 0,0 120,0 120,0 6,0 12,-6 12,-12 0,0 0,-27.3 0,-27.3 0,-6 -6,-12 -12,-12"
       id="path56" />
    <text
       text-anchor="start"
       x="516.91998"
       y="-924.15002"
       font-family="roboto"
       font-size="18px"
       id="text57">Send Fine</text>
  </g>
  <g
     id="edge22"
     class="edge"
     transform="matrix(2.08333,0,0,2.08333,8.33332,2460.8919)">
    <title
       id="title57">n11-&gt;n23</title>
    <path
       fill="none"
       stroke="#263238"
       stroke-width="4"
       d="m 433.67,-930 c 10.38,0 21.77,0 33.29,0"
       id="path57" />
    <polygon
       fill="#263238"
       stroke="#263238"
       stroke-width="4"
       points="466.6,-933.5 476.6,-930 466.6,-926.5 "
       id="polygon57" />
  </g>
  <g
     id="node13"
     class="node"
     transform="matrix(2.08333,0,0,2.08333,8.33332,2460.8919)">
    <title
       id="title58">n12</title>
    <circle
       fill="#ffe0b2"
       stroke="#000000"
       stroke-width="2"
       cx="51.23"
       cy="-1126"
       id="ellipse58"
       r="51.23" />
    <text
       text-anchor="start"
       x="18.6"
       y="-1141.45"
       font-family="roboto"
       font-size="9px"
       id="text58">P_({'Create Fine</text>
    <text
       text-anchor="start"
       x="20.48"
       y="-1129.45"
       font-family="roboto"
       font-size="9px"
       id="text59">'},{'Send for Cr</text>
    <text
       text-anchor="start"
       x="21.23"
       y="-1117.45"
       font-family="roboto"
       font-size="9px"
       id="text60">edit Collection'</text>
    <text
       text-anchor="start"
       x="47.099998"
       y="-1105.45"
       font-family="roboto"
       font-size="9px"
       id="text61">})</text>
  </g>
  <g
     id="node14"
     class="node"
     transform="matrix(2.08333,0,0,2.08333,8.33332,2460.8919)">
    <title
       id="title61">n13</title>
    <path
       fill="#81c784"
       stroke="#000000"
       stroke-width="3"
       d="m 279.46,-1151.65 c 0,0 -120,0 -120,0 -6,0 -12,6 -12,12 0,0 0,27.3 0,27.3 0,6 6,12 12,12 0,0 120,0 120,0 6,0 12,-6 12,-12 0,0 0,-27.3 0,-27.3 0,-6 -6,-12 -12,-12"
       id="path61" />
    <text
       text-anchor="start"
       x="185.33"
       y="-1120.15"
       font-family="roboto"
       font-size="18px"
       id="text62">Payment</text>
  </g>
  <g
     id="edge17"
     class="edge"
     transform="matrix(2.08333,0,0,2.08333,8.33332,2460.8919)">
    <title
       id="title62">n12-&gt;n13</title>
    <path
       fill="none"
       stroke="#263238"
       stroke-width="4"
       d="m 101.21,-1111.15 c 9.23,0.73 19.15,1.15 29.17,1.25"
       id="path62" />
    <polygon
       fill="#263238"
       stroke="#263238"
       stroke-width="4"
       points="130.04,-1113.4 140.06,-1109.96 130.08,-1106.4 "
       id="polygon62" />
  </g>
  <g
     id="edge9"
     class="edge"
     transform="matrix(2.08333,0,0,2.08333,8.33332,2460.8919)">
    <title
       id="title63">n13-&gt;n12</title>
    <path
       fill="none"
       stroke="#263238"
       stroke-width="4"
       d="m 146.12,-1142 c -9.72,-0.22 -19.64,-0.14 -29.22,0.23"
       id="path63" />
    <polygon
       fill="#263238"
       stroke="#263238"
       stroke-width="4"
       points="117.44,-1138.29 107.25,-1141.2 117.03,-1145.28 "
       id="polygon63" />
  </g>
  <g
     id="node15"
     class="node"
     transform="matrix(2.08333,0,0,2.08333,8.33332,2460.8919)">
    <title
       id="title64">n14</title>
    <path
       fill="#81c784"
       stroke="#000000"
       stroke-width="3"
       d="m 1424.88,-908.9 c 0,0 -120,0 -120,0 -6,0 -12,6 -12,12 0,0 0,49.8 0,49.8 0,6 6,12 12,12 0,0 120,0 120,0 6,0 12,-6 12,-12 0,0 0,-49.8 0,-49.8 0,-6 -6,-12 -12,-12"
       id="path64" />
    <text
       text-anchor="start"
       x="1300.75"
       y="-877.40002"
       font-family="roboto"
       font-size="18px"
       id="text64">Notify Result Ap</text>
    <text
       text-anchor="start"
       x="1299.63"
       y="-854.90002"
       font-family="roboto"
       font-size="18px"
       id="text65">peal to Offender</text>
  </g>
  <g
     id="edge27"
     class="edge"
     transform="matrix(2.08333,0,0,2.08333,8.33332,2460.8919)">
    <title
       id="title65">n14-&gt;n6</title>
    <path
       fill="none"
       stroke="#263238"
       stroke-width="4"
       d="m 1438.25,-851.8 c 10.18,2.85 20.59,5.75 30.62,8.55"
       id="path65" />
    <polygon
       fill="#263238"
       stroke="#263238"
       stroke-width="4"
       points="1469.72,-846.64 1478.41,-840.58 1467.84,-839.9 "
       id="polygon65" />
  </g>
  <g
     id="edge33"
     class="edge"
     transform="matrix(2.08333,0,0,2.08333,8.33332,2460.8919)">
    <title
       id="title66">n14-&gt;n10</title>
    <path
       fill="none"
       stroke="#263238"
       stroke-width="4"
       d="m 1425.77,-910.28 c 31.11,-16.34 70.47,-31.72 108.46,-31.72 0,0 0,0 172.35,0 122.62,0 146.27,188.48 150.41,283.11"
       id="path66" />
    <polygon
       fill="#263238"
       stroke="#263238"
       stroke-width="4"
       points="1860.49,-659.08 1857.33,-648.97 1853.49,-658.84 "
       id="polygon66" />
  </g>
  <g
     id="edge26"
     class="edge"
     transform="matrix(2.08333,0,0,2.08333,8.33332,2460.8919)">
    <title
       id="title67">n15-&gt;n4</title>
    <path
       fill="none"
       stroke="#263238"
       stroke-width="4"
       d="m 290.57,-1023.11 c 29.26,-9.06 63.88,-16.89 96.12,-16.89 0,0 0,0 640.6,0 119.37,0 153.57,171.11 163.36,270.19"
       id="path67" />
    <polygon
       fill="#263238"
       stroke="#263238"
       stroke-width="4"
       points="1194.13,-770.27 1191.53,-760 1187.15,-769.65 "
       id="polygon67" />
  </g>
  <g
     id="edge7"
     class="edge"
     transform="matrix(2.08333,0,0,2.08333,8.33332,2460.8919)">
    <title
       id="title68">n15-&gt;n8</title>
    <path
       fill="none"
       stroke="#263238"
       stroke-width="4"
       d="m 241.51,-969.15 c 25.97,33.12 70.72,90.19 103.69,132.24"
       id="path68" />
    <polygon
       fill="#263238"
       stroke="#263238"
       stroke-width="4"
       points="347.87,-839.18 351.28,-829.15 342.36,-834.86 "
       id="polygon68" />
  </g>
  <g
     id="edge28"
     class="edge"
     transform="matrix(2.08333,0,0,2.08333,8.33332,2460.8919)">
    <title
       id="title69">n15-&gt;n10</title>
    <path
       fill="none"
       stroke="#263238"
       stroke-width="4"
       d="m 246.34,-1023.14 c 37.77,-38.37 107.1,-103.86 140.35,-103.86 0,0 0,0 1319.89,0 43.08,0 49.56,28.63 71,66 39.02,68.03 65.11,297.67 75.25,402.29"
       id="path69" />
    <polygon
       fill="#263238"
       stroke="#263238"
       stroke-width="4"
       points="1856.32,-659.06 1853.78,-648.77 1849.35,-658.39 "
       id="polygon69" />
  </g>
  <g
     id="edge19"
     class="edge"
     transform="matrix(2.08333,0,0,2.08333,8.33332,2460.8919)">
    <title
       id="title70">n15-&gt;n11</title>
    <path
       fill="none"
       stroke="#263238"
       stroke-width="4"
       d="m 288.55,-968.96 c 13.81,5.48 28.2,11.19 41.56,16.49"
       id="path70" />
    <polygon
       fill="#263238"
       stroke="#263238"
       stroke-width="4"
       points="331.04,-955.86 339.05,-948.92 328.46,-949.35 "
       id="polygon70" />
  </g>
  <g
     id="edge3"
     class="edge"
     transform="matrix(2.08333,0,0,2.08333,8.33332,2460.8919)">
    <title
       id="title71">n16-&gt;n5</title>
    <path
       fill="none"
       stroke="#263238"
       stroke-width="4"
       d="m 1438.25,-441 c 9.08,0 18.34,0 27.36,0"
       id="path71" />
    <polygon
       fill="#263238"
       stroke="#263238"
       stroke-width="4"
       points="1465.43,-444.5 1475.43,-441 1465.43,-437.5 "
       id="polygon71" />
  </g>
  <g
     id="edge4"
     class="edge"
     transform="matrix(2.08333,0,0,2.08333,8.33332,2460.8919)">
    <title
       id="title72">n16-&gt;n10</title>
    <path
       fill="none"
       stroke="#263238"
       stroke-width="4"
       d="m 1406.14,-391.64 c 31.15,32.33 77.4,68.64 128.09,68.64 0,0 0,0 172.35,0 103.28,0 136.17,-148.55 146.45,-230.4"
       id="path72" />
    <polygon
       fill="#263238"
       stroke="#263238"
       stroke-width="4"
       points="1849.55,-553.74 1854.16,-563.28 1856.5,-552.94 "
       id="polygon72" />
  </g>
  <g
     id="edge24"
     class="edge"
     transform="matrix(2.08333,0,0,2.08333,8.33332,2460.8919)">
    <title
       id="title73">n17-&gt;n9</title>
    <path
       fill="none"
       stroke="#263238"
       stroke-width="4"
       d="m 1438.25,-205 c 8.85,0 17.89,0 26.7,0"
       id="path73" />
    <polygon
       fill="#263238"
       stroke="#263238"
       stroke-width="4"
       points="1464.93,-208.5 1474.93,-205 1464.93,-201.5 "
       id="polygon73" />
  </g>
  <g
     id="edge2"
     class="edge"
     transform="matrix(2.08333,0,0,2.08333,8.33332,2460.8919)">
    <title
       id="title74">n17-&gt;n10</title>
    <path
       fill="none"
       stroke="#263238"
       stroke-width="4"
       d="m 1386.27,-177.93 c 28.8,34.84 84.96,90.93 147.96,90.93 0,0 0,0 172.35,0 96.51,0 135.42,-335.09 146.98,-466.77"
       id="path74" />
    <polygon
       fill="#263238"
       stroke="#263238"
       stroke-width="4"
       points="1850.05,-553.8 1854.38,-563.47 1857.02,-553.21 "
       id="polygon74" />
  </g>
  <g
     id="node19"
     class="node"
     transform="matrix(2.08333,0,0,2.08333,8.33332,2460.8919)">
    <title
       id="title75">n18</title>
    <path
       fill="#81c784"
       stroke="#000000"
       stroke-width="3"
       d="m 1765.58,-642.9 c 0,0 -120,0 -120,0 -6,0 -12,6 -12,12 0,0 0,49.8 0,49.8 0,6 6,12 12,12 0,0 120,0 120,0 6,0 12,-6 12,-12 0,0 0,-49.8 0,-49.8 0,-6 -6,-12 -12,-12"
       id="path75" />
    <text
       text-anchor="start"
       x="1637.7"
       y="-611.40002"
       font-family="roboto"
       font-size="18px"
       id="text75">Send Appeal to P</text>
    <text
       text-anchor="start"
       x="1669.2"
       y="-588.90002"
       font-family="roboto"
       font-size="18px"
       id="text76">refecture</text>
  </g>
  <g
     id="edge15"
     class="edge"
     transform="matrix(2.08333,0,0,2.08333,8.33332,2460.8919)">
    <title
       id="title76">n18-&gt;n10</title>
    <path
       fill="none"
       stroke="#263238"
       stroke-width="4"
       d="m 1778.98,-606 c 9.04,0 18.14,0 26.78,0"
       id="path76" />
    <polygon
       fill="#263238"
       stroke="#263238"
       stroke-width="4"
       points="1805.62,-609.5 1815.62,-606 1805.62,-602.5 "
       id="polygon76" />
  </g>
  <g
     id="edge25"
     class="edge"
     transform="matrix(2.08333,0,0,2.08333,8.33332,2460.8919)">
    <title
       id="title77">n19-&gt;n10</title>
    <path
       fill="none"
       stroke="#263238"
       stroke-width="4"
       d="M 727.71,-307.65 C 741.33,-217.56 788.95,0 931.29,0 c 0,0 0,0 775.29,0 39.91,0 50.89,-20.52 71,-55 49.12,-84.24 70.51,-377.94 77.36,-498.62"
       id="path77" />
    <polygon
       fill="#263238"
       stroke="#263238"
       stroke-width="4"
       points="1851.44,-553.62 1855.48,-563.42 1858.43,-553.24 "
       id="polygon77" />
  </g>
  <g
     id="edge21"
     class="edge"
     transform="matrix(2.08333,0,0,2.08333,8.33332,2460.8919)">
    <title
       id="title78">n20-&gt;n0</title>
    <path
       fill="none"
       stroke="#263238"
       stroke-width="4"
       d="m 1053.25,-543.83 c 28.82,42.37 75.45,110.94 107.2,157.64"
       id="path78" />
    <polygon
       fill="#263238"
       stroke="#263238"
       stroke-width="4"
       points="1163.26,-388.29 1165.99,-378.05 1157.47,-384.36 "
       id="polygon78" />
  </g>
  <g
     id="edge13"
     class="edge"
     transform="matrix(2.08333,0,0,2.08333,8.33332,2460.8919)">
    <title
       id="title79">n20-&gt;n4</title>
    <path
       fill="none"
       stroke="#263238"
       stroke-width="4"
       d="m 1081.15,-620.31 c 18.53,-13.18 39.31,-27.97 57.98,-41.24"
       id="path79" />
    <polygon
       fill="#263238"
       stroke="#263238"
       stroke-width="4"
       points="1136.85,-664.23 1147.03,-667.17 1140.91,-658.52 "
       id="polygon79" />
  </g>
  <g
     id="edge14"
     class="edge"
     transform="matrix(2.08333,0,0,2.08333,8.33332,2460.8919)">
    <title
       id="title80">n20-&gt;n7</title>
    <path
       fill="none"
       stroke="#263238"
       stroke-width="4"
       d="m 1099.7,-556.46 c 10.32,3.63 20.87,7.36 31.01,10.93"
       id="path80" />
    <polygon
       fill="#263238"
       stroke="#263238"
       stroke-width="4"
       points="1131.73,-548.88 1140,-542.25 1129.4,-542.28 "
       id="polygon80" />
  </g>
  <g
     id="edge5"
     class="edge"
     transform="matrix(2.08333,0,0,2.08333,8.33332,2460.8919)">
    <title
       id="title81">n21-&gt;n3</title>
    <path
       fill="none"
       stroke="#263238"
       stroke-width="4"
       d="m 1406.63,-674.13 c 21.07,13.89 47.13,31.08 70.2,46.29"
       id="path81" />
    <polygon
       fill="#263238"
       stroke="#263238"
       stroke-width="4"
       points="1478.54,-630.91 1484.96,-622.49 1474.68,-625.07 "
       id="polygon81" />
  </g>
  <g
     id="edge18"
     class="edge"
     transform="matrix(2.08333,0,0,2.08333,8.33332,2460.8919)">
    <title
       id="title82">n21-&gt;n10</title>
    <path
       fill="none"
       stroke="#263238"
       stroke-width="4"
       d="m 1438.36,-705.33 c 29.7,-1.44 64.42,-2.67 95.87,-2.67 0,0 0,0 172.35,0 46.57,0 89.51,33.73 117.6,62.4"
       id="path82" />
    <polygon
       fill="#263238"
       stroke="#263238"
       stroke-width="4"
       points="1826.49,-648.25 1830.78,-638.56 1821.39,-643.47 "
       id="polygon82" />
  </g>
  <g
     id="edge31"
     class="edge"
     transform="matrix(2.08333,0,0,2.08333,8.33332,2460.8919)">
    <title
       id="title83">n22-&gt;n10</title>
    <path
       fill="none"
       stroke="#263238"
       stroke-width="4"
       d="m 1756.02,-527.31 c 19.61,-15.2 41.9,-32.47 60.59,-46.95"
       id="path83" />
    <polygon
       fill="#263238"
       stroke="#263238"
       stroke-width="4"
       points="1814.36,-576.94 1824.41,-580.3 1818.65,-571.41 "
       id="polygon83" />
  </g>
  <g
     id="edge12"
     class="edge"
     transform="matrix(2.08333,0,0,2.08333,8.33332,2460.8919)">
    <title
       id="title84">n23-&gt;n1</title>
    <path
       fill="none"
       stroke="#263238"
       stroke-width="4"
       d="m 593.67,-902.98 c 54.41,40 156.55,115.09 217.79,160.11"
       id="path84" />
    <polygon
       fill="#263238"
       stroke="#263238"
       stroke-width="4"
       points="813.39,-745.8 819.37,-737.05 809.24,-740.16 "
       id="polygon84" />
  </g>
  <g
     id="edge11"
     class="edge"
     transform="matrix(2.08333,0,0,2.08333,8.33332,2460.8919)">
    <title
       id="title85">n23-&gt;n10</title>
    <path
       fill="none"
       stroke="#263238"
       stroke-width="4"
       d="M 629.14,-938.53 C 690.8,-945.08 781.9,-953 861.61,-953 c 0,0 0,0 165.68,0 227.83,0 279.12,-76 506.94,-76 0,0 0,0 172.35,0 39.91,0 46.61,23.4 71,55 37.75,48.92 63.37,226.24 74.19,315.66"
       id="path85" />
    <polygon
       fill="#263238"
       stroke="#263238"
       stroke-width="4"
       points="1855.24,-658.81 1852.93,-648.47 1848.28,-657.99 "
       id="polygon85" />
  </g>
</svg>
