<?xml version="1.0" encoding="UTF-8" standalone="no"?>
<!-- Generated by graphviz version 12.1.0 (20240811.2233)
 -->

<!-- Pages: 1 -->

<svg
   width="8449.9863pt"
   height="2933.8423pt"
   viewBox="0 0 4056.2434 1408.1618"
   version="1.1"
   id="svg52"
   sodipodi:docname="agrawal_code_ex_2b.svg"
   inkscape:version="1.3 (0e150ed6c4, 2023-07-21)"
   xmlns:inkscape="http://www.inkscape.org/namespaces/inkscape"
   xmlns:sodipodi="http://sodipodi.sourceforge.net/DTD/sodipodi-0.dtd"
   xmlns="http://www.w3.org/2000/svg"
   xmlns:svg="http://www.w3.org/2000/svg">
  <defs
     id="defs52" />
  <sodipodi:namedview
     id="namedview52"
     pagecolor="#ffffff"
     bordercolor="#111111"
     borderopacity="1"
     inkscape:showpageshadow="0"
     inkscape:pageopacity="0"
     inkscape:pagecheckerboard="1"
     inkscape:deskcolor="#d1d1d1"
     inkscape:document-units="pt"
     inkscape:zoom="0.080804732"
     inkscape:cx="-903.41244"
     inkscape:cy="3619.8375"
     inkscape:window-width="3440"
     inkscape:window-height="1417"
     inkscape:window-x="-8"
     inkscape:window-y="-8"
     inkscape:window-maximized="1"
     inkscape:current-layer="svg52" />
  <g
     id="g52"
     transform="translate(0,-14.624398)">
    <g
       id="node1"
       class="node"
       transform="matrix(2.08333,0,0,2.08333,8.33332,1414.5811)">
      <title
         id="title1">n0</title>
      <circle
         fill="#008000"
         stroke="#000000"
         stroke-width="8"
         cx="72"
         cy="-475"
         id="ellipse1"
         r="72" />
      <text
         text-anchor="start"
         x="53.619999"
         y="-469.14999"
         font-family="roboto"
         font-size="18px"
         id="text1">start</text>
    </g>
    <g
       id="node11"
       class="node"
       transform="matrix(2.08333,0,0,2.08333,8.33332,1414.5811)">
      <title
         id="title2">d0</title>
      <text
         text-anchor="middle"
         x="265"
         y="-527.15002"
         font-family="roboto"
         font-size="18px"
         id="text2">4</text>
    </g>
    <g
       id="edge1"
       class="edge"
       transform="matrix(2.08333,0,0,2.08333,8.33332,1414.5811)">
      <title
         id="title3">n0-&gt;d0:w</title>
      <path
         fill="none"
         stroke="#000000"
         stroke-width="4"
         d="m 139.88,-508.4 c 28.33,-11.54 62.39,-22.12 95.47,-24.22"
         id="path3" />
      <circle
         fill="none"
         stroke="#000000"
         stroke-width="4"
         cx="241"
         cy="-532.81"
         id="ellipse3"
         r="4" />
    </g>
    <g
       id="node12"
       class="node"
       transform="matrix(2.08333,0,0,2.08333,8.33332,1414.5811)">
      <title
         id="title4">d1</title>
      <text
         text-anchor="middle"
         x="207"
         y="-401.14999"
         font-family="roboto"
         font-size="18px"
         id="text4">1</text>
    </g>
    <g
       id="edge3"
       class="edge"
       transform="matrix(2.08333,0,0,2.08333,8.33332,1414.5811)">
      <title
         id="title5">n0-&gt;d1:w</title>
      <path
         fill="none"
         stroke="#000000"
         stroke-width="4"
         d="m 129.87,-426.12 c 14.44,8.78 30.66,15.92 47.44,18.28"
         id="path5" />
      <circle
         fill="none"
         stroke="#000000"
         stroke-width="4"
         cx="183.02"
         cy="-407.42999"
         id="ellipse5"
         r="4" />
    </g>
    <g
       id="node2"
       class="node"
       transform="matrix(2.08333,0,0,2.08333,8.33332,1414.5811)">
      <title
         id="title6">n1</title>
      <circle
         fill="#d3d3d3"
         stroke="#000000"
         stroke-width="8"
         cx="377"
         cy="-398"
         id="ellipse6"
         r="72" />
      <text
         text-anchor="start"
         x="371"
         y="-392.14999"
         font-family="roboto"
         font-size="18px"
         id="text6">H</text>
    </g>
    <g
       id="node13"
       class="node"
       transform="matrix(2.08333,0,0,2.08333,8.33332,1414.5811)">
      <title
         id="title7">d2</title>
      <text
         text-anchor="middle"
         x="512"
         y="-424.14999"
         font-family="roboto"
         font-size="18px"
         id="text7">1</text>
    </g>
    <g
       id="edge5"
       class="edge"
       transform="matrix(2.08333,0,0,2.08333,8.33332,1414.5811)">
      <title
         id="title8">n1-&gt;d2:w</title>
      <path
         fill="none"
         stroke="#000000"
         stroke-width="4"
         d="m 448.32,-423.83 c 11.05,-2.7 22.57,-4.79 33.93,-5.69"
         id="path8" />
      <circle
         fill="none"
         stroke="#000000"
         stroke-width="4"
         cx="488.01001"
         cy="-429.75"
         id="ellipse8"
         r="4" />
    </g>
    <g
       id="node3"
       class="node"
       transform="matrix(2.08333,0,0,2.08333,8.33332,1414.5811)">
      <title
         id="title9">n2</title>
      <circle
         fill="#d3d3d3"
         stroke="#000000"
         stroke-width="8"
         cx="647"
         cy="-485"
         id="ellipse9"
         r="72" />
      <text
         text-anchor="start"
         x="641.75"
         y="-479.14999"
         font-family="roboto"
         font-size="18px"
         id="text9">A</text>
    </g>
    <g
       id="node14"
       class="node"
       transform="matrix(2.08333,0,0,2.08333,8.33332,1414.5811)">
      <title
         id="title10">d3</title>
      <text
         text-anchor="middle"
         x="840"
         y="-651.15002"
         font-family="roboto"
         font-size="18px"
         id="text10">1</text>
    </g>
    <g
       id="edge7"
       class="edge"
       transform="matrix(2.08333,0,0,2.08333,8.33332,1414.5811)">
      <title
         id="title11">n2-&gt;d3:w</title>
      <path
         fill="none"
         stroke="#000000"
         stroke-width="4"
         d="m 681.81,-551.99 c 27.74,-45.18 71.63,-97.73 128.3,-104.32"
         id="path11" />
      <circle
         fill="none"
         stroke="#000000"
         stroke-width="4"
         cx="816.01001"
         cy="-656.65002"
         id="ellipse11"
         r="4" />
    </g>
    <g
       id="node15"
       class="node"
       transform="matrix(2.08333,0,0,2.08333,8.33332,1414.5811)">
      <title
         id="title12">d4</title>
      <text
         text-anchor="middle"
         x="1064"
         y="-526.15002"
         font-family="roboto"
         font-size="18px"
         id="text12">3</text>
    </g>
    <g
       id="edge9"
       class="edge"
       transform="matrix(2.08333,0,0,2.08333,8.33332,1414.5811)">
      <title
         id="title13">n2-&gt;d4:w</title>
      <path
         fill="none"
         stroke="#000000"
         stroke-width="4"
         d="m 715.1,-518.53 c 20.62,-7.6 43.74,-13.47 65.9,-13.47 0,0 0,0 60,0 87.02,0 111.7,0 193.12,0"
         id="path13" />
      <circle
         fill="none"
         stroke="#000000"
         stroke-width="4"
         cx="1040"
         cy="-532"
         id="ellipse13"
         r="4" />
    </g>
    <g
       id="node16"
       class="node"
       transform="matrix(2.08333,0,0,2.08333,8.33332,1414.5811)">
      <title
         id="title14">d5</title>
      <text
         text-anchor="middle"
         x="1180"
         y="-155.14999"
         font-family="roboto"
         font-size="18px"
         id="text14">2</text>
    </g>
    <g
       id="edge11"
       class="edge"
       transform="matrix(2.08333,0,0,2.08333,8.33332,1414.5811)">
      <title
         id="title15">n2-&gt;d5:w</title>
      <path
         fill="none"
         stroke="#000000"
         stroke-width="4"
         d="M 659.89,-410.36 C 675.19,-344.2 708.95,-258 781,-258 c 0,0 0,0 284,0 56.68,0 39.11,83.84 85.35,95.63"
         id="path15" />
      <circle
         fill="none"
         stroke="#000000"
         stroke-width="4"
         cx="1156.04"
         cy="-161.7"
         id="ellipse15"
         r="4" />
    </g>
    <g
       id="node17"
       class="node"
       transform="matrix(2.08333,0,0,2.08333,8.33332,1414.5811)">
      <title
         id="title16">d6</title>
      <text
         text-anchor="middle"
         x="782"
         y="-407.14999"
         font-family="roboto"
         font-size="18px"
         id="text16">2</text>
    </g>
    <g
       id="edge13"
       class="edge"
       transform="matrix(2.08333,0,0,2.08333,8.33332,1414.5811)">
      <title
         id="title17">n2-&gt;d6:w</title>
      <path
         fill="none"
         stroke="#000000"
         stroke-width="4"
         d="m 703.27,-434.02 c 14.73,9.65 31.43,17.55 48.87,20.13"
         id="path17" />
      <circle
         fill="none"
         stroke="#000000"
         stroke-width="4"
         cx="758.02002"
         cy="-413.45001"
         id="ellipse17"
         r="4" />
    </g>
    <g
       id="node4"
       class="node"
       transform="matrix(2.08333,0,0,2.08333,8.33332,1414.5811)">
      <title
         id="title18">n3</title>
      <circle
         fill="#d3d3d3"
         stroke="#000000"
         stroke-width="8"
         cx="952"
         cy="-395"
         id="ellipse18"
         r="72" />
      <text
         text-anchor="start"
         x="947.12"
         y="-389.14999"
         font-family="roboto"
         font-size="18px"
         id="text18">E</text>
    </g>
    <g
       id="node18"
       class="node"
       transform="matrix(2.08333,0,0,2.08333,8.33332,1414.5811)">
      <title
         id="title19">d7</title>
      <text
         text-anchor="middle"
         x="1122"
         y="-342.14999"
         font-family="roboto"
         font-size="18px"
         id="text19">2</text>
    </g>
    <g
       id="edge15"
       class="edge"
       transform="matrix(2.08333,0,0,2.08333,8.33332,1414.5811)">
      <title
         id="title20">n3-&gt;d7:w</title>
      <path
         fill="none"
         stroke="#000000"
         stroke-width="4"
         d="m 1021.16,-364.31 c 21.88,7.67 46.75,14.2 71,15.89"
         id="path20" />
      <circle
         fill="none"
         stroke="#000000"
         stroke-width="4"
         cx="1098"
         cy="-348.20999"
         id="ellipse20"
         r="4" />
    </g>
    <g
       id="node5"
       class="node"
       transform="matrix(2.08333,0,0,2.08333,8.33332,1414.5811)">
      <title
         id="title21">n4</title>
      <circle
         fill="#d3d3d3"
         stroke="#000000"
         stroke-width="8"
         cx="1292"
         cy="-346"
         id="ellipse21"
         r="72" />
      <text
         text-anchor="start"
         x="1287.12"
         y="-340.14999"
         font-family="roboto"
         font-size="18px"
         id="text21">F</text>
    </g>
    <g
       id="node19"
       class="node"
       transform="matrix(2.08333,0,0,2.08333,8.33332,1414.5811)">
      <title
         id="title22">d8</title>
      <text
         text-anchor="middle"
         x="1427"
         y="-340.14999"
         font-family="roboto"
         font-size="18px"
         id="text22">1</text>
    </g>
    <g
       id="edge17"
       class="edge"
       transform="matrix(2.08333,0,0,2.08333,8.33332,1414.5811)">
      <title
         id="title23">n4-&gt;d8:w</title>
      <path
         fill="none"
         stroke="#000000"
         stroke-width="4"
         d="m 1367.88,-346 c 9.73,0 19.69,0 29.41,0"
         id="path23" />
      <circle
         fill="none"
         stroke="#000000"
         stroke-width="4"
         cx="1403"
         cy="-346"
         id="ellipse23"
         r="4" />
    </g>
    <g
       id="node20"
       class="node"
       transform="matrix(2.08333,0,0,2.08333,8.33332,1414.5811)">
      <title
         id="title24">d9</title>
      <text
         text-anchor="middle"
         x="1485"
         y="-249.14999"
         font-family="roboto"
         font-size="18px"
         id="text24">4</text>
    </g>
    <g
       id="edge19"
       class="edge"
       transform="matrix(2.08333,0,0,2.08333,8.33332,1414.5811)">
      <title
         id="title25">n4-&gt;d9:w</title>
      <path
         fill="none"
         stroke="#000000"
         stroke-width="4"
         d="m 1350.75,-298.1 c 29.16,19.87 66.36,39.12 104.42,42.56"
         id="path25" />
      <circle
         fill="none"
         stroke="#000000"
         stroke-width="4"
         cx="1461.01"
         cy="-255.27"
         id="ellipse25"
         r="4" />
    </g>
    <g
       id="node22"
       class="node"
       transform="matrix(2.08333,0,0,2.08333,8.33332,1414.5811)">
      <title
         id="title26">d11</title>
      <text
         text-anchor="middle"
         x="1427"
         y="-161.14999"
         font-family="roboto"
         font-size="18px"
         id="text26">2</text>
    </g>
    <g
       id="edge23"
       class="edge"
       transform="matrix(2.08333,0,0,2.08333,8.33332,1414.5811)">
      <title
         id="title27">n4-&gt;d11:w</title>
      <path
         fill="none"
         stroke="#808080"
         stroke-width="4"
         d="m 1315.15,-257.29 c 15.64,41.14 41.26,82.51 81.97,89.32"
         id="path27" />
      <polygon
         fill="#808080"
         stroke="#808080"
         stroke-width="4"
         points="1311.91,-266.45 1318.54,-258.19 1311.94,-255.86 "
         id="polygon27" />
      <circle
         fill="none"
         stroke="#808080"
         stroke-width="4"
         cx="1403.02"
         cy="-167.49001"
         id="ellipse27"
         r="4" />
    </g>
    <g
       id="node23"
       class="node"
       transform="matrix(2.08333,0,0,2.08333,8.33332,1414.5811)">
      <title
         id="title28">d12</title>
      <text
         text-anchor="middle"
         x="1427"
         y="-431.14999"
         font-family="roboto"
         font-size="18px"
         id="text28">3</text>
    </g>
    <g
       id="edge25"
       class="edge"
       transform="matrix(2.08333,0,0,2.08333,8.33332,1414.5811)">
      <title
         id="title29">n4-&gt;d12:w</title>
      <path
         fill="none"
         stroke="#808080"
         stroke-width="4"
         d="m 1352.03,-415.12 c 13.56,-10.25 28.89,-18.29 45.38,-20.94"
         id="path29" />
      <polygon
         fill="#808080"
         stroke="#808080"
         stroke-width="4"
         points="1344.45,-408.8 1349.89,-417.89 1354.37,-412.52 "
         id="polygon29" />
      <circle
         fill="none"
         stroke="#808080"
         stroke-width="4"
         cx="1403.02"
         cy="-436.51999"
         id="ellipse29"
         r="4" />
    </g>
    <g
       id="node6"
       class="node"
       transform="matrix(2.08333,0,0,2.08333,8.33332,1414.5811)">
      <title
         id="title30">n5</title>
      <circle
         fill="#d3d3d3"
         stroke="#000000"
         stroke-width="8"
         cx="1597"
         cy="-346"
         id="ellipse30"
         r="72" />
      <text
         text-anchor="start"
         x="1591"
         y="-340.14999"
         font-family="roboto"
         font-size="18px"
         id="text30">G</text>
    </g>
    <g
       id="node21"
       class="node"
       transform="matrix(2.08333,0,0,2.08333,8.33332,1414.5811)">
      <title
         id="title31">d10</title>
      <text
         text-anchor="middle"
         x="1732"
         y="-323.14999"
         font-family="roboto"
         font-size="18px"
         id="text31">1</text>
    </g>
    <g
       id="edge21"
       class="edge"
       transform="matrix(2.08333,0,0,2.08333,8.33332,1414.5811)">
      <title
         id="title32">n5-&gt;d10:w</title>
      <path
         fill="none"
         stroke="#000000"
         stroke-width="4"
         d="m 1671.4,-331.96 c 10.13,1.27 20.55,2.24 30.76,2.69"
         id="path32" />
      <circle
         fill="none"
         stroke="#000000"
         stroke-width="4"
         cx="1708"
         cy="-329.14001"
         id="ellipse32"
         r="4" />
    </g>
    <g
       id="node7"
       class="node"
       transform="matrix(2.08333,0,0,2.08333,8.33332,1414.5811)">
      <title
         id="title33">n6</title>
      <circle
         fill="#d3d3d3"
         stroke="#000000"
         stroke-width="8"
         cx="1597"
         cy="-72"
         id="ellipse33"
         r="72" />
      <text
         text-anchor="start"
         x="1591"
         y="-66.150002"
         font-family="roboto"
         font-size="18px"
         id="text33">D</text>
    </g>
    <g
       id="node8"
       class="node"
       transform="matrix(2.08333,0,0,2.08333,8.33332,1414.5811)">
      <title
         id="title34">n7</title>
      <circle
         fill="#d3d3d3"
         stroke="#000000"
         stroke-width="8"
         cx="1597"
         cy="-533"
         id="ellipse34"
         r="72" />
      <text
         text-anchor="start"
         x="1591.75"
         y="-527.15002"
         font-family="roboto"
         font-size="18px"
         id="text34">C</text>
    </g>
    <g
       id="node24"
       class="node"
       transform="matrix(2.08333,0,0,2.08333,8.33332,1414.5811)">
      <title
         id="title35">d13</title>
      <text
         text-anchor="middle"
         x="1732"
         y="-532.15002"
         font-family="roboto"
         font-size="18px"
         id="text35">1</text>
    </g>
    <g
       id="edge27"
       class="edge"
       transform="matrix(2.08333,0,0,2.08333,8.33332,1414.5811)">
      <title
         id="title36">n7-&gt;d13:w</title>
      <path
         fill="none"
         stroke="#808080"
         stroke-width="4"
         d="m 1688.71,-537.66 c 4.54,-0.11 9.07,-0.2 13.56,-0.26"
         id="path36" />
      <polygon
         fill="#808080"
         stroke="#808080"
         stroke-width="4"
         points="1678.91,-537.36 1688.8,-541.17 1689.01,-534.17 "
         id="polygon36" />
      <circle
         fill="none"
         stroke="#808080"
         stroke-width="4"
         cx="1708"
         cy="-537.96002"
         id="ellipse36"
         r="4" />
    </g>
    <g
       id="node9"
       class="node"
       transform="matrix(2.08333,0,0,2.08333,8.33332,1414.5811)">
      <title
         id="title37">n8</title>
      <circle
         fill="#d3d3d3"
         stroke="#000000"
         stroke-width="8"
         cx="1867"
         cy="-580"
         id="ellipse37"
         r="72" />
      <text
         text-anchor="start"
         x="1861.75"
         y="-574.15002"
         font-family="roboto"
         font-size="18px"
         id="text37">B</text>
    </g>
    <g
       id="node10"
       class="node"
       transform="matrix(2.08333,0,0,2.08333,8.33332,1414.5811)">
      <title
         id="title38">n9</title>
      <circle
         fill="#ff0000"
         stroke="#000000"
         stroke-width="8"
         cx="1867"
         cy="-325"
         id="ellipse38"
         r="72" />
      <text
         text-anchor="start"
         x="1852.38"
         y="-319.14999"
         font-family="roboto"
         font-size="18px"
         id="text38">end</text>
    </g>
    <g
       id="edge2"
       class="edge"
       transform="matrix(2.08333,0,0,2.08333,8.33332,1414.5811)">
      <title
         id="title39">d0:e-&gt;n2</title>
      <path
         fill="none"
         stroke="#000000"
         stroke-width="4"
         d="m 294.81,-533.01 c 73.94,-0.18 96.71,-1.99 176.19,-1.99 0,0 0,0 42,0 17.28,0 35.06,3.74 51.78,9.18"
         id="path39" />
      <circle
         fill="none"
         stroke="#000000"
         stroke-width="4"
         cx="289"
         cy="-533.01001"
         id="ellipse39"
         r="4" />
      <polygon
         fill="#000000"
         stroke="#000000"
         stroke-width="4"
         points="574.09,-522.46 563.5,-522.56 565.87,-529.14 "
         id="polygon39" />
    </g>
    <g
       id="edge4"
       class="edge"
       transform="matrix(2.08333,0,0,2.08333,8.33332,1414.5811)">
      <title
         id="title40">d1:e-&gt;n1</title>
      <path
         fill="none"
         stroke="#000000"
         stroke-width="4"
         d="m 236.84,-406.91 c 16.08,0.23 32.74,0.89 48.7,1.76"
         id="path40" />
      <circle
         fill="none"
         stroke="#000000"
         stroke-width="4"
         cx="231"
         cy="-406.95999"
         id="ellipse40"
         r="4" />
      <polygon
         fill="#000000"
         stroke="#000000"
         stroke-width="4"
         points="295.51,-404.56 285.32,-401.66 285.73,-408.65 "
         id="polygon40" />
    </g>
    <g
       id="edge6"
       class="edge"
       transform="matrix(2.08333,0,0,2.08333,8.33332,1414.5811)">
      <title
         id="title41">d2:e-&gt;n2</title>
      <path
         fill="none"
         stroke="#000000"
         stroke-width="4"
         d="m 541.64,-430.73 c 9.29,-1.13 18.52,-3.53 27.43,-6.71"
         id="path41" />
      <circle
         fill="none"
         stroke="#000000"
         stroke-width="4"
         cx="535.98999"
         cy="-430.37"
         id="ellipse41"
         r="4" />
      <polygon
         fill="#000000"
         stroke="#000000"
         stroke-width="4"
         points="578.11,-441.15 570.19,-434.12 567.53,-440.59 "
         id="polygon41" />
    </g>
    <g
       id="edge8"
       class="edge"
       transform="matrix(2.08333,0,0,2.08333,8.33332,1414.5811)">
      <title
         id="title42">d3:e-&gt;n8</title>
      <path
         fill="none"
         stroke="#000000"
         stroke-width="4"
         d="m 869.9,-657.08 c 81.55,-1.06 105.91,-12.92 193.1,-12.92 0,0 0,0 670,0 25.05,0 48.89,11.08 69.3,25.47"
         id="path42" />
      <circle
         fill="none"
         stroke="#000000"
         stroke-width="4"
         cx="864"
         cy="-657.03998"
         id="ellipse42"
         r="4" />
      <polygon
         fill="#000000"
         stroke="#000000"
         stroke-width="4"
         points="1810.05,-638.62 1799.97,-641.9 1804.22,-647.46 "
         id="polygon42" />
    </g>
    <g
       id="edge10"
       class="edge"
       transform="matrix(2.08333,0,0,2.08333,8.33332,1414.5811)">
      <title
         id="title43">d4:e-&gt;n7</title>
      <path
         fill="none"
         stroke="#000000"
         stroke-width="4"
         d="m 1093.77,-532 c 33.75,0 46.33,0 85.23,0 0,0 0,0 249,0 25.12,0 52.36,-0.11 77.44,-0.26"
         id="path43" />
      <circle
         fill="none"
         stroke="#000000"
         stroke-width="4"
         cx="1088"
         cy="-532"
         id="ellipse43"
         r="4" />
      <polygon
         fill="#000000"
         stroke="#000000"
         stroke-width="4"
         points="1515.1,-532.33 1505.12,-528.76 1505.07,-535.76 "
         id="polygon43" />
    </g>
    <g
       id="edge12"
       class="edge"
       transform="matrix(2.08333,0,0,2.08333,8.33332,1414.5811)">
      <title
         id="title44">d5:e-&gt;n6</title>
      <path
         fill="none"
         stroke="#000000"
         stroke-width="4"
         d="m 1209.89,-160.49 c 80.7,7.13 88.18,86.49 176.11,86.49 0,0 0,0 42,0 25.12,0 52.36,0.23 77.44,0.53"
         id="path44" />
      <circle
         fill="none"
         stroke="#000000"
         stroke-width="4"
         cx="1203.99"
         cy="-160.74001"
         id="ellipse44"
         r="4" />
      <polygon
         fill="#000000"
         stroke="#000000"
         stroke-width="4"
         points="1515.1,-73.35 1505.06,-69.98 1505.14,-76.98 "
         id="polygon44" />
    </g>
    <g
       id="edge14"
       class="edge"
       transform="matrix(2.08333,0,0,2.08333,8.33332,1414.5811)">
      <title
         id="title45">d6:e-&gt;n3</title>
      <path
         fill="none"
         stroke="#000000"
         stroke-width="4"
         d="m 811.96,-412.82 c 16.31,0.46 33.18,1.82 49.31,3.58"
         id="path45" />
      <circle
         fill="none"
         stroke="#000000"
         stroke-width="4"
         cx="806"
         cy="-412.91"
         id="ellipse45"
         r="4" />
      <polygon
         fill="#000000"
         stroke="#000000"
         stroke-width="4"
         points="871.08,-408.07 860.74,-405.78 861.57,-412.73 "
         id="polygon45" />
    </g>
    <g
       id="edge16"
       class="edge"
       transform="matrix(2.08333,0,0,2.08333,8.33332,1414.5811)">
      <title
         id="title46">d7:e-&gt;n4</title>
      <path
         fill="none"
         stroke="#000000"
         stroke-width="4"
         d="m 1151.76,-347.98 c 16.05,0.05 32.7,0.2 48.67,0.39"
         id="path46" />
      <circle
         fill="none"
         stroke="#000000"
         stroke-width="4"
         cx="1146"
         cy="-347.98999"
         id="ellipse46"
         r="4" />
      <polygon
         fill="#000000"
         stroke="#000000"
         stroke-width="4"
         points="1210.06,-347.46 1200.02,-344.09 1200.11,-351.09 "
         id="polygon46" />
    </g>
    <g
       id="edge18"
       class="edge"
       transform="matrix(2.08333,0,0,2.08333,8.33332,1414.5811)">
      <title
         id="title47">d8:e-&gt;n5</title>
      <path
         fill="none"
         stroke="#000000"
         stroke-width="4"
         d="m 1456.76,-346 c 16.05,0 32.7,0 48.67,0"
         id="path47" />
      <circle
         fill="none"
         stroke="#000000"
         stroke-width="4"
         cx="1451"
         cy="-346"
         id="ellipse47"
         r="4" />
      <polygon
         fill="#000000"
         stroke="#000000"
         stroke-width="4"
         points="1515.06,-346 1505.06,-342.5 1505.06,-349.5 "
         id="polygon47" />
    </g>
    <g
       id="edge20"
       class="edge"
       transform="matrix(2.08333,0,0,2.08333,8.33332,1414.5811)">
      <title
         id="title48">d9:e-&gt;n9</title>
      <path
         fill="none"
         stroke="#000000"
         stroke-width="4"
         d="m 1514.7,-253.36 c 41.07,8.19 157.23,44.36 176.3,44.36 0,0 0,0 42,0 31.58,0 59.3,-18.81 81.14,-41.28"
         id="path48" />
      <circle
         fill="none"
         stroke="#000000"
         stroke-width="4"
         cx="1508.9399"
         cy="-254.17"
         id="ellipse48"
         r="4" />
      <polygon
         fill="#000000"
         stroke="#000000"
         stroke-width="4"
         points="1820.62,-257.43 1816.49,-247.67 1811.31,-252.37 "
         id="polygon48" />
    </g>
    <g
       id="edge22"
       class="edge"
       transform="matrix(2.08333,0,0,2.08333,8.33332,1414.5811)">
      <title
         id="title49">d10:e-&gt;n9</title>
      <path
         fill="none"
         stroke="#000000"
         stroke-width="4"
         d="m 1761.71,-328.94 c 4.56,0.05 9.18,0.12 13.79,0.22"
         id="path49" />
      <circle
         fill="none"
         stroke="#000000"
         stroke-width="4"
         cx="1756"
         cy="-328.97"
         id="ellipse49"
         r="4" />
      <polygon
         fill="#000000"
         stroke="#000000"
         stroke-width="4"
         points="1785.08,-328.49 1775,-325.24 1775.17,-332.23 "
         id="polygon49" />
    </g>
    <g
       id="edge24"
       class="edge"
       transform="matrix(2.08333,0,0,2.08333,8.33332,1414.5811)">
      <title
         id="title50">d11:e-&gt;n6</title>
      <path
         fill="none"
         stroke="#808080"
         stroke-width="4"
         d="m 1456.88,-166.31 c 32.03,3.71 62.26,21.69 86.31,40.98"
         id="path50" />
      <circle
         fill="none"
         stroke="#808080"
         stroke-width="4"
         cx="1450.99"
         cy="-166.64999"
         id="ellipse50"
         r="4" />
    </g>
    <g
       id="edge26"
       class="edge"
       transform="matrix(2.08333,0,0,2.08333,8.33332,1414.5811)">
      <title
         id="title51">d12:e-&gt;n7</title>
      <path
         fill="none"
         stroke="#808080"
         stroke-width="4"
         d="m 1456.96,-437.71 c 32.25,-3.77 62.6,-22.09 86.67,-41.68"
         id="path51" />
      <circle
         fill="none"
         stroke="#808080"
         stroke-width="4"
         cx="1450.99"
         cy="-437.35001"
         id="ellipse51"
         r="4" />
    </g>
    <g
       id="edge28"
       class="edge"
       transform="matrix(2.08333,0,0,2.08333,8.33332,1414.5811)">
      <title
         id="title52">d13:e-&gt;n8</title>
      <path
         fill="none"
         stroke="#808080"
         stroke-width="4"
         d="m 1761.9,-538.62 c 12.46,-1.26 25,-4.34 36.84,-8.29"
         id="path52" />
      <circle
         fill="none"
         stroke="#808080"
         stroke-width="4"
         cx="1755.99"
         cy="-538.31"
         id="ellipse52"
         r="4" />
    </g>
  </g>
</svg>
