<?xml version="1.0" encoding="UTF-8" standalone="no"?>
<!-- Generated by graphviz version 12.1.0 (20240811.2233)
 -->

<!-- Pages: 1 -->

<svg
   width="3156.2449pt"
   height="2578.8301pt"
   viewBox="0 0 1514.5809 1237.3385"
   version="1.1"
   id="svg30"
   sodipodi:docname="agrawal_code_ex_2.svg"
   inkscape:version="1.3 (0e150ed6c4, 2023-07-21)"
   xmlns:inkscape="http://www.inkscape.org/namespaces/inkscape"
   xmlns:sodipodi="http://sodipodi.sourceforge.net/DTD/sodipodi-0.dtd"
   xmlns="http://www.w3.org/2000/svg"
   xmlns:svg="http://www.w3.org/2000/svg">
  <defs
     id="defs30" />
  <sodipodi:namedview
     id="namedview30"
     pagecolor="#ffffff"
     bordercolor="#111111"
     borderopacity="1"
     inkscape:showpageshadow="0"
     inkscape:pageopacity="0"
     inkscape:pagecheckerboard="1"
     inkscape:deskcolor="#d1d1d1"
     inkscape:document-units="pt"
     inkscape:zoom="0.18765145"
     inkscape:cx="-1033.8316"
     inkscape:cy="2001.0503"
     inkscape:window-width="3440"
     inkscape:window-height="1417"
     inkscape:window-x="-8"
     inkscape:window-y="-8"
     inkscape:window-maximized="1"
     inkscape:current-layer="svg30" />
  <g
     id="g30"
     transform="translate(0,-0.03827651)">
    <g
       id="node1"
       class="node"
       transform="matrix(2.08333,0,0,2.08333,8.33332,1229.1647)">
      <title
         id="title1">n0</title>
      <circle
         fill="#008000"
         stroke="#000000"
         stroke-width="8"
         cx="72"
         cy="-331"
         id="ellipse1"
         r="72" />
      <text
         text-anchor="start"
         x="66.75"
         y="-325.14999"
         font-family="roboto"
         font-size="18px"
         id="text1">A</text>
    </g>
    <g
       id="node7"
       class="node"
       transform="matrix(2.08333,0,0,2.08333,8.33332,1229.1647)">
      <title
         id="title2">d0</title>
      <text
         text-anchor="middle"
         x="265"
         y="-554.15002"
         font-family="roboto"
         font-size="18px"
         id="text2">1</text>
    </g>
    <g
       id="edge1"
       class="edge"
       transform="matrix(2.08333,0,0,2.08333,8.33332,1229.1647)">
      <title
         id="title3">n0-&gt;d0:w</title>
      <path
         fill="none"
         stroke="#000000"
         stroke-width="4"
         d="m 94.35,-403.46 c 23.51,-63.68 67.94,-147.51 140.72,-155.86"
         id="path3" />
      <circle
         fill="none"
         stroke="#000000"
         stroke-width="4"
         cx="241.00999"
         cy="-559.65997"
         id="ellipse3"
         r="4" />
    </g>
    <g
       id="node8"
       class="node"
       transform="matrix(2.08333,0,0,2.08333,8.33332,1229.1647)">
      <title
         id="title4">d1</title>
      <text
         text-anchor="middle"
         x="207"
         y="-385.14999"
         font-family="roboto"
         font-size="18px"
         id="text4">3</text>
    </g>
    <g
       id="edge3"
       class="edge"
       transform="matrix(2.08333,0,0,2.08333,8.33332,1229.1647)">
      <title
         id="title5">n0-&gt;d1:w</title>
      <path
         fill="none"
         stroke="#000000"
         stroke-width="4"
         d="m 133.33,-375.55 c 13.65,-7.04 28.66,-12.67 43.94,-14.67"
         id="path5" />
      <circle
         fill="none"
         stroke="#000000"
         stroke-width="4"
         cx="183.00999"
         cy="-390.60001"
         id="ellipse5"
         r="4" />
    </g>
    <g
       id="node9"
       class="node"
       transform="matrix(2.08333,0,0,2.08333,8.33332,1229.1647)">
      <title
         id="title6">d2</title>
      <text
         text-anchor="middle"
         x="207"
         y="-278.14999"
         font-family="roboto"
         font-size="18px"
         id="text6">2</text>
    </g>
    <g
       id="edge5"
       class="edge"
       transform="matrix(2.08333,0,0,2.08333,8.33332,1229.1647)">
      <title
         id="title7">n0-&gt;d2:w</title>
      <path
         fill="none"
         stroke="#000000"
         stroke-width="4"
         d="m 138.37,-294.55 c 12.43,4.74 25.71,8.46 38.99,9.9"
         id="path7" />
      <circle
         fill="none"
         stroke="#000000"
         stroke-width="4"
         cx="183.00999"
         cy="-284.32999"
         id="ellipse7"
         r="4" />
    </g>
    <g
       id="node10"
       class="node"
       transform="matrix(2.08333,0,0,2.08333,8.33332,1229.1647)">
      <title
         id="title8">d3</title>
      <text
         text-anchor="middle"
         x="207"
         y="-138.14999"
         font-family="roboto"
         font-size="18px"
         id="text8">2</text>
    </g>
    <g
       id="edge7"
       class="edge"
       transform="matrix(2.08333,0,0,2.08333,8.33332,1229.1647)">
      <title
         id="title9">n0-&gt;d3:w</title>
      <path
         fill="none"
         stroke="#000000"
         stroke-width="4"
         d="m 88.03,-256.82 c 14.29,48.43 41.04,104.1 89.3,111.9"
         id="path9" />
      <circle
         fill="none"
         stroke="#000000"
         stroke-width="4"
         cx="183.02"
         cy="-144.47"
         id="ellipse9"
         r="4" />
    </g>
    <g
       id="node2"
       class="node"
       transform="matrix(2.08333,0,0,2.08333,8.33332,1229.1647)">
      <title
         id="title10">n1</title>
      <circle
         fill="#d3d3d3"
         stroke="#000000"
         stroke-width="8"
         cx="377"
         cy="-72"
         id="ellipse10"
         r="72" />
      <text
         text-anchor="start"
         x="372.12"
         y="-66.150002"
         font-family="roboto"
         font-size="18px"
         id="text10">E</text>
    </g>
    <g
       id="node11"
       class="node"
       transform="matrix(2.08333,0,0,2.08333,8.33332,1229.1647)">
      <title
         id="title11">d4</title>
      <text
         text-anchor="middle"
         x="512"
         y="-166.14999"
         font-family="roboto"
         font-size="18px"
         id="text11">2</text>
    </g>
    <g
       id="edge9"
       class="edge"
       transform="matrix(2.08333,0,0,2.08333,8.33332,1229.1647)">
      <title
         id="title12">n1-&gt;d4:w</title>
      <path
         fill="none"
         stroke="#000000"
         stroke-width="4"
         d="m 420.96,-133.91 c 16.69,-17.58 37.53,-33.07 61.2,-37.09"
         id="path12" />
      <circle
         fill="none"
         stroke="#000000"
         stroke-width="4"
         cx="488.01999"
         cy="-171.49001"
         id="ellipse12"
         r="4" />
    </g>
    <g
       id="node3"
       class="node"
       transform="matrix(2.08333,0,0,2.08333,8.33332,1229.1647)">
      <title
         id="title13">n2</title>
      <circle
         fill="#d3d3d3"
         stroke="#000000"
         stroke-width="8"
         cx="377"
         cy="-259"
         id="ellipse13"
         r="72" />
      <text
         text-anchor="start"
         x="371"
         y="-253.14999"
         font-family="roboto"
         font-size="18px"
         id="text13">D</text>
    </g>
    <g
       id="node12"
       class="node"
       transform="matrix(2.08333,0,0,2.08333,8.33332,1229.1647)">
      <title
         id="title14">d5</title>
      <text
         text-anchor="middle"
         x="512"
         y="-253.14999"
         font-family="roboto"
         font-size="18px"
         id="text14">2</text>
    </g>
    <g
       id="edge11"
       class="edge"
       transform="matrix(2.08333,0,0,2.08333,8.33332,1229.1647)">
      <title
         id="title15">n2-&gt;d5:w</title>
      <path
         fill="none"
         stroke="#000000"
         stroke-width="4"
         d="m 452.88,-259 c 9.73,0 19.69,0 29.41,0"
         id="path15" />
      <circle
         fill="none"
         stroke="#000000"
         stroke-width="4"
         cx="488"
         cy="-259"
         id="ellipse15"
         r="4" />
    </g>
    <g
       id="node4"
       class="node"
       transform="matrix(2.08333,0,0,2.08333,8.33332,1229.1647)">
      <title
         id="title16">n3</title>
      <circle
         fill="#d3d3d3"
         stroke="#000000"
         stroke-width="8"
         cx="377"
         cy="-446"
         id="ellipse16"
         r="72" />
      <text
         text-anchor="start"
         x="371.75"
         y="-440.14999"
         font-family="roboto"
         font-size="18px"
         id="text16">C</text>
    </g>
    <g
       id="node13"
       class="node"
       transform="matrix(2.08333,0,0,2.08333,8.33332,1229.1647)">
      <title
         id="title17">d6</title>
      <text
         text-anchor="middle"
         x="512"
         y="-350.14999"
         font-family="roboto"
         font-size="18px"
         id="text17">3</text>
    </g>
    <g
       id="edge13"
       class="edge"
       transform="matrix(2.08333,0,0,2.08333,8.33332,1229.1647)">
      <title
         id="title18">n3-&gt;d6:w</title>
      <path
         fill="none"
         stroke="#000000"
         stroke-width="4"
         d="m 425.2,-387.48 c 16.19,14.57 35.69,27.06 57.09,30.53"
         id="path18" />
      <circle
         fill="none"
         stroke="#000000"
         stroke-width="4"
         cx="488.01999"
         cy="-356.48999"
         id="ellipse18"
         r="4" />
    </g>
    <g
       id="node14"
       class="node"
       transform="matrix(2.08333,0,0,2.08333,8.33332,1229.1647)">
      <title
         id="title19">d7</title>
      <text
         text-anchor="middle"
         x="512"
         y="-458.14999"
         font-family="roboto"
         font-size="18px"
         id="text19">1</text>
    </g>
    <g
       id="edge15"
       class="edge"
       transform="matrix(2.08333,0,0,2.08333,8.33332,1229.1647)">
      <title
         id="title20">n3-&gt;d7:w</title>
      <path
         fill="none"
         stroke="#808080"
         stroke-width="4"
         d="m 467.06,-462.65 c 5.1,-0.47 10.21,-0.84 15.27,-1.07"
         id="path20" />
      <polygon
         fill="#808080"
         stroke="#808080"
         stroke-width="4"
         points="457.39,-461.55 466.93,-466.15 467.72,-459.2 "
         id="polygon20" />
      <circle
         fill="none"
         stroke="#808080"
         stroke-width="4"
         cx="488"
         cy="-463.85999"
         id="ellipse20"
         r="4" />
    </g>
    <g
       id="node5"
       class="node"
       transform="matrix(2.08333,0,0,2.08333,8.33332,1229.1647)">
      <title
         id="title21">n4</title>
      <circle
         fill="#d3d3d3"
         stroke="#000000"
         stroke-width="8"
         cx="647"
         cy="-514"
         id="ellipse21"
         r="72" />
      <text
         text-anchor="start"
         x="641.75"
         y="-508.14999"
         font-family="roboto"
         font-size="18px"
         id="text21">B</text>
    </g>
    <g
       id="node6"
       class="node"
       transform="matrix(2.08333,0,0,2.08333,8.33332,1229.1647)">
      <title
         id="title22">n5</title>
      <circle
         fill="#ff0000"
         stroke="#000000"
         stroke-width="8"
         cx="647"
         cy="-259"
         id="ellipse22"
         r="72" />
      <text
         text-anchor="start"
         x="642.12"
         y="-253.14999"
         font-family="roboto"
         font-size="18px"
         id="text22">F</text>
    </g>
    <g
       id="edge2"
       class="edge"
       transform="matrix(2.08333,0,0,2.08333,8.33332,1229.1647)">
      <title
         id="title23">d0:e-&gt;n4</title>
      <path
         fill="none"
         stroke="#000000"
         stroke-width="4"
         d="M 294.88,-560.16 C 369.25,-562.19 390.93,-583 471,-583 c 0,0 0,0 42,0 20.52,0 41.03,6.55 59.58,15.62"
         id="path23" />
      <circle
         fill="none"
         stroke="#000000"
         stroke-width="4"
         cx="289"
         cy="-560.08002"
         id="ellipse23"
         r="4" />
      <polygon
         fill="#000000"
         stroke="#000000"
         stroke-width="4"
         points="581.34,-562.69 570.87,-564.32 574.17,-570.49 "
         id="polygon23" />
    </g>
    <g
       id="edge4"
       class="edge"
       transform="matrix(2.08333,0,0,2.08333,8.33332,1229.1647)">
      <title
         id="title24">d1:e-&gt;n3</title>
      <path
         fill="none"
         stroke="#000000"
         stroke-width="4"
         d="m 236.9,-391.49 c 19.75,-1.57 39.74,-6.82 58.18,-13.48"
         id="path24" />
      <circle
         fill="none"
         stroke="#000000"
         stroke-width="4"
         cx="231"
         cy="-391.23999"
         id="ellipse24"
         r="4" />
      <polygon
         fill="#000000"
         stroke="#000000"
         stroke-width="4"
         points="304.19,-408.51 296.14,-401.62 293.6,-408.14 "
         id="polygon24" />
    </g>
    <g
       id="edge6"
       class="edge"
       transform="matrix(2.08333,0,0,2.08333,8.33332,1229.1647)">
      <title
         id="title25">d2:e-&gt;n2</title>
      <path
         fill="none"
         stroke="#000000"
         stroke-width="4"
         d="m 236.85,-283.76 c 16.72,0.65 33.98,2.59 50.42,5.11"
         id="path25" />
      <circle
         fill="none"
         stroke="#000000"
         stroke-width="4"
         cx="231"
         cy="-283.88"
         id="ellipse25"
         r="4" />
      <polygon
         fill="#000000"
         stroke="#000000"
         stroke-width="4"
         points="297.08,-277.02 286.64,-275.21 287.79,-282.11 "
         id="polygon25" />
    </g>
    <g
       id="edge8"
       class="edge"
       transform="matrix(2.08333,0,0,2.08333,8.33332,1229.1647)">
      <title
         id="title26">d3:e-&gt;n1</title>
      <path
         fill="none"
         stroke="#000000"
         stroke-width="4"
         d="m 236.88,-143.41 c 22.29,2.18 44.42,10.13 64.25,19.99"
         id="path26" />
      <circle
         fill="none"
         stroke="#000000"
         stroke-width="4"
         cx="230.99001"
         cy="-143.7"
         id="ellipse26"
         r="4" />
      <polygon
         fill="#000000"
         stroke="#000000"
         stroke-width="4"
         points="309.78,-118.8 299.31,-120.42 302.6,-126.6 "
         id="polygon26" />
    </g>
    <g
       id="edge10"
       class="edge"
       transform="matrix(2.08333,0,0,2.08333,8.33332,1229.1647)">
      <title
         id="title27">d4:e-&gt;n5</title>
      <path
         fill="none"
         stroke="#000000"
         stroke-width="4"
         d="m 541.7,-172.94 c 15.59,-2.49 30.22,-9.69 43.33,-18.93"
         id="path27" />
      <circle
         fill="none"
         stroke="#000000"
         stroke-width="4"
         cx="535.97998"
         cy="-172.48"
         id="ellipse27"
         r="4" />
      <polygon
         fill="#000000"
         stroke="#000000"
         stroke-width="4"
         points="592.83,-197.97 587.11,-189.05 582.8,-194.57 "
         id="polygon27" />
    </g>
    <g
       id="edge12"
       class="edge"
       transform="matrix(2.08333,0,0,2.08333,8.33332,1229.1647)">
      <title
         id="title28">d5:e-&gt;n5</title>
      <path
         fill="none"
         stroke="#000000"
         stroke-width="4"
         d="m 541.71,-259 c 4.56,0 9.17,0 13.78,0"
         id="path28" />
      <circle
         fill="none"
         stroke="#000000"
         stroke-width="4"
         cx="536"
         cy="-259"
         id="ellipse28"
         r="4" />
      <polygon
         fill="#000000"
         stroke="#000000"
         stroke-width="4"
         points="565.07,-259 555.07,-255.5 555.07,-262.5 "
         id="polygon28" />
    </g>
    <g
       id="edge14"
       class="edge"
       transform="matrix(2.08333,0,0,2.08333,8.33332,1229.1647)">
      <title
         id="title29">d6:e-&gt;n5</title>
      <path
         fill="none"
         stroke="#000000"
         stroke-width="4"
         d="m 541.86,-355 c 17.96,3.02 34.37,12.58 48.58,24.57"
         id="path29" />
      <circle
         fill="none"
         stroke="#000000"
         stroke-width="4"
         cx="535.97998"
         cy="-355.5"
         id="ellipse29"
         r="4" />
      <polygon
         fill="#000000"
         stroke="#000000"
         stroke-width="4"
         points="597.41,-323.99 587.69,-328.21 592.44,-333.35 "
         id="polygon29" />
    </g>
    <g
       id="edge16"
       class="edge"
       transform="matrix(2.08333,0,0,2.08333,8.33332,1229.1647)">
      <title
         id="title30">d7:e-&gt;n4</title>
      <path
         fill="none"
         stroke="#808080"
         stroke-width="4"
         d="m 541.96,-464.72 c 13.62,-1.59 27.19,-5.68 39.82,-10.88"
         id="path30" />
      <circle
         fill="none"
         stroke="#808080"
         stroke-width="4"
         cx="535.98999"
         cy="-464.35999"
         id="ellipse30"
         r="4" />
    </g>
  </g>
</svg>
