<?xml version="1.0" encoding="UTF-8" standalone="no"?>
<!-- Generated by graphviz version 12.1.0 (20240811.2233)
 -->

<!-- Pages: 1 -->

<svg
   width="4325.7183pt"
   height="1470.8309pt"
   viewBox="0 0 2076.4281 706.24885"
   version="1.1"
   id="svg20"
   sodipodi:docname="agrawal_code_ex_1.svg"
   inkscape:version="1.3 (0e150ed6c4, 2023-07-21)"
   xmlns:inkscape="http://www.inkscape.org/namespaces/inkscape"
   xmlns:sodipodi="http://sodipodi.sourceforge.net/DTD/sodipodi-0.dtd"
   xmlns="http://www.w3.org/2000/svg"
   xmlns:svg="http://www.w3.org/2000/svg">
  <defs
     id="defs20" />
  <sodipodi:namedview
     id="namedview20"
     pagecolor="#ffffff"
     bordercolor="#111111"
     borderopacity="1"
     inkscape:showpageshadow="0"
     inkscape:pageopacity="0"
     inkscape:pagecheckerboard="1"
     inkscape:deskcolor="#d1d1d1"
     inkscape:document-units="pt"
     inkscape:zoom="0.16935071"
     inkscape:cx="-144.67019"
     inkscape:cy="1030.4061"
     inkscape:window-width="3440"
     inkscape:window-height="1417"
     inkscape:window-x="-8"
     inkscape:window-y="-8"
     inkscape:window-maximized="1"
     inkscape:current-layer="svg20" />
  <g
     id="g20"
     transform="translate(-0.1565117)">
    <g
       id="node1"
       class="node"
       transform="matrix(2.08333,0,0,2.08333,8.33332,697.91555)">
      <title
         id="title1">n0</title>
      <circle
         fill="#008000"
         stroke="#000000"
         stroke-width="8"
         cx="72"
         cy="-165"
         id="ellipse1"
         r="72" />
      <text
         text-anchor="start"
         x="66.75"
         y="-159.14999"
         font-family="roboto"
         font-size="18px"
         id="text1">A</text>
    </g>
    <g
       id="node6"
       class="node"
       transform="matrix(2.08333,0,0,2.08333,8.33332,697.91555)">
      <title
         id="title2">d0</title>
      <text
         text-anchor="middle"
         x="207"
         y="-215.14999"
         font-family="roboto"
         font-size="18px"
         id="text2">3</text>
    </g>
    <g
       id="edge1"
       class="edge"
       transform="matrix(2.08333,0,0,2.08333,8.33332,697.91555)">
      <title
         id="title3">n0-&gt;d0:w</title>
      <path
         fill="none"
         stroke="#000000"
         stroke-width="4"
         d="m 134.9,-207.16 c 13.27,-6.28 27.73,-11.26 42.35,-13.09"
         id="path3" />
      <circle
         fill="none"
         stroke="#000000"
         stroke-width="4"
         cx="183.00999"
         cy="-220.62"
         id="ellipse3"
         r="4" />
    </g>
    <g
       id="node7"
       class="node"
       transform="matrix(2.08333,0,0,2.08333,8.33332,697.91555)">
      <title
         id="title4">d1</title>
      <text
         text-anchor="middle"
         x="207"
         y="-116.15"
         font-family="roboto"
         font-size="18px"
         id="text4">3</text>
    </g>
    <g
       id="edge3"
       class="edge"
       transform="matrix(2.08333,0,0,2.08333,8.33332,697.91555)">
      <title
         id="title5">n0-&gt;d1:w</title>
      <path
         fill="none"
         stroke="#000000"
         stroke-width="4"
         d="m 139.88,-131.22 c 12.04,4.12 24.8,7.34 37.5,8.62"
         id="path5" />
      <circle
         fill="none"
         stroke="#000000"
         stroke-width="4"
         cx="183.00999"
         cy="-122.31"
         id="ellipse5"
         r="4" />
    </g>
    <g
       id="node2"
       class="node"
       transform="matrix(2.08333,0,0,2.08333,8.33332,697.91555)">
      <title
         id="title6">n1</title>
      <circle
         fill="#d3d3d3"
         stroke="#000000"
         stroke-width="8"
         cx="342"
         cy="-72"
         id="ellipse6"
         r="72" />
      <text
         text-anchor="start"
         x="336.75"
         y="-66.150002"
         font-family="roboto"
         font-size="18px"
         id="text6">C</text>
    </g>
    <g
       id="node8"
       class="node"
       transform="matrix(2.08333,0,0,2.08333,8.33332,697.91555)">
      <title
         id="title7">d2</title>
      <text
         text-anchor="middle"
         x="477"
         y="-103.15"
         font-family="roboto"
         font-size="18px"
         id="text7">3</text>
    </g>
    <g
       id="edge5"
       class="edge"
       transform="matrix(2.08333,0,0,2.08333,8.33332,697.91555)">
      <title
         id="title8">n1-&gt;d2:w</title>
      <path
         fill="none"
         stroke="#000000"
         stroke-width="4"
         d="m 411.81,-101.51 c 11.44,-3.3 23.47,-5.86 35.36,-6.94"
         id="path8" />
      <circle
         fill="none"
         stroke="#000000"
         stroke-width="4"
         cx="453.01001"
         cy="-108.72"
         id="ellipse8"
         r="4" />
    </g>
    <g
       id="node3"
       class="node"
       transform="matrix(2.08333,0,0,2.08333,8.33332,697.91555)">
      <title
         id="title9">n2</title>
      <circle
         fill="#d3d3d3"
         stroke="#000000"
         stroke-width="8"
         cx="647"
         cy="-118"
         id="ellipse9"
         r="72" />
      <text
         text-anchor="start"
         x="641"
         y="-112.15"
         font-family="roboto"
         font-size="18px"
         id="text9">D</text>
    </g>
    <g
       id="node9"
       class="node"
       transform="matrix(2.08333,0,0,2.08333,8.33332,697.91555)">
      <title
         id="title10">d3</title>
      <text
         text-anchor="middle"
         x="782"
         y="-146.14999"
         font-family="roboto"
         font-size="18px"
         id="text10">3</text>
    </g>
    <g
       id="edge7"
       class="edge"
       transform="matrix(2.08333,0,0,2.08333,8.33332,697.91555)">
      <title
         id="title11">n2-&gt;d3:w</title>
      <path
         fill="none"
         stroke="#000000"
         stroke-width="4"
         d="m 717.6,-145.28 c 11.18,-2.94 22.89,-5.22 34.44,-6.2"
         id="path11" />
      <circle
         fill="none"
         stroke="#000000"
         stroke-width="4"
         cx="758.01001"
         cy="-151.74001"
         id="ellipse11"
         r="4" />
    </g>
    <g
       id="node4"
       class="node"
       transform="matrix(2.08333,0,0,2.08333,8.33332,697.91555)">
      <title
         id="title12">n3</title>
      <circle
         fill="#d3d3d3"
         stroke="#000000"
         stroke-width="8"
         cx="342"
         cy="-259"
         id="ellipse12"
         r="72" />
      <text
         text-anchor="start"
         x="336.75"
         y="-253.14999"
         font-family="roboto"
         font-size="18px"
         id="text12">B</text>
    </g>
    <g
       id="node10"
       class="node"
       transform="matrix(2.08333,0,0,2.08333,8.33332,697.91555)">
      <title
         id="title13">d4</title>
      <text
         text-anchor="middle"
         x="535"
         y="-251.14999"
         font-family="roboto"
         font-size="18px"
         id="text13">3</text>
    </g>
    <g
       id="edge9"
       class="edge"
       transform="matrix(2.08333,0,0,2.08333,8.33332,697.91555)">
      <title
         id="title14">n3-&gt;d4:w</title>
      <path
         fill="none"
         stroke="#000000"
         stroke-width="4"
         d="m 417.94,-257.76 c 26.98,0.36 57.97,0.67 87.13,0.75"
         id="path14" />
      <circle
         fill="none"
         stroke="#000000"
         stroke-width="4"
         cx="511"
         cy="-257.01001"
         id="ellipse14"
         r="4" />
    </g>
    <g
       id="node5"
       class="node"
       transform="matrix(2.08333,0,0,2.08333,8.33332,697.91555)">
      <title
         id="title15">n4</title>
      <circle
         fill="#ff0000"
         stroke="#000000"
         stroke-width="8"
         cx="917"
         cy="-207"
         id="ellipse15"
         r="72" />
      <text
         text-anchor="start"
         x="912.12"
         y="-201.14999"
         font-family="roboto"
         font-size="18px"
         id="text15">E</text>
    </g>
    <g
       id="edge2"
       class="edge"
       transform="matrix(2.08333,0,0,2.08333,8.33332,697.91555)">
      <title
         id="title16">d0:e-&gt;n3</title>
      <path
         fill="none"
         stroke="#000000"
         stroke-width="4"
         d="m 236.93,-221.57 c 6.75,-0.63 13.54,-1.75 20.23,-3.22"
         id="path16" />
      <circle
         fill="none"
         stroke="#000000"
         stroke-width="4"
         cx="230.99001"
         cy="-221.28999"
         id="ellipse16"
         r="4" />
      <polygon
         fill="#000000"
         stroke="#000000"
         stroke-width="4"
         points="266.7,-227.26 257.9,-221.36 256.14,-228.14 "
         id="polygon16" />
    </g>
    <g
       id="edge4"
       class="edge"
       transform="matrix(2.08333,0,0,2.08333,8.33332,697.91555)">
      <title
         id="title17">d1:e-&gt;n1</title>
      <path
         fill="none"
         stroke="#000000"
         stroke-width="4"
         d="m 236.96,-121.28 c 8.4,0.98 16.79,2.91 24.95,5.47"
         id="path17" />
      <circle
         fill="none"
         stroke="#000000"
         stroke-width="4"
         cx="230.99001"
         cy="-121.64"
         id="ellipse17"
         r="4" />
      <polygon
         fill="#000000"
         stroke="#000000"
         stroke-width="4"
         points="271.09,-112.47 260.5,-112.6 262.89,-119.18 "
         id="polygon17" />
    </g>
    <g
       id="edge6"
       class="edge"
       transform="matrix(2.08333,0,0,2.08333,8.33332,697.91555)">
      <title
         id="title18">d2:e-&gt;n2</title>
      <path
         fill="none"
         stroke="#000000"
         stroke-width="4"
         d="m 506.84,-109.09 c 16.08,-0.23 32.74,-0.89 48.7,-1.76"
         id="path18" />
      <circle
         fill="none"
         stroke="#000000"
         stroke-width="4"
         cx="501"
         cy="-109.04"
         id="ellipse18"
         r="4" />
      <polygon
         fill="#000000"
         stroke="#000000"
         stroke-width="4"
         points="565.51,-111.44 555.73,-107.35 555.32,-114.34 "
         id="polygon18" />
    </g>
    <g
       id="edge8"
       class="edge"
       transform="matrix(2.08333,0,0,2.08333,8.33332,697.91555)">
      <title
         id="title19">d3:e-&gt;n4</title>
      <path
         fill="none"
         stroke="#000000"
         stroke-width="4"
         d="m 811.64,-152.73 c 9.29,-1.13 18.52,-3.53 27.43,-6.71"
         id="path19" />
      <circle
         fill="none"
         stroke="#000000"
         stroke-width="4"
         cx="805.98999"
         cy="-152.37"
         id="ellipse19"
         r="4" />
      <polygon
         fill="#000000"
         stroke="#000000"
         stroke-width="4"
         points="848.11,-163.15 840.19,-156.12 837.53,-162.59 "
         id="polygon19" />
    </g>
    <g
       id="edge10"
       class="edge"
       transform="matrix(2.08333,0,0,2.08333,8.33332,697.91555)">
      <title
         id="title20">d4:e-&gt;n4</title>
      <path
         fill="none"
         stroke="#000000"
         stroke-width="4"
         d="m 564.81,-257 c 73.93,0 96.71,0 176.19,0 0,0 0,0 42,0 17.28,0 35.06,3.74 51.78,9.18"
         id="path20" />
      <circle
         fill="none"
         stroke="#000000"
         stroke-width="4"
         cx="559"
         cy="-257"
         id="ellipse20"
         r="4" />
      <polygon
         fill="#000000"
         stroke="#000000"
         stroke-width="4"
         points="844.09,-244.46 833.5,-244.56 835.87,-251.14 "
         id="polygon20" />
    </g>
  </g>
</svg>
